SplineFontDB: 3.0
FontName: Shabnam-Bold
FullName: Shabnam Bold
FamilyName: Shabnam
Weight: Bold
Copyright: Copyright (c) 2003 by Bitstream, Inc. All Rights Reserved.\nDejaVu changes are in public domain\nCopyright (c) 2015 by Saber Rastikerdar. All Rights Reserved.\nNon-Arabic(Latin) glyphs and data are imported from Roboto font under the Apache License, Version 2.0.
Version: 2.0
ItalicAngle: 0
UnderlinePosition: -500
UnderlineWidth: 100
Ascent: 1638
Descent: 410
InvalidEm: 0
LayerCount: 2
Layer: 0 1 "Back" 1
Layer: 1 1 "Fore" 0
XUID: [1021 502 1027637223 14615765]
UniqueID: 4158952
UseUniqueID: 1
FSType: 0
OS2Version: 1
OS2_WeightWidthSlopeOnly: 0
OS2_UseTypoMetrics: 1
CreationTime: 1431850356
ModificationTime: 1506860105
PfmFamily: 33
TTFWeight: 700
TTFWidth: 5
LineGap: 0
VLineGap: 0
Panose: 2 11 6 3 3 8 4 2 2 4
OS2TypoAscent: 1900
OS2TypoAOffset: 0
OS2TypoDescent: -900
OS2TypoDOffset: 0
OS2TypoLinegap: 0
OS2WinAscent: 1900
OS2WinAOffset: 0
OS2WinDescent: 900
OS2WinDOffset: 0
HheadAscent: 1900
HheadAOffset: 0
HheadDescent: -900
HheadDOffset: 0
OS2SubXSize: 1331
OS2SubYSize: 1433
OS2SubXOff: 0
OS2SubYOff: 286
OS2SupXSize: 1331
OS2SupYSize: 1433
OS2SupXOff: 0
OS2SupYOff: 983
OS2StrikeYSize: 102
OS2StrikeYPos: 530
OS2Vendor: 'PfEd'
OS2CodePages: 00000041.20080000
OS2UnicodeRanges: 80002003.80000000.00000008.00000000
Lookup: 1 9 0 "'fina' Terminal Forms in Arabic lookup 9" { "'fina' Terminal Forms in Arabic lookup 9 subtable"  } ['fina' ('arab' <'KUR ' 'SND ' 'URD ' 'dflt' > ) ]
Lookup: 1 9 0 "'medi' Medial Forms in Arabic lookup 11" { "'medi' Medial Forms in Arabic lookup 11 subtable"  } ['medi' ('arab' <'KUR ' 'SND ' 'URD ' 'dflt' > ) ]
Lookup: 1 9 0 "'init' Initial Forms in Arabic lookup 13" { "'init' Initial Forms in Arabic lookup 13 subtable"  } ['init' ('arab' <'KUR ' 'SND ' 'URD ' 'dflt' > ) ]
Lookup: 4 1 1 "'rlig' Required Ligatures in Arabic lookup 14" { "'rlig' Required Ligatures in Arabic lookup 14 subtable"  } ['rlig' ('arab' <'KUR ' 'dflt' > ) ]

StartChar: exclam
Encoding: 33 33 1
Width: 568
VWidth: 2431
GlyphClass: 2
Flags: W
LayerCount: 2
Fore
SplineSet
110.919921875 172.381835938 m 128,-1,1
 110.919921875 242.950195312 110.919921875 242.950195312 160.635742188 292.666015625 c 128,-1,2
 210.19921875 342.23046875 210.19921875 342.23046875 281.416992188 342.883789062 c 0,3,4
 353.637695312 342.232421875 353.637695312 342.232421875 403.204101562 292.666015625 c 128,-1,5
 452.919921875 242.950195312 452.919921875 242.950195312 452.919921875 172.381835938 c 128,-1,6
 452.919921875 101.813476562 452.919921875 101.813476562 403.204101562 52.09765625 c 0,7,8
 352.9140625 2.951171875 352.9140625 2.951171875 282.422851562 1.8798828125 c 0,9,10
 210.202148438 2.53125 210.202148438 2.53125 160.635742188 52.09765625 c 128,-1,0
 110.919921875 101.813476562 110.919921875 101.813476562 110.919921875 172.381835938 c 128,-1,1
176.516601562 1365.35449219 m 5,11,-1
 379.28515625 1365.35449219 l 5,12,-1
 420.235351562 1365.35449219 l 5,13,-1
 419.274414062 1324.41601562 l 5,14,-1
 397.619140625 481.670898438 l 1,15,-1
 396.702148438 442.609375 l 1,16,-1
 357.629882812 442.609375 l 1,17,-1
 199.25390625 442.609375 l 1,18,-1
 160.227539062 442.609375 l 1,19,-1
 159.265625 481.624023438 l 1,20,-1
 136.528320312 1324.36914062 l 5,21,-1
 135.518554688 1365.35449219 l 5,22,-1
 176.516601562 1365.35449219 l 5,11,-1
EndSplineSet
EndChar

StartChar: period
Encoding: 46 46 2
Width: 572
VWidth: 2431
GlyphClass: 2
Flags: W
LayerCount: 2
Fore
SplineSet
116.255859375 169.43359375 m 128,-1,1
 116.255859375 240.001953125 116.255859375 240.001953125 165.971679688 289.717773438 c 128,-1,2
 215.53515625 339.282226562 215.53515625 339.282226562 286.752929688 339.935546875 c 0,3,4
 358.973632812 339.284179688 358.973632812 339.284179688 408.540039062 289.717773438 c 128,-1,5
 458.255859375 240.001953125 458.255859375 240.001953125 458.255859375 169.43359375 c 128,-1,6
 458.255859375 98.865234375 458.255859375 98.865234375 408.540039062 49.1494140625 c 0,7,8
 358.25 0.0029296875 358.25 0.0029296875 287.758789062 -1.068359375 c 0,9,10
 215.538085938 -0.4169921875 215.538085938 -0.4169921875 165.971679688 49.1494140625 c 128,-1,0
 116.255859375 98.865234375 116.255859375 98.865234375 116.255859375 169.43359375 c 128,-1,1
EndSplineSet
EndChar

StartChar: colon
Encoding: 58 58 3
Width: 579
VWidth: 2431
GlyphClass: 2
Flags: W
LayerCount: 2
Fore
SplineSet
118.203125 874.43359375 m 128,-1,1
 118.203125 945.001953125 118.203125 945.001953125 167.918945312 994.717773438 c 128,-1,2
 217.482421875 1044.28222656 217.482421875 1044.28222656 288.700195312 1044.93554688 c 0,3,4
 324.140625 1044.61621094 324.140625 1044.61621094 355.107421875 1031.87304688 c 128,-1,5
 386.07421875 1019.13085938 386.07421875 1019.13085938 410.487304688 994.717773438 c 0,6,7
 460.203125 945.001953125 460.203125 945.001953125 460.203125 874.43359375 c 128,-1,8
 460.203125 803.865234375 460.203125 803.865234375 410.487304688 754.149414062 c 128,-1,9
 360.923828125 704.584960938 360.923828125 704.584960938 289.706054688 703.931640625 c 0,10,11
 254.265625 704.250976562 254.265625 704.250976562 223.298828125 716.994140625 c 128,-1,12
 192.33203125 729.736328125 192.33203125 729.736328125 167.918945312 754.149414062 c 0,13,0
 118.203125 803.865234375 118.203125 803.865234375 118.203125 874.43359375 c 128,-1,1
118.203125 169.43359375 m 128,-1,15
 118.203125 240.001953125 118.203125 240.001953125 167.918945312 289.717773438 c 128,-1,16
 217.482421875 339.282226562 217.482421875 339.282226562 288.700195312 339.935546875 c 0,17,18
 360.920898438 339.284179688 360.920898438 339.284179688 410.487304688 289.717773438 c 128,-1,19
 460.203125 240.001953125 460.203125 240.001953125 460.203125 169.43359375 c 128,-1,20
 460.203125 98.865234375 460.203125 98.865234375 410.487304688 49.1494140625 c 0,21,22
 360.197265625 0.0029296875 360.197265625 0.0029296875 289.706054688 -1.068359375 c 0,23,24
 217.485351562 -0.4169921875 217.485351562 -0.4169921875 167.918945312 49.1494140625 c 128,-1,14
 118.203125 98.865234375 118.203125 98.865234375 118.203125 169.43359375 c 128,-1,15
EndSplineSet
EndChar

StartChar: afii57388
Encoding: 1548 1548 5
Width: 627
VWidth: 2438
GlyphClass: 2
Flags: W
LayerCount: 2
Fore
SplineSet
322.661132812 -1.06640625 m 0,0,1
 245.924804688 -1.02734375 245.924804688 -1.02734375 194.697265625 38.6552734375 c 128,-1,2
 143.46875 78.337890625 143.46875 78.337890625 127.55078125 151.249023438 c 0,3,4
 112.989257812 217.216796875 112.989257812 217.216796875 138.001953125 325.08984375 c 0,5,6
 181.653320312 516.524414062 181.653320312 516.524414062 382.944335938 710.49609375 c 2,7,-1
 407.16796875 733.838867188 l 1,8,-1
 434.317382812 713.9765625 l 1,9,-1
 499.111328125 666.575195312 l 1,10,-1
 535.8984375 639.663085938 l 1,11,-1
 504.4375 606.682617188 l 2,12,13
 439.220703125 538.31640625 439.220703125 538.31640625 400.3125 473.939453125 c 128,-1,14
 361.403320312 409.5625 361.403320312 409.5625 348.349609375 351.215820312 c 1,15,16
 421.220703125 341.390625 421.220703125 341.390625 461.375976562 293.36328125 c 128,-1,17
 501.530273438 245.3359375 501.530273438 245.3359375 502.096679688 169.8203125 c 0,18,19
 502.236328125 149.689453125 502.236328125 149.689453125 499.115234375 131.431640625 c 128,-1,20
 495.994140625 113.173828125 495.994140625 113.173828125 489.875976562 97.4775390625 c 128,-1,21
 483.758789062 81.7822265625 483.758789062 81.7822265625 474.69921875 68.236328125 c 128,-1,22
 465.639648438 54.689453125 465.639648438 54.689453125 453.985351562 43.818359375 c 128,-1,23
 442.33203125 32.947265625 442.33203125 32.947265625 428.049804688 24.513671875 c 128,-1,24
 413.767578125 16.0791015625 413.767578125 16.0791015625 397.294921875 10.43359375 c 128,-1,25
 380.821289062 4.787109375 380.821289062 4.787109375 362.032226562 1.865234375 c 128,-1,26
 343.243164062 -1.056640625 343.243164062 -1.056640625 322.661132812 -1.06640625 c 0,0,1
EndSplineSet
EndChar

StartChar: uni0615
Encoding: 1557 1557 6
Width: 11
VWidth: 2553
GlyphClass: 4
Flags: W
AnchorPoint: "Anchor-10" 648 1490.29 mark 0
AnchorPoint: "Anchor-9" 648 1490.29 mark 0
AnchorPoint: "Anchor-1" 648 2306.6 basemark 0
AnchorPoint: "Anchor-1" 648 1490.29 mark 0
LayerCount: 2
Fore
SplineSet
790.202541306 1859.40899435 m 0,0,1
 756.871680521 1861.94158731 756.871680521 1861.94158731 702.7878205 1827.39195548 c 0,2,3
 648.703960479 1792.84232365 648.703960479 1792.84232365 577.08487294 1720.94276432 c 2,4,-1
 554.426156272 1698.1953125 l 1,5,-1
 653.033718368 1698.19530722 l 2,6,7
 833.645158342 1698.00962288 833.645158342 1698.00962288 839.024248992 1778.69598263 c 0,8,9
 840.920393723 1805.87405712 840.920393723 1805.87405712 835.932835962 1823.35303495 c 0,10,11
 830.9452782 1840.83201278 830.9452782 1840.83201278 819.707151428 1849.35313623 c 0,12,13
 808.469024656 1857.87425967 808.469024656 1857.87425967 790.202541306 1859.40899435 c 0,0,1
940.09149977 1837.74855399 m 0,14,15
 941.410728456 1823.59731643 941.410728456 1823.59731643 941.419200033 1810.28114093 c 0,16,17
 941.551298225 1602.640625 941.551298225 1602.640625 631.908203125 1602.640625 c 2,18,-1
 347.12109375 1602.640625 l 1,19,-1
 337.12109375 1602.640625 l 1,20,-1
 337.12109375 1612.640625 l 1,21,-1
 337.12109375 1688.1953125 l 1,22,-1
 337.12109375 1698.1953125 l 1,23,-1
 347.12109375 1698.1953125 l 1,24,-1
 438.844726562 1698.1953125 l 1,25,-1
 438.844726562 2189.28320312 l 1,26,-1
 438.844726562 2199.28320312 l 1,27,-1
 448.844726562 2199.28320312 l 1,28,-1
 525.655273438 2199.28320312 l 1,29,-1
 535.646771236 2199.28320312 l 1,30,-1
 535.655269821 2189.29170894 l 1,31,-1
 535.978996446 1808.6974111 l 1,32,-1
 553.09835309 1826.39338593 l 2,33,34
 685.719658695 1963.96845652 685.719658695 1963.96845652 783.903577978 1964.69777732 c 0,35,36
 854.427427292 1965.37781415 854.427427292 1965.37781415 894.302146211 1933.21675037 c 0,37,38
 934.176865131 1901.05568659 934.176865131 1901.05568659 940.09149977 1837.74855399 c 0,14,15
EndSplineSet
EndChar

StartChar: uni061B
Encoding: 1563 1563 7
Width: 627
VWidth: 2438
GlyphClass: 2
Flags: W
LayerCount: 2
Fore
SplineSet
322.743164062 442.862304688 m 0,0,1
 246.006835938 442.901367188 246.006835938 442.901367188 194.779296875 482.583984375 c 128,-1,2
 143.55078125 522.266601562 143.55078125 522.266601562 127.6328125 595.177734375 c 0,3,4
 120.166015625 632.51171875 120.166015625 632.51171875 122.934570312 674.069335938 c 128,-1,5
 125.704101562 715.626953125 125.704101562 715.626953125 138.083984375 769.018554688 c 0,6,7
 181.735351562 960.453125 181.735351562 960.453125 383.026367188 1154.42480469 c 2,8,-1
 407.25 1177.76757812 l 1,9,-1
 434.399414062 1157.90527344 l 1,10,-1
 499.193359375 1110.50390625 l 1,11,-1
 535.98046875 1083.59179688 l 1,12,-1
 504.51953125 1050.61132812 l 2,13,14
 375.276367188 915.126953125 375.276367188 915.126953125 348.431640625 795.14453125 c 1,15,16
 421.302734375 785.319335938 421.302734375 785.319335938 461.458007812 737.291992188 c 128,-1,17
 501.612304688 689.264648438 501.612304688 689.264648438 502.178710938 613.749023438 c 0,18,19
 502.734375 533.331054688 502.734375 533.331054688 454.444335938 488.116210938 c 128,-1,20
 406.154296875 442.901367188 406.154296875 442.901367188 322.743164062 442.862304688 c 0,0,1
144.907226562 169.43359375 m 128,-1,22
 144.907226562 240.001953125 144.907226562 240.001953125 194.623046875 289.717773438 c 128,-1,23
 244.186523438 339.282226562 244.186523438 339.282226562 315.404296875 339.935546875 c 0,24,25
 387.625 339.284179688 387.625 339.284179688 437.19140625 289.717773438 c 128,-1,26
 486.907226562 240.001953125 486.907226562 240.001953125 486.907226562 169.43359375 c 128,-1,27
 486.907226562 98.865234375 486.907226562 98.865234375 437.19140625 49.1494140625 c 0,28,29
 386.901367188 0.0029296875 386.901367188 0.0029296875 316.41015625 -1.068359375 c 0,30,31
 244.189453125 -0.4169921875 244.189453125 -0.4169921875 194.623046875 49.1494140625 c 128,-1,21
 144.907226562 98.865234375 144.907226562 98.865234375 144.907226562 169.43359375 c 128,-1,22
EndSplineSet
EndChar

StartChar: uni061F
Encoding: 1567 1567 8
Width: 1041
VWidth: 2438
GlyphClass: 2
Flags: W
LayerCount: 2
Fore
SplineSet
405.284179688 169.43359375 m 128,-1,1
 405.284179688 240.001953125 405.284179688 240.001953125 455 289.717773438 c 128,-1,2
 504.563476562 339.282226562 504.563476562 339.282226562 576.282714844 339.283203125 c 128,-1,3
 648.001953125 339.284179688 648.001953125 339.284179688 697.568359375 289.717773438 c 128,-1,4
 747.284179688 240.001953125 747.284179688 240.001953125 747.284179688 169.43359375 c 0,5,6
 747.284179688 71.3209363017 747.284179688 71.3209363017 662.24609375 21.8203125 c 0,7,8
 623.662703662 -0.6379113416 623.662703662 -0.6379113416 564.114554956 -0.52745176455 c 128,-1,9
 504.56640625 -0.4169921875 504.56640625 -0.4169921875 455 49.1494140625 c 128,-1,0
 405.284179688 98.865234375 405.284179688 98.865234375 405.284179688 169.43359375 c 128,-1,1
438.52734375 471.243164062 m 2,10,11
 437.70610028 544.180750192 437.70610028 544.180750192 321.03125 615.936523438 c 0,12,13
 70 771 70 771 74.005859375 970.709960938 c 4,14,15
 77 1157 77 1157 204.624023438 1268.70996094 c 4,16,17
 332 1380 332 1380 506.069335938 1380.35253906 c 4,18,19
 846.281865844 1381.00053687 846.281865844 1381.00053687 960.712890625 1057.2734375 c 6,20,-1
 972.661132812 1023.47167969 l 5,21,-1
 764.659179688 923.2421875 l 5,22,-1
 746.643554688 957.293945312 l 6,23,24
 667 1108 667 1108 524.2578125 1106.69921875 c 4,25,26
 410 1106 410 1106 367.684570312 1032.07519531 c 4,27,28
 347 995 347 995 348.928710938 954.397460938 c 4,29,30
 352 890 352 890 460.091796875 819.345703125 c 0,31,32
 713.609476877 652.257385803 713.609476877 652.257385803 719.5234375 473.012695312 c 2,33,-1
 720.88671875 431.693359375 l 1,34,-1
 438.97265625 431.693359375 l 1,35,-1
 438.52734375 471.243164062 l 2,10,11
EndSplineSet
EndChar

StartChar: uni0621
Encoding: 1569 1569 9
Width: 807
VWidth: 2593
GlyphClass: 2
Flags: W
AnchorPoint: "Anchor-7" 470.143 -26.166 basechar 0
AnchorPoint: "Anchor-10" 322.188 1131.55 basechar 0
LayerCount: 2
Fore
SplineSet
444.806640625 670.45703125 m 0,0,1
 406.693359375 670.262695312 406.693359375 670.262695312 378.037109375 660.173828125 c 128,-1,2
 349.379882812 650.084960938 349.379882812 650.084960938 328.401367188 630.858398438 c 0,3,4
 312.487304688 615.466796875 312.487304688 615.466796875 304.833984375 595.3125 c 128,-1,5
 297.1796875 575.157226562 297.1796875 575.157226562 297.30078125 546.038085938 c 0,6,7
 297.243164062 520.442382812 297.243164062 520.442382812 304.42578125 500.15234375 c 128,-1,8
 311.607421875 479.861328125 311.607421875 479.861328125 327.69921875 462.592773438 c 128,-1,9
 343.790039062 445.32421875 343.790039062 445.32421875 370.572265625 432.1171875 c 128,-1,10
 397.353515625 418.909179688 397.353515625 418.909179688 435.588867188 409.282226562 c 0,11,12
 463.98828125 402.012695312 463.98828125 402.012695312 497.697265625 402.09765625 c 0,13,14
 562.192382812 402.012695312 562.192382812 402.012695312 649.756835938 447.828125 c 2,15,-1
 692.821289062 470.359375 l 1,16,-1
 706.6484375 423.764648438 l 1,17,-1
 753.6484375 265.37890625 l 1,18,-1
 764.1796875 229.887695312 l 1,19,-1
 729.607421875 216.646484375 l 1,20,-1
 181.306640625 6.646484375 l 1,21,-1
 145.283203125 -7.1513671875 l 1,22,-1
 130.189453125 28.3486328125 l 1,23,-1
 69.1630859375 171.874023438 l 1,24,-1
 52.4921875 211.08203125 l 1,25,-1
 92.6728515625 225.249023438 l 1,26,-1
 205.474609375 265.021484375 l 1,27,28
 51.0947265625 353.728515625 51.0947265625 353.728515625 51.69921875 555.795898438 c 0,29,30
 52.0380859375 752.337890625 52.0380859375 752.337890625 210.185546875 849.97265625 c 0,31,32
 257.4921875 879.57421875 257.4921875 879.57421875 314.295898438 894.426757812 c 128,-1,33
 371.100585938 909.278320312 371.100585938 909.278320312 436.12890625 909.607421875 c 0,34,35
 446.962890625 909.654296875 446.962890625 909.654296875 457.588867188 909.232421875 c 128,-1,36
 468.213867188 908.809570312 468.213867188 908.809570312 478.671875 907.911132812 c 128,-1,37
 489.130859375 907.013671875 489.130859375 907.013671875 499.366210938 905.641601562 c 128,-1,38
 509.6015625 904.270507812 509.6015625 904.270507812 519.659179688 902.415039062 c 128,-1,39
 529.715820312 900.55859375 529.715820312 900.55859375 539.536132812 898.2265625 c 128,-1,40
 549.356445312 895.89453125 549.356445312 895.89453125 558.987304688 893.068359375 c 128,-1,41
 568.6171875 890.2421875 568.6171875 890.2421875 577.997070312 886.936523438 c 128,-1,42
 587.376953125 883.631835938 587.376953125 883.631835938 596.555664062 879.823242188 c 128,-1,43
 605.734375 876.015625 605.734375 876.015625 614.6484375 871.725585938 c 2,44,-1
 637.30078125 860.822265625 l 1,45,-1
 637.30078125 835.682617188 l 1,46,-1
 637.30078125 684 l 1,47,-1
 637.30078125 627.87109375 l 1,48,-1
 584.24609375 646.190429688 l 2,49,50
 549.559570312 658.166992188 549.559570312 658.166992188 514.828125 664.20703125 c 128,-1,51
 480.095703125 670.248046875 480.095703125 670.248046875 444.806640625 670.45703125 c 0,0,1
EndSplineSet
EndChar

StartChar: uni0627
Encoding: 1575 1575 15
Width: 481
VWidth: 2593
GlyphClass: 2
Flags: W
AnchorPoint: "Anchor-10" 239.338 1535.41 basechar 0
AnchorPoint: "Anchor-7" 243.805 -214.859 basechar 0
LayerCount: 2
Fore
SplineSet
162.299804688 1367.72753906 m 5,0,-1
 332.393554688 1367.72753906 l 5,1,-1
 372.393554688 1367.72753906 l 5,2,-1
 372.393554688 1327.72753906 l 5,3,-1
 372.393554688 40.6943359375 l 1,4,-1
 372.393554688 0.6943359375 l 1,5,-1
 332.393554688 0.6943359375 l 1,6,-1
 162.299804688 0.6943359375 l 1,7,-1
 122.299804688 0.6943359375 l 1,8,-1
 122.299804688 40.6943359375 l 1,9,-1
 122.299804688 1327.72753906 l 5,10,-1
 122.299804688 1367.72753906 l 5,11,-1
 162.299804688 1367.72753906 l 5,0,-1
EndSplineSet
Substitution2: "'fina' Terminal Forms in Arabic lookup 9 subtable" uniFE8E
EndChar

StartChar: uni062D
Encoding: 1581 1581 21
Width: 1319
VWidth: 2593
GlyphClass: 2
Flags: W
AnchorPoint: "Anchor-7" 471.334 -793.653 basechar 0
AnchorPoint: "Anchor-10" 552.649 1211.29 basechar 0
LayerCount: 2
Fore
SplineSet
1083.94824219 305.901367188 m 2,0,1
 692.205078125 246.990234375 692.205078125 246.990234375 504.232421875 133.671875 c 128,-1,2
 316.259765625 20.3544921875 316.259765625 20.3544921875 315.6875 -137.948242188 c 0,3,4
 314.946289062 -286.026367188 314.946289062 -286.026367188 431.848632812 -360.677734375 c 128,-1,5
 548.75 -435.330078125 548.75 -435.330078125 804.451171875 -435.172851562 c 2,6,-1
 1218.30566406 -434.918945312 l 1,7,-1
 1258.33007812 -434.89453125 l 1,8,-1
 1258.33007812 -474.918945312 l 1,9,-1
 1258.33007812 -655.474609375 l 1,10,-1
 1258.33007812 -695.55859375 l 1,11,-1
 1218.24609375 -695.474609375 l 1,12,-1
 792.388671875 -694.58203125 l 2,13,14
 385.908203125 -693.975585938 385.908203125 -693.975585938 213.340820312 -528.677734375 c 0,15,16
 56.755859375 -377.767578125 56.755859375 -377.767578125 60.1123046875 -143.143554688 c 0,17,18
 63.0888671875 123.467773438 63.0888671875 123.467773438 269.893554688 289.005859375 c 128,-1,19
 476.698242188 454.54296875 476.698242188 454.54296875 872.2734375 519.693359375 c 1,20,-1
 707.169921875 596.186523438 l 2,21,22
 632.508789062 630.841796875 632.508789062 630.841796875 568.961914062 631.418945312 c 0,23,24
 559.26953125 631.330078125 559.26953125 631.330078125 550.119140625 630.495117188 c 128,-1,25
 540.969726562 629.661132812 540.969726562 629.661132812 532.252929688 628.076171875 c 128,-1,26
 523.536132812 626.4921875 523.536132812 626.4921875 515.209960938 624.12109375 c 128,-1,27
 506.884765625 621.750976562 506.884765625 621.750976562 498.912109375 618.625 c 128,-1,28
 490.938476562 615.498046875 490.938476562 615.498046875 483.19921875 611.54296875 c 128,-1,29
 475.4609375 607.587890625 475.4609375 607.587890625 467.993164062 602.87109375 c 128,-1,30
 460.526367188 598.153320312 460.526367188 598.153320312 453.141601562 592.567382812 c 2,31,-1
 297.141601562 474.567382812 l 1,32,-1
 267.6875 452.288085938 l 1,33,-1
 243.1328125 479.873046875 l 1,34,-1
 125.504882812 612.016601562 l 1,35,-1
 97.27734375 643.728515625 l 1,36,-1
 130.612304688 670.01953125 l 1,37,-1
 276.223632812 784.86328125 l 2,38,39
 418.068359375 896.974609375 418.068359375 896.974609375 560.850585938 897.236328125 c 0,40,41
 661.2265625 896.9765625 661.2265625 896.9765625 778.12890625 841.620117188 c 2,42,-1
 1099.18457031 689.594726562 l 2,43,44
 1254.92089844 615.26953125 1254.92089844 615.26953125 1255.26367188 506.502929688 c 2,45,-1
 1255.18945312 364.172851562 l 1,46,-1
 1255.16992188 327.66015625 l 1,47,-1
 1218.80761719 324.357421875 l 2,48,49
 1141.72949219 317.35546875 1141.72949219 317.35546875 1085.80761719 306.2265625 c 2,50,-1
 1084.88183594 306.041992188 l 1,51,-1
 1083.94824219 305.901367188 l 2,0,1
EndSplineSet
Substitution2: "'fina' Terminal Forms in Arabic lookup 9 subtable" uniFEA2
Substitution2: "'medi' Medial Forms in Arabic lookup 11 subtable" uniFEA4
Substitution2: "'init' Initial Forms in Arabic lookup 13 subtable" uniFEA3
EndChar

StartChar: uni062F
Encoding: 1583 1583 23
Width: 1011
VWidth: 2593
GlyphClass: 2
Flags: W
AnchorPoint: "Anchor-10" 403.659 1340.16 basechar 0
AnchorPoint: "Anchor-7" 428.382 -202.53 basechar 0
LayerCount: 2
Fore
SplineSet
467.978515625 -0 m 2,0,-1
 101.899414062 -0 l 1,1,-1
 61.8994140625 -0 l 1,2,-1
 61.8994140625 40 l 1,3,-1
 61.8994140625 224 l 1,4,-1
 61.8994140625 264 l 1,5,-1
 101.899414062 264 l 1,6,-1
 468.911132812 264 l 2,7,8
 493.6875 264 493.6875 264 515.91796875 265.114257812 c 0,9,10
 568.3515625 267.7421875 568.3515625 267.7421875 604.524414062 275.555664062 c 128,-1,11
 640.696289062 283.370117188 640.696289062 283.370117188 658.620117188 295.177734375 c 128,-1,12
 676.54296875 306.985351562 676.54296875 306.985351562 683.540039062 319.387695312 c 128,-1,13
 690.537109375 331.790039062 690.537109375 331.790039062 689.775390625 346.963867188 c 0,14,15
 686.774414062 404.975585938 686.774414062 404.975585938 597.755859375 507.822265625 c 2,16,-1
 322.936523438 825.326171875 l 1,17,-1
 299.907226562 851.931640625 l 1,18,-1
 323.360351562 878.1640625 l 1,19,-1
 446.875976562 1016.31835938 l 1,20,-1
 477.30078125 1050.34863281 l 1,21,-1
 507.041015625 1015.71972656 l 1,22,-1
 807.342773438 666.063476562 l 2,23,24
 951.072265625 498.737304688 951.072265625 498.737304688 950.288085938 336.826171875 c 0,25,26
 949.919921875 252.037109375 949.919921875 252.037109375 916.943359375 187.838867188 c 128,-1,27
 883.966796875 123.640625 883.966796875 123.640625 821.37109375 82.4423828125 c 128,-1,28
 758.775390625 41.244140625 758.775390625 41.244140625 670.205078125 20.6220703125 c 128,-1,29
 581.635742188 -0 581.635742188 -0 467.978515625 -0 c 2,0,-1
EndSplineSet
Substitution2: "'fina' Terminal Forms in Arabic lookup 9 subtable" uniFEAA
EndChar

StartChar: uni0631
Encoding: 1585 1585 25
Width: 749
VWidth: 2593
GlyphClass: 2
Flags: W
AnchorPoint: "Anchor-7" 297.433 -627.366 basechar 0
AnchorPoint: "Anchor-10" 450.527 995.269 basechar 0
LayerCount: 2
Fore
SplineSet
124.227539062 -190.440429688 m 2,0,1
 166.033203125 -190.46875 166.033203125 -190.46875 201.734375 -186.399414062 c 128,-1,2
 237.435546875 -182.330078125 237.435546875 -182.330078125 267.541992188 -173.993164062 c 128,-1,3
 297.647460938 -165.655273438 297.647460938 -165.655273438 322.09765625 -153.1953125 c 128,-1,4
 346.548828125 -140.735351562 346.548828125 -140.735351562 365.784179688 -123.744140625 c 128,-1,5
 385.020507812 -106.752929688 385.020507812 -106.752929688 399.053710938 -85.630859375 c 128,-1,6
 413.0859375 -64.5087890625 413.0859375 -64.5087890625 422.28515625 -38.5927734375 c 128,-1,7
 431.484375 -12.6767578125 431.484375 -12.6767578125 435.93359375 17.37890625 c 128,-1,8
 440.3828125 47.4345703125 440.3828125 47.4345703125 440.3828125 82.53125 c 2,9,-1
 440.383789062 648.626953125 l 1,10,-1
 440.383789062 688.39453125 l 1,11,-1
 480.151367188 688.625976562 l 1,12,-1
 661.948242188 689.68359375 l 1,13,-1
 702.180664062 689.91796875 l 1,14,-1
 702.180664062 649.684570312 l 1,15,-1
 702.180664062 85.01171875 l 2,16,17
 702.084960938 -176.8671875 702.084960938 -176.8671875 554.78125 -313.349609375 c 128,-1,18
 407.478515625 -449.831054688 407.478515625 -449.831054688 126.66015625 -451.411132812 c 2,19,-1
 22.173828125 -451.999023438 l 1,20,-1
 -18.0517578125 -452.225585938 l 1,21,-1
 -18.05078125 -411.999023438 l 1,22,-1
 -18.0478515625 -230.369140625 l 1,23,-1
 -18.046875 -190.342773438 l 1,24,-1
 21.9794921875 -190.370117188 l 1,25,-1
 124.227539062 -190.440429688 l 2,0,1
EndSplineSet
PairPos2: "'kern' Horizontal Kerning lookup 15-1" uniFEFB dx=-100 dy=0 dh=-100 dv=0 dx=0 dy=0 dh=0 dv=0
PairPos2: "'kern' Horizontal Kerning lookup 15-1" uniFEDF dx=-100 dy=0 dh=-100 dv=0 dx=0 dy=0 dh=0 dv=0
PairPos2: "'kern' Horizontal Kerning lookup 15-1" uni062F dx=-100 dy=0 dh=-100 dv=0 dx=0 dy=0 dh=0 dv=0
PairPos2: "'kern' Horizontal Kerning lookup 15-2" uniFB90 dx=-142 dy=0 dh=-142 dv=0 dx=0 dy=0 dh=0 dv=0
PairPos2: "'kern' Horizontal Kerning lookup 15-2" uniFB8E dx=-142 dy=0 dh=-142 dv=0 dx=0 dy=0 dh=0 dv=0
PairPos2: "'kern' Horizontal Kerning lookup 15-2" uni06A9 dx=-142 dy=0 dh=-142 dv=0 dx=0 dy=0 dh=0 dv=0
PairPos2: "'kern' Horizontal Kerning lookup 15-2" uniFEEB dx=-100 dy=0 dh=-100 dv=0 dx=0 dy=0 dh=0 dv=0
PairPos2: "'kern' Horizontal Kerning lookup 15-2" uni0647 dx=-100 dy=0 dh=-100 dv=0 dx=0 dy=0 dh=0 dv=0
PairPos2: "'kern' Horizontal Kerning lookup 15-2" uniFEE7 dx=-100 dy=0 dh=-100 dv=0 dx=0 dy=0 dh=0 dv=0
PairPos2: "'kern' Horizontal Kerning lookup 15-2" uniFEE3 dx=-100 dy=0 dh=-100 dv=0 dx=0 dy=0 dh=0 dv=0
PairPos2: "'kern' Horizontal Kerning lookup 15-2" uni0645 dx=-100 dy=0 dh=-100 dv=0 dx=0 dy=0 dh=0 dv=0
PairPos2: "'kern' Horizontal Kerning lookup 15-2" uniFEDB dx=-100 dy=0 dh=-100 dv=0 dx=0 dy=0 dh=0 dv=0
PairPos2: "'kern' Horizontal Kerning lookup 15-2" uni0643 dx=-100 dy=0 dh=-100 dv=0 dx=0 dy=0 dh=0 dv=0
PairPos2: "'kern' Horizontal Kerning lookup 15-2" uniFED7 dx=-100 dy=0 dh=-100 dv=0 dx=0 dy=0 dh=0 dv=0
PairPos2: "'kern' Horizontal Kerning lookup 15-2" uniFED3 dx=-100 dy=0 dh=-100 dv=0 dx=0 dy=0 dh=0 dv=0
PairPos2: "'kern' Horizontal Kerning lookup 15-2" uni0641 dx=-100 dy=0 dh=-100 dv=0 dx=0 dy=0 dh=0 dv=0
PairPos2: "'kern' Horizontal Kerning lookup 15-2" uniFECF dx=-100 dy=0 dh=-100 dv=0 dx=0 dy=0 dh=0 dv=0
PairPos2: "'kern' Horizontal Kerning lookup 15-2" uniFECB dx=-100 dy=0 dh=-100 dv=0 dx=0 dy=0 dh=0 dv=0
PairPos2: "'kern' Horizontal Kerning lookup 15-2" uniFEC7 dx=-100 dy=0 dh=-100 dv=0 dx=0 dy=0 dh=0 dv=0
PairPos2: "'kern' Horizontal Kerning lookup 15-2" uni0638 dx=-100 dy=0 dh=-100 dv=0 dx=0 dy=0 dh=0 dv=0
PairPos2: "'kern' Horizontal Kerning lookup 15-2" uniFEC3 dx=-100 dy=0 dh=-100 dv=0 dx=0 dy=0 dh=0 dv=0
PairPos2: "'kern' Horizontal Kerning lookup 15-2" uni0637 dx=-100 dy=0 dh=-100 dv=0 dx=0 dy=0 dh=0 dv=0
PairPos2: "'kern' Horizontal Kerning lookup 15-2" uniFEBF dx=-100 dy=0 dh=-100 dv=0 dx=0 dy=0 dh=0 dv=0
PairPos2: "'kern' Horizontal Kerning lookup 15-2" uni0636 dx=-100 dy=0 dh=-100 dv=0 dx=0 dy=0 dh=0 dv=0
PairPos2: "'kern' Horizontal Kerning lookup 15-2" uniFEBB dx=-100 dy=0 dh=-100 dv=0 dx=0 dy=0 dh=0 dv=0
PairPos2: "'kern' Horizontal Kerning lookup 15-2" uni0635 dx=-100 dy=0 dh=-100 dv=0 dx=0 dy=0 dh=0 dv=0
PairPos2: "'kern' Horizontal Kerning lookup 15-2" uniFEB7 dx=-100 dy=0 dh=-100 dv=0 dx=0 dy=0 dh=0 dv=0
PairPos2: "'kern' Horizontal Kerning lookup 15-2" uni0634 dx=-100 dy=0 dh=-100 dv=0 dx=0 dy=0 dh=0 dv=0
PairPos2: "'kern' Horizontal Kerning lookup 15-2" uniFEB3 dx=-100 dy=0 dh=-100 dv=0 dx=0 dy=0 dh=0 dv=0
PairPos2: "'kern' Horizontal Kerning lookup 15-2" uni0633 dx=-100 dy=0 dh=-100 dv=0 dx=0 dy=0 dh=0 dv=0
PairPos2: "'kern' Horizontal Kerning lookup 15-2" uniFEA7 dx=-100 dy=0 dh=-100 dv=0 dx=0 dy=0 dh=0 dv=0
PairPos2: "'kern' Horizontal Kerning lookup 15-2" uniFEA3 dx=-100 dy=0 dh=-100 dv=0 dx=0 dy=0 dh=0 dv=0
PairPos2: "'kern' Horizontal Kerning lookup 15-2" uniFE9F dx=-100 dy=0 dh=-100 dv=0 dx=0 dy=0 dh=0 dv=0
PairPos2: "'kern' Horizontal Kerning lookup 15-2" uniFE9B dx=-100 dy=0 dh=-100 dv=0 dx=0 dy=0 dh=0 dv=0
PairPos2: "'kern' Horizontal Kerning lookup 15-2" uni062B dx=-100 dy=0 dh=-100 dv=0 dx=0 dy=0 dh=0 dv=0
PairPos2: "'kern' Horizontal Kerning lookup 15-2" uniFE97 dx=-100 dy=0 dh=-100 dv=0 dx=0 dy=0 dh=0 dv=0
PairPos2: "'kern' Horizontal Kerning lookup 15-2" uni062A dx=-100 dy=0 dh=-100 dv=0 dx=0 dy=0 dh=0 dv=0
PairPos2: "'kern' Horizontal Kerning lookup 15-2" uni0629 dx=-100 dy=0 dh=-100 dv=0 dx=0 dy=0 dh=0 dv=0
PairPos2: "'kern' Horizontal Kerning lookup 15-2" uniFE91 dx=-47 dy=0 dh=-47 dv=0 dx=0 dy=0 dh=0 dv=0
PairPos2: "'kern' Horizontal Kerning lookup 15-2" uni0628 dx=-100 dy=0 dh=-100 dv=0 dx=0 dy=0 dh=0 dv=0
PairPos2: "'kern' Horizontal Kerning lookup 15-2" uni0627 dx=-100 dy=0 dh=-100 dv=0 dx=0 dy=0 dh=0 dv=0
PairPos2: "'kern' Horizontal Kerning lookup 15-2" uni0622 dx=-100 dy=0 dh=-100 dv=0 dx=0 dy=0 dh=0 dv=0
PairPos2: "'kern' Horizontal Kerning lookup 15-2" uni0621 dx=-100 dy=0 dh=-100 dv=0 dx=0 dy=0 dh=0 dv=0
PairPos2: "'kern' Horizontal Kerning lookup 15-2" uniFB94 dx=-142 dy=0 dh=-142 dv=0 dx=0 dy=0 dh=0 dv=0
PairPos2: "'kern' Horizontal Kerning lookup 15-2" uniFB92 dx=-142 dy=0 dh=-142 dv=0 dx=0 dy=0 dh=0 dv=0
PairPos2: "'kern' Horizontal Kerning lookup 15-2" afii57509 dx=-142 dy=0 dh=-142 dv=0 dx=0 dy=0 dh=0 dv=0
PairPos2: "'kern' Horizontal Kerning lookup 15-2" uniFB7C dx=-100 dy=0 dh=-100 dv=0 dx=0 dy=0 dh=0 dv=0
PairPos2: "'kern' Horizontal Kerning lookup 15-2" afii57506 dx=-100 dy=0 dh=-100 dv=0 dx=0 dy=0 dh=0 dv=0
PairPos2: "'kern' Horizontal Kerning lookup 15-2" afii57440 dx=-94 dy=0 dh=-94 dv=0 dx=0 dy=0 dh=0 dv=0
Substitution2: "'fina' Terminal Forms in Arabic lookup 9 subtable" uniFEAE
EndChar

StartChar: uni0633
Encoding: 1587 1587 27
Width: 2484
VWidth: 2593
GlyphClass: 2
Flags: W
AnchorPoint: "Anchor-7" 691 -625.5 basechar 0
AnchorPoint: "Anchor-10" 1778.4 1105.57 basechar 0
LayerCount: 2
Fore
SplineSet
1533.03613281 -1.0654296875 m 0,0,1
 1433.64355469 -0.3359375 1433.64355469 -0.3359375 1367.69628906 36.0947265625 c 1,2,3
 1356.81542969 -124.642578125 1356.81542969 -124.642578125 1281.6015625 -233.708984375 c 128,-1,4
 1206.38769531 -342.774414062 1206.38769531 -342.774414062 1072.4140625 -396.857421875 c 128,-1,5
 938.440429688 -450.940429688 938.440429688 -450.940429688 748.819335938 -450.940429688 c 2,6,-1
 694.10546875 -450.940429688 l 2,7,8
 265.05078125 -450.983398438 265.05078125 -450.983398438 124.508789062 -166.520507812 c 0,9,10
 61.390625 -37.5927734375 61.390625 -37.5927734375 61.12109375 143.262695312 c 2,11,-1
 61 485.986328125 l 1,12,-1
 60.986328125 525.9921875 l 1,13,-1
 100.9921875 526 l 1,14,-1
 281.870117188 526.033203125 l 1,15,-1
 321.877929688 526.041015625 l 1,16,-1
 321.877929688 486.033203125 l 1,17,-1
 321.877929688 144.461914062 l 2,18,19
 321.93359375 -24.9326171875 321.93359375 -24.9326171875 411.88671875 -105.286132812 c 128,-1,20
 501.83984375 -185.639648438 501.83984375 -185.639648438 696.272460938 -185.639648438 c 2,21,-1
 747.403320312 -185.639648438 l 2,22,23
 943.9609375 -185.810546875 943.9609375 -185.810546875 1033.1015625 -118.243164062 c 128,-1,24
 1122.24316406 -50.67578125 1122.24316406 -50.67578125 1122.16210938 88.5341796875 c 2,25,-1
 1121.81445312 684.794921875 l 1,26,-1
 1121.79101562 724.797851562 l 1,27,-1
 1161.79394531 724.818359375 l 1,28,-1
 1342.24707031 724.911132812 l 1,29,-1
 1382.26757812 724.931640625 l 1,30,-1
 1382.26757812 684.911132812 l 1,31,-1
 1382.26757812 439.270507812 l 2,32,33
 1382.14941406 344.189453125 1382.14941406 344.189453125 1417.78710938 303.784179688 c 128,-1,34
 1453.42480469 263.37890625 1453.42480469 263.37890625 1533.2109375 262.932617188 c 0,35,36
 1597.62402344 262.564453125 1597.62402344 262.564453125 1626.99511719 298.556640625 c 128,-1,37
 1656.3671875 334.548828125 1656.3671875 334.548828125 1656.61328125 423.78515625 c 2,38,-1
 1657.33984375 686.731445312 l 1,39,-1
 1657.45019531 726.62109375 l 1,40,-1
 1697.33984375 726.62109375 l 1,41,-1
 1884.45703125 726.62109375 l 1,42,-1
 1924.25 726.62109375 l 1,43,-1
 1924.45605469 686.828125 l 1,44,-1
 1925.80859375 425.85546875 l 2,45,46
 1926.33398438 336.932617188 1926.33398438 336.932617188 1957.15917969 300.146484375 c 128,-1,47
 1987.98535156 263.361328125 1987.98535156 263.361328125 2055.70898438 262.932617188 c 0,48,49
 2112.890625 262.576171875 2112.890625 262.576171875 2138.91992188 295.436523438 c 128,-1,50
 2164.94824219 328.295898438 2164.94824219 328.295898438 2164.94824219 411.92578125 c 2,51,-1
 2164.94824219 729.295898438 l 1,52,-1
 2164.94824219 769.295898438 l 1,53,-1
 2204.94824219 769.295898438 l 1,54,-1
 2383.70605469 769.295898438 l 1,55,-1
 2423.70605469 769.295898438 l 1,56,-1
 2423.70605469 729.295898438 l 1,57,-1
 2423.70605469 403.978515625 l 2,58,59
 2423.81054688 274.51953125 2423.81054688 274.51953125 2382.31445312 184.114257812 c 128,-1,60
 2340.81738281 93.708984375 2340.81738281 93.708984375 2258.34570312 46.333984375 c 128,-1,61
 2175.87402344 -1.0419921875 2175.87402344 -1.0419921875 2056.40917969 -1.06640625 c 0,62,63
 2000.08203125 -1.0478515625 2000.08203125 -1.0478515625 1952.63769531 10.26953125 c 128,-1,64
 1905.19335938 21.5869140625 1905.19335938 21.5869140625 1866.23828125 45.2861328125 c 128,-1,65
 1827.28320312 68.986328125 1827.28320312 68.986328125 1800.0390625 104.444335938 c 1,66,67
 1719.86132812 -2.740234375 1719.86132812 -2.740234375 1533.03613281 -1.0654296875 c 0,0,1
EndSplineSet
Substitution2: "'fina' Terminal Forms in Arabic lookup 9 subtable" uniFEB2
Substitution2: "'medi' Medial Forms in Arabic lookup 11 subtable" uniFEB4
Substitution2: "'init' Initial Forms in Arabic lookup 13 subtable" uniFEB3
EndChar

StartChar: uni0635
Encoding: 1589 1589 29
Width: 2515
VWidth: 2593
GlyphClass: 2
Flags: W
AnchorPoint: "Anchor-10" 2006.4 1309.57 basechar 0
AnchorPoint: "Anchor-7" 691 -625.5 basechar 0
LayerCount: 2
Fore
SplineSet
1382.26757812 459.294921875 m 2,0,1
 1382.26757812 401.545898438 1382.26757812 401.545898438 1392.34082031 363.307617188 c 128,-1,2
 1402.4140625 325.068359375 1402.4140625 325.068359375 1418.31933594 307.618164062 c 1,3,4
 1655.703125 859 1655.703125 859 2017.5 859 c 0,5,6
 2128.62792969 859 2128.62792969 859 2216.16503906 819.326171875 c 128,-1,7
 2303.703125 779.65234375 2303.703125 779.65234375 2362.88378906 701.061523438 c 0,8,9
 2408.5546875 641.134765625 2408.5546875 641.134765625 2431.40917969 565.259765625 c 128,-1,10
 2454.26269531 489.383789062 2454.26269531 489.383789062 2454.56152344 399.706054688 c 0,11,12
 2456.16894531 211.376953125 2456.16894531 211.376953125 2304.28027344 95.0849609375 c 0,13,14
 2179.50390625 0 2179.50390625 0 1961.26464844 0 c 2,15,-1
 1621.32421875 0 l 2,16,17
 1566.01660156 0 1566.01660156 0 1520.44628906 4.2294921875 c 128,-1,18
 1474.87597656 8.4580078125 1474.87597656 8.4580078125 1436.296875 17.6357421875 c 128,-1,19
 1397.71875 26.814453125 1397.71875 26.814453125 1367.97460938 41.0517578125 c 1,20,21
 1352.78808594 -202.451171875 1352.78808594 -202.451171875 1194.30859375 -326.7109375 c 128,-1,22
 1035.83007812 -450.969726562 1035.83007812 -450.969726562 748.819335938 -450.940429688 c 2,23,-1
 694.1015625 -450.940429688 l 2,24,25
 384.305664062 -450.940429688 384.305664062 -450.940429688 222.681640625 -299.89453125 c 128,-1,26
 61.0576171875 -148.848632812 61.0576171875 -148.848632812 61.12109375 143.262695312 c 2,27,-1
 61 485.986328125 l 1,28,-1
 60.986328125 525.9921875 l 1,29,-1
 100.9921875 526 l 1,30,-1
 281.870117188 526.033203125 l 1,31,-1
 321.877929688 526.041015625 l 1,32,-1
 321.877929688 486.033203125 l 1,33,-1
 321.877929688 144.44921875 l 2,34,35
 321.877929688 -25.126953125 321.877929688 -25.126953125 411.817382812 -105.467773438 c 128,-1,36
 501.756835938 -185.80859375 501.756835938 -185.80859375 696.254882812 -185.639648438 c 2,37,-1
 747.385742188 -185.639648438 l 2,38,39
 943.75390625 -185.639648438 943.75390625 -185.639648438 1032.921875 -118.052734375 c 128,-1,40
 1122.09082031 -50.4658203125 1122.09082031 -50.4658203125 1122.16210938 88.556640625 c 2,41,-1
 1121.81445312 684.794921875 l 1,42,-1
 1121.79101562 724.797851562 l 1,43,-1
 1161.79394531 724.818359375 l 1,44,-1
 1342.24707031 724.911132812 l 1,45,-1
 1382.26757812 724.931640625 l 1,46,-1
 1382.26757812 684.911132812 l 1,47,-1
 1382.26757812 459.294921875 l 2,0,1
2185.55078125 454.962890625 m 0,48,49
 2174.03808594 503.26953125 2174.03808594 503.26953125 2151.78515625 533.262695312 c 128,-1,50
 2129.53222656 563.256835938 2129.53222656 563.256835938 2094.13671875 577.6328125 c 128,-1,51
 2058.74023438 592.009765625 2058.74023438 592.009765625 2007.12402344 592.013671875 c 0,52,53
 1957.56054688 592.010742188 1957.56054688 592.010742188 1906.33691406 559.342773438 c 128,-1,54
 1855.11230469 526.674804688 1855.11230469 526.674804688 1798.32617188 452.97265625 c 128,-1,55
 1741.54003906 379.270507812 1741.54003906 379.270507812 1686.22070312 267.52734375 c 1,56,-1
 1981.19628906 267.52734375 l 2,57,58
 2116.49707031 267.959960938 2116.49707031 267.959960938 2160.46777344 306.93359375 c 0,59,60
 2191 333.997070312 2191 333.997070312 2191 389 c 0,61,62
 2191 409.26171875 2191 409.26171875 2189.5390625 426.142578125 c 128,-1,63
 2188.078125 443.0234375 2188.078125 443.0234375 2185.55078125 454.962890625 c 0,48,49
EndSplineSet
Substitution2: "'fina' Terminal Forms in Arabic lookup 9 subtable" uniFEBA
Substitution2: "'medi' Medial Forms in Arabic lookup 11 subtable" uniFEBC
Substitution2: "'init' Initial Forms in Arabic lookup 13 subtable" uniFEBB
EndChar

StartChar: uni0637
Encoding: 1591 1591 31
Width: 1339
VWidth: 2593
GlyphClass: 2
Flags: W
AnchorPoint: "Anchor-7" 579.72 -196 basechar 0
AnchorPoint: "Anchor-10" 441.723 1566.59 basechar 0
LayerCount: 2
Fore
SplineSet
784.940429688 0 m 2,0,-1
 101.770507812 0 l 1,1,-1
 61.7705078125 0 l 1,2,-1
 61.7705078125 40 l 1,3,-1
 61.7705078125 225.200195312 l 1,4,-1
 61.7705078125 265.252929688 l 1,5,-1
 101.823242188 265.200195312 l 1,6,-1
 226.204101562 265.03515625 l 1,7,8
 250 318 250 318 320.905273438 452.047851562 c 1,9,-1
 320.905273438 1328.64355469 l 5,10,-1
 320.905273438 1368.64355469 l 5,11,-1
 360.905273438 1368.64355469 l 5,12,-1
 531 1368.64355469 l 5,13,-1
 571 1368.64355469 l 5,14,-1
 571 1328.64355469 l 5,15,-1
 571 760.686523438 l 1,16,17
 701 859 701 859 842.17578125 859 c 0,18,19
 1066 859 1066 859 1186.40820312 701.259765625 c 0,20,21
 1209 672 1209 672 1226.4453125 637.517578125 c 128,-1,22
 1244 603 1244 603 1254.97753906 565.583007812 c 128,-1,23
 1266 528 1266 528 1272.11230469 486.331054688 c 0,24,25
 1278 445 1278 445 1278.23632812 399.823242188 c 0,26,27
 1279 307 1279 307 1241.07128906 229.611328125 c 0,28,29
 1203 152 1203 152 1127.96386719 95.0908203125 c 0,30,31
 1004 0 1004 0 784.940429688 0 c 2,0,-1
830.796875 592.013671875 m 0,32,33
 754.87890625 592.013671875 754.87890625 592.013671875 673.252929688 512.6796875 c 128,-1,34
 591.627929688 433.344726562 591.627929688 433.344726562 509.803710938 267.52734375 c 1,35,-1
 804.873046875 267.52734375 l 2,36,37
 937.706054688 267.951171875 937.706054688 267.951171875 984.5234375 307.268554688 c 0,38,39
 1014.91796875 334.40234375 1014.91796875 334.40234375 1014.67480469 389.055664062 c 0,40,41
 1014.82421875 409.778320312 1014.82421875 409.778320312 1013.40917969 426.274414062 c 128,-1,42
 1011.99414062 442.770507812 1011.99414062 442.770507812 1009.27050781 454.779296875 c 0,43,44
 998.056640625 502.84765625 998.056640625 502.84765625 975.89453125 532.8828125 c 128,-1,45
 953.733398438 562.91796875 953.733398438 562.91796875 918.150390625 577.465820312 c 128,-1,46
 882.567382812 592.013671875 882.567382812 592.013671875 830.796875 592.013671875 c 0,32,33
EndSplineSet
Substitution2: "'fina' Terminal Forms in Arabic lookup 9 subtable" uniFEC2
Substitution2: "'medi' Medial Forms in Arabic lookup 11 subtable" uniFEC4
Substitution2: "'init' Initial Forms in Arabic lookup 13 subtable" uniFEC3
EndChar

StartChar: uni0639
Encoding: 1593 1593 33
Width: 1249
VWidth: 2593
GlyphClass: 2
Flags: W
AnchorPoint: "Anchor-7" 471.334 -793.653 basechar 0
AnchorPoint: "Anchor-10" 711.349 1393.99 basechar 0
LayerCount: 2
Fore
SplineSet
60.11328125 -135.084960938 m 0,0,1
 62.55859375 32.2314453125 62.55859375 32.2314453125 155.909179688 159.279296875 c 128,-1,2
 249.258789062 286.327148438 249.258789062 286.327148438 426.654296875 368.786132812 c 1,3,4
 316.001953125 490.208984375 316.001953125 490.208984375 316.03125 645.03125 c 0,5,6
 317.096679688 824.404296875 317.096679688 824.404296875 447.037109375 957.301757812 c 0,7,8
 569.202148438 1082.01269531 569.202148438 1082.01269531 762.986328125 1081.86621094 c 0,9,10
 969.150390625 1082.01367188 969.150390625 1082.01367188 1102.84863281 915.76953125 c 2,11,-1
 1119.58105469 894.963867188 l 1,12,-1
 1106.78613281 871.53125 l 1,13,-1
 1032.46777344 735.42578125 l 1,14,-1
 1007.11816406 689.000976562 l 1,15,-1
 969.352539062 726.037109375 l 2,16,17
 879.73046875 813.930664062 879.73046875 813.930664062 767.44921875 813.451171875 c 0,18,19
 668.079101562 813.075195312 668.079101562 813.075195312 615.012695312 742.188476562 c 0,20,21
 604.534179688 728.171875 604.534179688 728.171875 597.586914062 713.028320312 c 128,-1,22
 590.639648438 697.884765625 590.639648438 697.884765625 587.052734375 681.041992188 c 128,-1,23
 583.46484375 664.200195312 583.46484375 664.200195312 583.262695312 645.463867188 c 0,24,25
 583.047851562 561.68359375 583.047851562 561.68359375 673.086914062 486.581054688 c 0,26,27
 699.498046875 464.625976562 699.498046875 464.625976562 746.8203125 469.860351562 c 0,28,29
 960.755859375 492.881835938 960.755859375 492.881835938 1108.47558594 501.032226562 c 2,30,-1
 1150.67871094 503.360351562 l 1,31,-1
 1150.67871094 461.092773438 l 1,32,-1
 1150.67871094 276.701171875 l 1,33,-1
 1150.67871094 234.932617188 l 1,34,-1
 1108.94921875 236.73828125 l 2,35,36
 743.299804688 252.560546875 743.299804688 252.560546875 491.950195312 116.7734375 c 0,37,38
 401.666992188 68.408203125 401.666992188 68.408203125 358.96484375 5.6953125 c 128,-1,39
 316.26171875 -57.0166015625 316.26171875 -57.0166015625 315.686523438 -138.017578125 c 0,40,41
 314.948242188 -286.049804688 314.948242188 -286.049804688 431.860351562 -360.706054688 c 128,-1,42
 548.7734375 -435.361328125 548.7734375 -435.361328125 804.446289062 -435.172851562 c 2,43,-1
 1148.30078125 -434.918945312 l 1,44,-1
 1188.33007812 -434.889648438 l 1,45,-1
 1188.33007812 -474.918945312 l 1,46,-1
 1188.33007812 -655.474609375 l 1,47,-1
 1188.33007812 -695.575195312 l 1,48,-1
 1148.22949219 -695.474609375 l 1,49,-1
 792.368164062 -694.58203125 l 2,50,51
 385.908203125 -693.975585938 385.908203125 -693.975585938 213.340820312 -528.677734375 c 0,52,53
 56.7646484375 -377.775390625 56.7646484375 -377.775390625 60.11328125 -135.084960938 c 0,0,1
EndSplineSet
Substitution2: "'fina' Terminal Forms in Arabic lookup 9 subtable" uniFECA
Substitution2: "'medi' Medial Forms in Arabic lookup 11 subtable" uniFECC
Substitution2: "'init' Initial Forms in Arabic lookup 13 subtable" uniFECB
EndChar

StartChar: afii57440
Encoding: 1600 1600 35
Width: 250
VWidth: 2593
GlyphClass: 2
Flags: W
AnchorPoint: "Anchor-10" 125.758 1543.26 basechar 0
AnchorPoint: "Anchor-7" 129.758 -130.351 basechar 0
LayerCount: 2
Fore
SplineSet
254.9765625 264 m 2,0,1
 270.690429688 264 270.690429688 264 282.490234375 258.637695312 c 128,-1,2
 294.290039062 253.275390625 294.290039062 253.275390625 301.057617188 242.314453125 c 128,-1,3
 307.825195312 231.352539062 307.825195312 231.352539062 312.05859375 221.189453125 c 128,-1,4
 316.291992188 211.026367188 316.291992188 211.026367188 317.842773438 194.685546875 c 128,-1,5
 319.39453125 178.34375 319.39453125 178.34375 319.7265625 169.411132812 c 128,-1,6
 320.05859375 160.477539062 320.05859375 160.477539062 319.994140625 145.236328125 c 0,7,8
 319.9765625 140.986328125 319.9765625 140.986328125 319.9765625 139 c 2,9,-1
 319.9765625 128.010742188 l 2,10,11
 319.983398438 103.872070312 319.983398438 103.872070312 319.608398438 93.79296875 c 128,-1,12
 319.233398438 83.71484375 319.233398438 83.71484375 316.987304688 66.2216796875 c 128,-1,13
 314.7421875 48.728515625 314.7421875 48.728515625 308.73828125 37.064453125 c 128,-1,14
 302.734375 25.400390625 302.734375 25.400390625 292.577148438 15.5 c 0,15,16
 285.471679688 8.57421875 285.471679688 8.57421875 275.453125 4.287109375 c 128,-1,17
 265.435546875 0 265.435546875 0 254.9765625 0 c 2,18,-1
 -5.0234375 0 l 2,19,20
 -40.96484375 0 -40.96484375 0 -67.34765625 16.9580078125 c 128,-1,21
 -93.7314453125 33.916015625 -93.7314453125 33.916015625 -106.876953125 62.619140625 c 128,-1,22
 -120.0234375 91.3232421875 -120.0234375 91.3232421875 -120.0234375 128 c 2,23,-1
 -120.0234375 139.010742188 l 2,24,25
 -120.013671875 175.020507812 -120.013671875 175.020507812 -106.654296875 203.122070312 c 128,-1,26
 -93.294921875 231.224609375 -93.294921875 231.224609375 -66.953125 247.612304688 c 128,-1,27
 -40.6123046875 264 -40.6123046875 264 -5.0234375 264 c 2,28,-1
 254.9765625 264 l 2,0,1
EndSplineSet
EndChar

StartChar: uni0643
Encoding: 1603 1603 38
Width: 1889
VWidth: 2593
GlyphClass: 2
Flags: W
AnchorPoint: "Anchor-7" 849.692 -190.794 basechar 0
AnchorPoint: "Anchor-10" 927.382 1519.15 basechar 0
LayerCount: 2
Fore
SplineSet
708.515625 823.330078125 m 2,0,1
 770.712890625 815.491210938 770.712890625 815.491210938 832.82421875 815.491210938 c 0,2,3
 847.275390625 815.491210938 847.275390625 815.491210938 861.104492188 816.682617188 c 128,-1,4
 874.932617188 817.874023438 874.932617188 817.874023438 888.122070312 820.251953125 c 128,-1,5
 901.311523438 822.62890625 901.311523438 822.62890625 913.877929688 826.153320312 c 128,-1,6
 926.444335938 829.676757812 926.444335938 829.676757812 938.538085938 834.377929688 c 0,7,8
 962.4765625 843.681640625 962.4765625 843.681640625 976.501953125 853.801757812 c 128,-1,9
 990.526367188 863.920898438 990.526367188 863.920898438 993.79296875 870.013671875 c 128,-1,10
 997.059570312 876.106445312 997.059570312 876.106445312 997.059570312 881.939453125 c 0,11,12
 997.059570312 885.37109375 997.059570312 885.37109375 995.390625 888.637695312 c 128,-1,13
 993.721679688 891.903320312 993.721679688 891.903320312 979.68359375 898.4140625 c 128,-1,14
 965.645507812 904.923828125 965.645507812 904.923828125 939.924804688 908.993164062 c 0,15,16
 833.236328125 925.873046875 833.236328125 925.873046875 787.447265625 985.76171875 c 0,17,18
 720.083984375 1073.86523438 720.083984375 1073.86523438 750.875 1170.64257812 c 0,19,20
 765.318359375 1216.04101562 765.318359375 1216.04101562 795.881835938 1251.04394531 c 128,-1,21
 826.4453125 1286.046875 826.4453125 1286.046875 871.303710938 1309.65136719 c 128,-1,22
 916.163085938 1333.25585938 916.163085938 1333.25585938 972.349609375 1347.21582031 c 128,-1,23
 1028.53613281 1361.17578125 1028.53613281 1361.17578125 1097.48144531 1366.29980469 c 2,24,-1
 1126.75097656 1368.47460938 l 1,25,-1
 1169.71484375 1371.66699219 l 1,26,-1
 1169.71484375 1328.58496094 l 1,27,-1
 1169.71484375 1228.15820312 l 1,28,-1
 1169.71484375 1191.28027344 l 1,29,-1
 1132.95800781 1188.29003906 l 1,30,-1
 1107.91796875 1186.25292969 l 2,31,32
 1055.40527344 1181.98144531 1055.40527344 1181.98144531 1017.90917969 1173.31054688 c 128,-1,33
 980.412109375 1164.640625 980.412109375 1164.640625 962.197265625 1153.81933594 c 128,-1,34
 943.981445312 1142.99902344 943.981445312 1142.99902344 936.287109375 1133.17089844 c 128,-1,35
 928.592773438 1123.34375 928.592773438 1123.34375 928.592773438 1113.37695312 c 0,36,37
 928.592773438 1105.625 928.592773438 1105.625 929.982421875 1101.57226562 c 128,-1,38
 931.372070312 1097.52050781 931.372070312 1097.52050781 937.109375 1093.4296875 c 128,-1,39
 942.845703125 1089.33984375 942.845703125 1089.33984375 954.782226562 1085.49902344 c 0,40,41
 979.47265625 1077.55566406 979.47265625 1077.55566406 1027.60058594 1070.4765625 c 0,42,43
 1058.91113281 1065.87109375 1058.91113281 1065.87109375 1086.10644531 1053.02148438 c 128,-1,44
 1113.30175781 1040.171875 1113.30175781 1040.171875 1134.72851562 1019.41601562 c 0,45,46
 1157.77246094 997.09375 1157.77246094 997.09375 1169.19042969 966.6953125 c 128,-1,47
 1180.609375 936.297851562 1180.609375 936.297851562 1180.609375 900.932617188 c 0,48,49
 1180.609375 832.294921875 1180.609375 832.294921875 1151.16210938 785.510742188 c 0,50,51
 1024.44335938 584.1875 1024.44335938 584.1875 689.719726562 636.505859375 c 2,52,-1
 666.678710938 640.108398438 l 1,53,-1
 632.857421875 645.396484375 l 1,54,-1
 632.857421875 679.627929688 l 1,55,-1
 632.857421875 787.506835938 l 1,56,-1
 632.857421875 832.864257812 l 1,57,-1
 677.858398438 827.193359375 l 1,58,-1
 708.515625 823.330078125 l 2,0,1
537.549804688 264 m 2,59,-1
 1351.84667969 264 l 2,60,61
 1448 264 1448 264 1492.60839844 316.662109375 c 0,62,63
 1537.41601562 370.499855719 1537.41601562 370.499855719 1537.41601562 490.427734375 c 2,64,-1
 1537.41601562 1327.18847656 l 5,65,-1
 1537.41601562 1367.18847656 l 5,66,-1
 1577.41601562 1367.18847656 l 5,67,-1
 1748.17382812 1367.18847656 l 5,68,-1
 1788.17382812 1367.18847656 l 5,69,-1
 1788.17382812 1327.18847656 l 5,70,-1
 1788.17382812 487.391601562 l 2,71,72
 1788 330 1788 330 1738.38769531 221.734375 c 0,73,74
 1689 113 1689 113 1589.66308594 56.5087890625 c 0,75,76
 1491 0 1491 0 1346.62988281 0 c 2,77,-1
 534.767578125 0 l 2,78,79
 303 0 303 0 181.548828125 124.083007812 c 0,80,81
 60.2286236572 247.766922015 60.2286236572 247.766922015 60.2275390625 483.977539062 c 2,82,-1
 60.2265625 696.66015625 l 1,83,-1
 60.2265625 736.66015625 l 1,84,-1
 100.2265625 736.66015625 l 1,85,-1
 278.984375 736.66015625 l 1,86,-1
 318.984375 736.66015625 l 1,87,-1
 318.984375 696.66015625 l 1,88,-1
 318.984375 484.541015625 l 2,89,90
 319 368 319 368 370.733398438 316.142578125 c 0,91,92
 422 264 422 264 537.549804688 264 c 2,59,-1
EndSplineSet
Substitution2: "'fina' Terminal Forms in Arabic lookup 9 subtable" uniFEDA
Substitution2: "'medi' Medial Forms in Arabic lookup 11 subtable" uniFEDC
Substitution2: "'init' Initial Forms in Arabic lookup 13 subtable" uniFEDB
EndChar

StartChar: uni0644
Encoding: 1604 1604 39
Width: 1397
VWidth: 2593
GlyphClass: 2
Flags: W
AnchorPoint: "Anchor-10" 604.754 1231.62 basechar 0
AnchorPoint: "Anchor-7" 691 -625.5 basechar 0
LayerCount: 2
Fore
SplineSet
319.877929688 144.44921875 m 2,0,1
 319.877929688 -22.885985039 319.877929688 -22.885985039 405.078125 -102.463867188 c 0,2,3
 489.489111075 -181.521511632 489.489111075 -181.521511632 674.358398438 -181.528320312 c 2,4,-1
 727.389648438 -181.530273438 l 2,5,6
 894 -182 894 -182 970.50390625 -107.030273438 c 0,7,8
 1047.36366897 -31.6432996621 1047.36366897 -31.6432996621 1047.36523438 128.416015625 c 2,9,-1
 1047.37695312 1326.63671875 l 5,10,-1
 1047.37695312 1366.63671875 l 5,11,-1
 1087.37695312 1366.63671875 l 5,12,-1
 1256.29882812 1366.63671875 l 5,13,-1
 1296.33105469 1366.63671875 l 5,14,-1
 1296.29882812 1326.60449219 l 5,15,-1
 1295.25488281 123.965820312 l 2,16,17
 1295 -156 1295 -156 1148.42773438 -301.237304688 c 0,18,19
 1002.17069714 -446.830078125 1002.17069714 -446.830078125 720.430664062 -446.830078125 c 2,20,-1
 674.198242188 -446.830078125 l 2,21,22
 374 -447 374 -447 217.696289062 -296.72265625 c 0,23,24
 61.223727129 -147.213770347 61.223727129 -147.213770347 61.12109375 143.262695312 c 2,25,-1
 61 485.986328125 l 1,26,-1
 60.986328125 525.9921875 l 1,27,-1
 100.9921875 526 l 1,28,-1
 279.870117188 526.033203125 l 1,29,-1
 319.877929688 526.041015625 l 1,30,-1
 319.877929688 486.033203125 l 1,31,-1
 319.877929688 144.44921875 l 2,0,1
EndSplineSet
Substitution2: "'fina' Terminal Forms in Arabic lookup 9 subtable" uniFEDE
Substitution2: "'medi' Medial Forms in Arabic lookup 11 subtable" uniFEE0
Substitution2: "'init' Initial Forms in Arabic lookup 13 subtable" uniFEDF
EndChar

StartChar: uni0645
Encoding: 1605 1605 40
Width: 1310
VWidth: 2593
GlyphClass: 2
Flags: W
AnchorPoint: "Anchor-10" 675.565 1190.03 basechar 0
AnchorPoint: "Anchor-7" 722.389 -283.648 basechar 0
LayerCount: 2
Fore
SplineSet
842.786132812 569.490234375 m 2,0,-1
 725.830078125 569.490234375 l 1,1,-1
 725.830078125 410.146484375 l 2,2,3
 725.90625 308.12890625 725.90625 308.12890625 760.234375 265.532226562 c 128,-1,4
 794.561523438 222.934570312 794.561523438 222.934570312 868.739257812 222.890625 c 0,5,6
 932.147460938 222.932617188 932.147460938 222.932617188 962.618164062 264.977539062 c 128,-1,7
 993.08984375 307.021484375 993.08984375 307.021484375 993.08984375 410 c 2,8,-1
 993.08984375 451.799804688 l 2,9,10
 993.0546875 513.662109375 993.0546875 513.662109375 959.555664062 541.46875 c 128,-1,11
 926.056640625 569.275390625 926.056640625 569.275390625 842.786132812 569.490234375 c 2,0,-1
858.188476562 824.5390625 m 2,12,13
 1047.34375 824.5390625 1047.34375 824.5390625 1148.55664062 729.108398438 c 128,-1,14
 1249.76953125 633.676757812 1249.76953125 633.676757812 1249.76953125 453 c 2,15,-1
 1249.76953125 409.029296875 l 2,16,17
 1249.89257812 201.556640625 1249.89257812 201.556640625 1152.58496094 90.3974609375 c 128,-1,18
 1055.27734375 -20.7626953125 1055.27734375 -20.7626953125 868.6875 -20.4755859375 c 0,19,20
 673.6328125 -20.2177734375 673.6328125 -20.2177734375 571.260742188 90.3994140625 c 128,-1,21
 468.888671875 201.016601562 468.888671875 201.016601562 468.889648438 408.30859375 c 2,22,-1
 468.889648438 545.520507812 l 1,23,24
 315.010742188 497.749023438 315.010742188 497.749023438 315.010742188 201.032226562 c 2,25,-1
 315.010742188 -456.416992188 l 1,26,-1
 315.010742188 -496.416992188 l 1,27,-1
 275.010742188 -496.416992188 l 1,28,-1
 100.94921875 -496.416992188 l 1,29,-1
 60.94921875 -496.416992188 l 1,30,-1
 60.94921875 -456.416992188 l 1,31,-1
 60.94921875 193.606445312 l 1,32,-1
 60.9541015625 199.573242188 l 2,33,34
 60.4580078125 503.795898438 60.4580078125 503.795898438 192.649414062 664.154296875 c 128,-1,35
 324.83984375 824.512695312 324.83984375 824.512695312 583.25390625 824.525390625 c 2,36,-1
 858.188476562 824.5390625 l 2,12,13
EndSplineSet
Substitution2: "'init' Initial Forms in Arabic lookup 13 subtable" uniFEE3
Substitution2: "'medi' Medial Forms in Arabic lookup 11 subtable" uniFEE4
Substitution2: "'fina' Terminal Forms in Arabic lookup 9 subtable" uniFEE2
EndChar

StartChar: uni0647
Encoding: 1607 1607 42
Width: 924
VWidth: 2370
GlyphClass: 2
Flags: W
AnchorPoint: "Anchor-10" 421.833 1181.93 basechar 0
AnchorPoint: "Anchor-7" 439.418 -156.202 basechar 0
LayerCount: 2
Fore
SplineSet
458.333007812 612.09765625 m 1,0,1
 311.942382812 480.698242188 311.942382812 480.698242188 311.731445312 381.329101562 c 0,2,3
 311.933217754 260.986786579 311.933217754 260.986786579 471.702148438 260.935546875 c 0,4,5
 617.037262254 260.986947132 617.037262254 260.986947132 617.15625 384.541992188 c 0,6,7
 617.034765038 477.055987485 617.034765038 477.055987485 458.333007812 612.09765625 c 1,0,1
60.951171875 364.151367188 m 0,8,9
 61 571 61 571 279.490234375 783.330078125 c 1,10,-1
 272.233398438 790.0390625 l 1,11,-1
 243.916015625 816.220703125 l 1,12,-1
 269.047851562 845.474609375 l 1,13,-1
 374.828125 968.604492188 l 1,14,-1
 398.663085938 996.348632812 l 1,15,16
 870 670 870 670 869.499023438 376.009765625 c 4,17,18
 869 192 869 192 766 96 c 128,-1,19
 663 0 663 0 470.029296875 0.9775390625 c 0,20,21
 286 1 286 1 184 79.5180807153 c 0,22,23
 61 173 61 173 60.951171875 364.151367188 c 0,8,9
EndSplineSet
Substitution2: "'fina' Terminal Forms in Arabic lookup 9 subtable" uniFEEA
Substitution2: "'medi' Medial Forms in Arabic lookup 11 subtable" uniFEEC
Substitution2: "'init' Initial Forms in Arabic lookup 13 subtable" uniFEEB
EndChar

StartChar: uni0648
Encoding: 1608 1608 43
Width: 877
VWidth: 2593
GlyphClass: 2
Flags: W
AnchorPoint: "Anchor-10" 438.019 1101.88 basechar 0
AnchorPoint: "Anchor-7" 367.433 -627.366 basechar 0
LayerCount: 2
Fore
SplineSet
824.66015625 40.025390625 m 2,0,1
 824.66015625 -201.94921875 824.66015625 -201.94921875 675.637695312 -326.248046875 c 128,-1,2
 526.615234375 -450.547851562 526.615234375 -450.547851562 244.734375 -450.412109375 c 2,3,-1
 139.00390625 -450.361328125 l 1,4,-1
 99.0458984375 -450.341796875 l 1,5,-1
 99.0234375 -410.383789062 l 1,6,-1
 98.9208984375 -227.217773438 l 1,7,-1
 98.8984375 -187.166992188 l 1,8,-1
 138.94921875 -187.1953125 l 1,9,-1
 238.9375 -187.265625 l 2,10,11
 352.477539062 -187.489257812 352.477539062 -187.489257812 425.575195312 -164.892578125 c 128,-1,12
 498.673828125 -142.294921875 498.673828125 -142.294921875 532.174804688 -101.674804688 c 128,-1,13
 565.674804688 -61.0546875 565.674804688 -61.0546875 570.192382812 0.1064453125 c 1,14,-1
 421.052734375 0.1064453125 l 2,15,16
 244.666992188 0.0478515625 244.666992188 0.0478515625 152.583984375 104.721679688 c 128,-1,17
 60.5009765625 209.395507812 60.5009765625 209.395507812 61.076171875 403.893554688 c 0,18,19
 62.109375 599.510742188 62.109375 599.510742188 161.796875 703.890625 c 128,-1,20
 261.484375 808.26953125 261.484375 808.26953125 449.521484375 808.58984375 c 0,21,22
 490.2890625 808.639648438 490.2890625 808.639648438 527.028320312 803.235351562 c 128,-1,23
 563.768554688 797.83203125 563.768554688 797.83203125 595.872070312 787.131835938 c 128,-1,24
 627.9765625 776.431640625 627.9765625 776.431640625 655.870117188 760.586914062 c 128,-1,25
 683.764648438 744.7421875 683.764648438 744.7421875 706.986328125 723.8359375 c 128,-1,26
 730.208007812 702.930664062 730.208007812 702.930664062 749.029296875 677.193359375 c 128,-1,27
 767.849609375 651.456054688 767.849609375 651.456054688 781.961914062 620.893554688 c 128,-1,28
 796.073242188 590.331054688 796.073242188 590.331054688 805.592773438 555.250976562 c 128,-1,29
 815.112304688 520.170898438 815.112304688 520.170898438 819.88671875 480.5 c 128,-1,30
 824.66015625 440.829101562 824.66015625 440.829101562 824.66015625 396.950195312 c 2,31,-1
 824.66015625 40.025390625 l 2,0,1
445.731445312 553.374023438 m 0,32,33
 421.731445312 553.322265625 421.731445312 553.322265625 402.942382812 549.899414062 c 128,-1,34
 384.153320312 546.4765625 384.153320312 546.4765625 369.0390625 539.02734375 c 128,-1,35
 353.923828125 531.578125 353.923828125 531.578125 343.321289062 520.026367188 c 128,-1,36
 332.717773438 508.474609375 332.717773438 508.474609375 325.619140625 491.911132812 c 128,-1,37
 318.520507812 475.348632812 318.520507812 475.348632812 315.200195312 453.967773438 c 128,-1,38
 311.879882812 432.5859375 311.879882812 432.5859375 311.859375 405.2265625 c 0,39,40
 311.920898438 326.936523438 311.920898438 326.936523438 337.408203125 295.978515625 c 128,-1,41
 362.896484375 265.020507812 362.896484375 265.020507812 420.014648438 265 c 2,42,-1
 571.6015625 264.9453125 l 1,43,-1
 571.258789062 390.919921875 l 2,44,45
 571.181640625 451.799804688 571.181640625 451.799804688 557.188476562 487.790039062 c 128,-1,46
 543.1953125 523.780273438 543.1953125 523.780273438 516.381835938 538.66015625 c 128,-1,47
 489.569335938 553.540039062 489.569335938 553.540039062 445.731445312 553.374023438 c 0,32,33
EndSplineSet
Substitution2: "'fina' Terminal Forms in Arabic lookup 9 subtable" uniFEEE
EndChar

StartChar: uni0649
Encoding: 1609 1609 44
Width: 1446
VWidth: 2593
GlyphClass: 2
Flags: W
LayerCount: 2
Fore
SplineSet
1120.77441406 313.370117188 m 2,0,1
 1246.9296875 313.370117188 1246.9296875 313.370117188 1316.02929688 244.997070312 c 128,-1,2
 1385.12792969 176.625 1385.12792969 176.625 1385.12792969 51.36328125 c 2,3,-1
 1385.12792969 22.0107421875 l 2,4,5
 1385.05859375 -212.739257812 1385.05859375 -212.739257812 1217.79394531 -331.009765625 c 128,-1,6
 1050.53027344 -449.280273438 1050.53027344 -449.280273438 735.421875 -449.280273438 c 2,7,-1
 690.922851562 -449.280273438 l 2,8,9
 382.447265625 -449.133789062 382.447265625 -449.133789062 221.452148438 -297.787109375 c 128,-1,10
 60.45703125 -146.44140625 60.45703125 -146.44140625 60.267578125 146.006835938 c 2,11,-1
 60 558.973632812 l 1,12,-1
 59.9736328125 599 l 1,13,-1
 100 599 l 1,14,-1
 279.022460938 599 l 1,15,-1
 319.022460938 599 l 1,16,-1
 319.022460938 559 l 1,17,-1
 319.022460938 147.204101562 l 2,18,19
 319.01171875 -22.783203125 319.01171875 -22.783203125 408.907226562 -103.381835938 c 128,-1,20
 498.802734375 -183.98046875 498.802734375 -183.98046875 693.11328125 -183.98046875 c 2,21,-1
 744.022460938 -183.98046875 l 2,22,23
 827.640625 -183.984375 827.640625 -183.984375 892.599609375 -175.333007812 c 128,-1,24
 957.559570312 -166.681640625 957.559570312 -166.681640625 1001.8359375 -150.845703125 c 128,-1,25
 1046.11230469 -135.009765625 1046.11230469 -135.009765625 1074.70214844 -111.4453125 c 128,-1,26
 1103.29199219 -87.880859375 1103.29199219 -87.880859375 1116.00585938 -59.3828125 c 128,-1,27
 1128.71875 -30.8837890625 1128.71875 -30.8837890625 1128.71875 4.416015625 c 2,28,-1
 1128.71875 16.22265625 l 2,29,30
 1128.80859375 41.4169921875 1128.80859375 41.4169921875 1122.1484375 48.0791015625 c 128,-1,31
 1115.48925781 54.740234375 1115.48925781 54.740234375 1090.29003906 54.740234375 c 2,32,-1
 898.946289062 54.7412109375 l 2,33,34
 798.70703125 54.8916015625 798.70703125 54.8916015625 742.236328125 109.27734375 c 128,-1,35
 685.765625 163.6640625 685.765625 163.6640625 685.765625 261.583007812 c 2,36,-1
 685.765625 327.397460938 l 2,37,38
 685.888671875 576.266601562 685.888671875 576.266601562 803.755859375 708.02734375 c 128,-1,39
 921.623046875 839.787109375 921.623046875 839.787109375 1148.51269531 839.901367188 c 2,40,-1
 1344.97949219 840 l 1,41,-1
 1384.8125 840.01953125 l 1,42,-1
 1385 800.188476562 l 1,43,-1
 1385.89160156 610.79296875 l 1,44,-1
 1386.08007812 570.604492188 l 1,45,-1
 1345.89160156 570.604492188 l 1,46,-1
 1107.2421875 570.604492188 l 2,47,48
 1027.27734375 570.764648438 1027.27734375 570.764648438 987.147460938 516.086914062 c 128,-1,49
 947.017578125 461.409179688 947.017578125 461.409179688 944.514648438 333.22265625 c 2,50,-1
 944.126953125 313.370117188 l 1,51,-1
 1120.77441406 313.370117188 l 2,0,1
EndSplineSet
Substitution2: "'fina' Terminal Forms in Arabic lookup 9 subtable" uniFEF0
Substitution2: "'medi' Medial Forms in Arabic lookup 11 subtable" uniFBE9
Substitution2: "'init' Initial Forms in Arabic lookup 13 subtable" uniFBE8
EndChar

StartChar: uni064B
Encoding: 1611 1611 46
Width: 0
VWidth: 2186
GlyphClass: 4
Flags: W
AnchorPoint: "Anchor-10" 544.872 1090.61 mark 0
AnchorPoint: "Anchor-9" 544.872 1090.61 mark 0
AnchorPoint: "Anchor-1" 544.872 1518.61 basemark 0
AnchorPoint: "Anchor-1" 544.872 1090.61 mark 0
LayerCount: 2
Fore
SplineSet
325.400390625 1051.80664062 m 1,0,-1
 325.400390625 1153.46289062 l 1,1,-1
 325.400390625 1160.17753302 l 1,2,-1
 331.61550321 1162.71894957 l 1,3,-1
 726.81472196 1324.31953551 l 1,4,-1
 740.599609375 1329.95630243 l 1,5,-1
 740.599609375 1315.06347656 l 1,6,-1
 740.599609375 1213.40722656 l 1,7,-1
 740.599609375 1206.69258416 l 1,8,-1
 734.38449679 1204.15116761 l 1,9,-1
 339.18527804 1042.55058167 l 1,10,-1
 325.400390625 1036.91381475 l 1,11,-1
 325.400390625 1051.80664062 l 1,0,-1
325.400390625 1259.00683594 m 1,12,-1
 325.400390625 1360.66308594 l 1,13,-1
 325.400390625 1367.37772834 l 1,14,-1
 331.61550321 1369.91914489 l 1,15,-1
 726.81472196 1531.51973083 l 1,16,-1
 740.599609375 1537.15649775 l 1,17,-1
 740.599609375 1522.26367188 l 1,18,-1
 740.599609375 1420.60742188 l 1,19,-1
 740.599609375 1413.89277948 l 1,20,-1
 734.38449679 1411.35136293 l 1,21,-1
 339.18527804 1249.75077699 l 1,22,-1
 325.400390625 1244.11401007 l 1,23,-1
 325.400390625 1259.00683594 l 1,12,-1
EndSplineSet
EndChar

StartChar: uni064C
Encoding: 1612 1612 47
Width: 0
VWidth: 2186
GlyphClass: 4
Flags: W
AnchorPoint: "Anchor-10" 552.791 1211.53 mark 0
AnchorPoint: "Anchor-9" 552.791 1211.53 mark 0
AnchorPoint: "Anchor-1" 546.391 1735.93 basemark 0
AnchorPoint: "Anchor-1" 552.791 1211.53 mark 0
LayerCount: 2
Fore
SplineSet
556.093704022 1333.33386202 m 0,0,1
 571.994683127 1348.80535251 571.994683127 1348.80535251 584.407297286 1365.51111215 c 0,2,3
 596.819911444 1382.2168718 596.819911444 1382.2168718 605.81354059 1400.20553439 c 0,4,5
 606.044157049 1400.66676731 606.044157049 1400.66676731 605.538633055 1400.77400877 c 0,6,7
 591.618143595 1403.72480202 591.618143595 1403.72480202 579.563149555 1408.01917092 c 0,8,9
 567.508155516 1412.31353981 567.508155516 1412.31353981 557.711961434 1417.85275447 c 0,10,11
 535.240223966 1429.71290817 535.240223966 1429.71290817 518.102993238 1443.71218971 c 0,12,13
 500.96576251 1457.71147126 500.96576251 1457.71147126 489.222382892 1473.82424479 c 0,14,15
 477.479003274 1489.93701833 477.479003274 1489.93701833 471.4748532 1508.27365458 c 0,16,17
 465.470703125 1526.61029083 465.470703125 1526.61029083 465.470703125 1546.75683594 c 0,18,19
 465.470703125 1621.03046045 465.470703125 1621.03046045 524.374200361 1665.42103113 c 0,20,21
 548.237102029 1683.31738281 548.237102029 1683.31738281 602.03125 1683.31738281 c 0,22,23
 617.304297103 1683.31738281 617.304297103 1683.31738281 630.951633756 1681.29085904 c 0,24,25
 644.598970409 1679.26433526 644.598970409 1679.26433526 656.726025323 1675.17102401 c 0,26,27
 668.853080237 1671.07771275 668.853080237 1671.07771275 679.338302979 1664.7812173 c 0,28,29
 689.823525721 1658.48472185 689.823525721 1658.48472185 698.466114233 1650.05703424 c 0,30,31
 745.438476562 1603.9454302 745.438476562 1603.9454302 745.438476562 1536.48535156 c 0,32,33
 745.438476562 1525.38032453 745.438476562 1525.38032453 744.296440875 1514.35428358 c 0,34,35
 743.154405188 1503.32824263 743.154405188 1503.32824263 740.876093556 1492.41146056 c 0,36,37
 738.597781925 1481.49467849 738.597781925 1481.49467849 735.185777677 1470.68846649 c 0,38,39
 735.050215536 1470.25940446 735.050215536 1470.25940446 734.881777343 1470.06389844 c 1,40,41
 735.115973379 1470.17474008 735.115973379 1470.17474008 735.550216796 1470.1755171 c 0,42,43
 751.353548702 1469.34032307 751.353548702 1469.34032307 763.545198069 1469.31736508 c 0,44,-1
 764.063079954 1469.30296939 l 2,45,46
 767.571628397 1469.11438931 767.571628397 1469.11438931 771.189127348 1468.9667221 c 0,47,48
 774.8066263 1468.81905488 774.8066263 1468.81905488 778.539597894 1468.71217412 c 0,49,50
 782.272569488 1468.60529336 782.272569488 1468.60529336 786.113519145 1468.53955113 c 2,51,-1
 795.942382812 1468.37131892 l 1,52,-1
 795.942382812 1458.54101562 l 1,53,-1
 795.942382812 1385.1328125 l 1,54,-1
 795.942382812 1375.06940944 l 1,55,-1
 785.879180745 1375.13301223 l 2,56,57
 753.736082863 1375.33616731 753.736082863 1375.33616731 739.008998915 1376.81250108 c 2,58,-1
 694.224129949 1381.11902913 l 1,59,60
 671.883288648 1328.69996392 671.883288648 1328.69996392 607.738663594 1261.99186707 c 0,61,62
 535.092363995 1188.49316956 535.092363995 1188.49316956 454.809312401 1188.49316956 c 0,63,64
 339.71376933 1188.37250014 339.71376933 1188.37250014 309.316408775 1321.18148447 c 0,65,66
 303.378211701 1345.28675933 303.378211701 1345.28675933 300.276400902 1375.33283789 c 0,67,68
 297.174590102 1405.37891644 297.174590102 1405.37891644 296.877296396 1441.25796318 c 2,69,-1
 296.793749863 1451.34082031 l 1,70,-1
 306.876953125 1451.34082031 l 1,71,-1
 363.12109375 1451.34082031 l 1,72,-1
 373.033224609 1451.34082031 l 1,73,-1
 373.120704294 1441.42907549 l 2,74,75
 373.683802037 1377.62819239 373.683802037 1377.62819239 383.871650973 1345.03643533 c 0,76,77
 403.806975726 1281.26571538 403.806975726 1281.26571538 454.741224035 1281.85253906 c 0,78,79
 502.895966647 1281.85253906 502.895966647 1281.85253906 556.093704022 1333.33386202 c 0,0,1
639.066605703 1485.49646316 m 1,80,-1
 644.343729238 1497.80838795 l 2,81,82
 648.215872105 1506.84324044 648.215872105 1506.84324044 650.147486833 1516.47804274 c 0,83,84
 652.079101562 1526.11284503 652.079101562 1526.11284503 652.079101562 1536.48535156 c 0,85,86
 652.079101562 1565.78004408 652.079101562 1565.78004408 637.380132737 1577.87826356 c 0,87,88
 622.717223387 1589.95703125 622.717223387 1589.95703125 605.456054688 1589.95703125 c 0,89,90
 598.688322391 1589.95703125 598.688322391 1589.95703125 593.085748042 1588.99608688 c 0,91,92
 587.483173692 1588.03514251 587.483173692 1588.03514251 583.374192886 1586.33217468 c 0,93,94
 579.265212079 1584.62920686 579.265212079 1584.62920686 576.053764629 1582.13864128 c 0,95,96
 572.143681978 1579.19557043 572.143681978 1579.19557043 569.281450672 1575.69813624 c 0,97,98
 566.419219366 1572.20070204 566.419219366 1572.20070204 564.449264242 1567.8651162 c 0,99,100
 562.479309118 1563.52953036 562.479309118 1563.52953036 561.511138934 1558.28314351 c 0,101,102
 560.54296875 1553.03675665 560.54296875 1553.03675665 560.54296875 1546.75683594 c 0,103,104
 560.54296875 1536.05128425 560.54296875 1536.05128425 564.436861677 1527.53001687 c 0,105,106
 568.330754604 1519.00874949 568.330754604 1519.00874949 576.973713204 1511.89678407 c 0,107,108
 585.616671804 1504.78481866 585.616671804 1504.78481866 599.313778972 1499.30556018 c 0,109,110
 607.844487031 1495.89403761 607.844487031 1495.89403761 617.822006772 1492.42780663 c 0,111,112
 627.799526514 1488.96157566 627.799526514 1488.96157566 639.066605703 1485.49646316 c 1,80,-1
EndSplineSet
EndChar

StartChar: uni064D
Encoding: 1613 1613 48
Width: 0
VWidth: 2186
GlyphClass: 4
Flags: W
AnchorPoint: "Anchor-7" 533.072 19.8066 mark 0
AnchorPoint: "Anchor-6" 533.072 19.8066 mark 0
AnchorPoint: "Anchor-0" 545.872 -392.193 basemark 0
AnchorPoint: "Anchor-0" 533.072 19.8066 mark 0
LayerCount: 2
Fore
SplineSet
330.400390625 -438.193359375 m 1,0,-1
 330.400390625 -336.537109375 l 1,1,-1
 330.400390625 -329.822466977 l 1,2,-1
 336.61550321 -327.281050427 l 1,3,-1
 731.81472196 -165.68046449 l 1,4,-1
 745.599609375 -160.043697569 l 1,5,-1
 745.599609375 -174.936523438 l 1,6,-1
 745.599609375 -276.592773438 l 1,7,-1
 745.599609375 -283.307415836 l 1,8,-1
 739.38449679 -285.848832386 l 1,9,-1
 344.18527804 -447.449418323 l 1,10,-1
 330.400390625 -453.086185244 l 1,11,-1
 330.400390625 -438.193359375 l 1,0,-1
330.400390625 -230.993164062 m 1,12,-1
 330.400390625 -129.336914062 l 1,13,-1
 330.400390625 -122.622271664 l 1,14,-1
 336.61550321 -120.080855114 l 1,15,-1
 731.81472196 41.5197308233 l 1,16,-1
 745.599609375 47.1564977441 l 1,17,-1
 745.599609375 32.263671875 l 1,18,-1
 745.599609375 -69.392578125 l 1,19,-1
 745.599609375 -76.1072205226 l 1,20,-1
 739.38449679 -78.6486370733 l 1,21,-1
 344.18527804 -240.24922301 l 1,22,-1
 330.400390625 -245.885989931 l 1,23,-1
 330.400390625 -230.993164062 l 1,12,-1
EndSplineSet
EndChar

StartChar: uni064E
Encoding: 1614 1614 49
Width: 0
VWidth: 2186
GlyphClass: 4
Flags: W
AnchorPoint: "Anchor-10" 515.072 1306.71 mark 0
AnchorPoint: "Anchor-9" 515.072 1306.71 mark 0
AnchorPoint: "Anchor-1" 515.072 1563.51 basemark 0
AnchorPoint: "Anchor-1" 515.072 1306.71 mark 0
LayerCount: 2
Fore
SplineSet
296.400390625 1283.90722656 m 1,0,-1
 296.400390625 1385.56347656 l 1,1,-1
 296.400390625 1392.27813432 l 1,2,-1
 302.615522806 1394.81954352 l 1,3,-1
 697.814741556 1556.4191529 l 1,4,-1
 711.599609375 1562.05587775 l 1,5,-1
 711.599609375 1547.16308594 l 1,6,-1
 711.599609375 1445.50683594 l 1,7,-1
 711.599609375 1438.79217818 l 1,8,-1
 705.384477194 1436.25076898 l 1,9,-1
 310.185258444 1274.6511596 l 1,10,-1
 296.400390625 1269.01443475 l 1,11,-1
 296.400390625 1283.90722656 l 1,0,-1
EndSplineSet
EndChar

StartChar: uni064F
Encoding: 1615 1615 50
Width: 0
VWidth: 2186
GlyphClass: 4
Flags: W
AnchorPoint: "Anchor-10" 535.04 1254.31 mark 0
AnchorPoint: "Anchor-9" 535.04 1254.31 mark 0
AnchorPoint: "Anchor-1" 547.84 1749.91 basemark 0
AnchorPoint: "Anchor-1" 535.04 1254.31 mark 0
LayerCount: 2
Fore
SplineSet
559.827806178 1431.51234922 m 0,0,1
 514.082686823 1451.07528867 514.082686823 1451.07528867 490.460504528 1483.72284073 c 0,2,3
 466.838322232 1516.3703928 466.838322232 1516.3703928 466.919921875 1560.73339844 c 0,4,5
 466.919921875 1635.00702208 466.919921875 1635.00702208 525.823655021 1679.39777055 c 0,6,7
 538.304996942 1688.75777066 538.304996942 1688.75777066 557.584541872 1693.0253697 c 0,8,9
 576.864086801 1697.29296875 576.864086801 1697.29296875 603.48046875 1697.29296875 c 0,10,11
 623.883859481 1697.29296875 623.883859481 1697.29296875 641.342531919 1693.70766878 c 0,12,13
 658.801204358 1690.12236881 658.801204358 1690.12236881 673.6065434 1682.68602571 c 0,14,15
 688.411882442 1675.2496826 688.411882442 1675.2496826 699.915277131 1664.03267499 c 0,16,17
 723.276810176 1641.09923695 723.276810176 1641.09923695 735.082252744 1612.52409501 c 0,18,19
 746.887695312 1583.94895306 746.887695312 1583.94895306 746.887695312 1550.4609375 c 0,20,21
 746.887695312 1541.1738927 746.887695312 1541.1738927 745.528677839 1530.71190323 c 0,22,23
 744.169660365 1520.24991376 744.169660365 1520.24991376 741.527908014 1508.8294389 c 0,24,25
 738.886155662 1497.40896405 738.886155662 1497.40896405 734.922164906 1484.66468334 c 0,26,27
 734.784238818 1484.22157361 734.784238818 1484.22157361 734.614007156 1484.03247752 c 1,28,29
 734.838994806 1484.14696757 734.838994806 1484.14696757 735.279376273 1484.1478535 c 0,30,31
 749.839503034 1483.29313659 749.839503034 1483.29313659 765.253126035 1482.86528845 c 0,32,33
 775.533741119 1482.57985021 775.533741119 1482.57985021 787.478385545 1482.47618592 c 2,34,-1
 797.391601562 1482.39015184 l 1,35,-1
 797.391601562 1472.4765625 l 1,36,-1
 797.391601562 1399.1328125 l 1,37,-1
 797.391601562 1389.02652745 l 1,38,-1
 787.285881307 1389.13337135 l 2,39,40
 775.045584112 1389.26278332 775.045584112 1389.26278332 763.366285149 1389.67480722 c 0,41,42
 751.686986186 1390.08683112 751.686986186 1390.08683112 740.486950028 1390.78543889 c 0,43,44
 714.78195074 1392.50435913 714.78195074 1392.50435913 690.840414261 1395.06903149 c 1,45,-1
 690.465605963 1394.89987966 l 1,46,47
 653.703043417 1342.74404136 653.703043417 1342.74404136 594.690303656 1306.82709432 c 0,48,49
 431.199318995 1206.29249915 431.199318995 1206.29249915 308.654147952 1201.80357732 c 2,50,-1
 298.288085938 1201.42386066 l 1,51,-1
 298.288085938 1211.796875 l 1,52,-1
 298.288085938 1285.1171875 l 1,53,-1
 298.288085938 1294.83187427 l 1,54,-1
 307.998704233 1295.11299953 l 2,55,56
 370.442277439 1296.92075938 370.442277439 1296.92075938 430.165451232 1320.15896219 c 0,57,58
 489.888625026 1343.39716499 489.888625026 1343.39716499 547.22913781 1388.36012162 c 0,59,60
 566.939262005 1403.78687988 566.939262005 1403.78687988 583.223682643 1420.92259401 c 2,61,-1
 584.422828997 1422.18555426 l 1,62,63
 578.297323243 1424.18366116 578.297323243 1424.18366116 572.417805448 1426.41741742 c 0,64,65
 566.538287654 1428.65117369 566.538287654 1428.65117369 559.827806178 1431.51234922 c 0,0,1
640.516194098 1499.47291151 m 1,66,-1
 645.792878124 1511.78381087 l 2,67,68
 653.528320312 1529.83376541 653.528320312 1529.83376541 653.528320312 1550.4609375 c 0,69,70
 653.528320312 1579.75582377 653.528320312 1579.75582377 638.829609083 1591.85461387 c 0,71,72
 624.166630492 1603.93261719 624.166630492 1603.93261719 606.904296875 1603.93261719 c 0,73,74
 596.868610865 1603.93261719 596.868610865 1603.93261719 589.624132119 1601.91441787 c 0,75,76
 582.379653373 1599.89621855 582.379653373 1599.89621855 577.502983379 1596.11422722 c 0,77,78
 573.592869577 1593.17113292 573.592869577 1593.17113292 570.730628482 1589.67373856 c 0,79,80
 567.868387386 1586.1763442 567.868387386 1586.1763442 565.898444664 1581.84087219 c 0,81,82
 563.928501941 1577.50540019 563.928501941 1577.50540019 562.960344721 1572.25922295 c 0,83,84
 561.9921875 1567.0130457 561.9921875 1567.0130457 561.9921875 1560.73339844 c 0,85,86
 561.9921875 1550.02784675 561.9921875 1550.02784675 565.886080427 1541.50657937 c 0,87,88
 569.779973354 1532.98531199 569.779973354 1532.98531199 578.422931954 1525.87334657 c 0,89,90
 587.065890554 1518.76138116 587.065890554 1518.76138116 600.762997722 1513.28212268 c 0,91,92
 605.025077161 1511.57767094 605.025077161 1511.57767094 609.656410043 1509.8566643 c 0,93,94
 614.287742924 1508.13565767 614.287742924 1508.13565767 619.263602285 1506.40694564 c 0,95,96
 624.239461645 1504.6782336 624.239461645 1504.6782336 629.561145444 1502.94182381 c 0,97,98
 634.882829242 1501.20541402 634.882829242 1501.20541402 640.516194098 1499.47291151 c 1,66,-1
EndSplineSet
EndChar

StartChar: uni0650
Encoding: 1616 1616 51
Width: 0
VWidth: 2186
GlyphClass: 4
Flags: W
AnchorPoint: "Anchor-7" 517.472 -45.6934 mark 0
AnchorPoint: "Anchor-6" 517.472 -45.6934 mark 0
AnchorPoint: "Anchor-0" 555.072 -284.893 basemark 0
AnchorPoint: "Anchor-0" 517.472 -45.6934 mark 0
LayerCount: 2
Fore
SplineSet
340.400390625 -310.092773438 m 1,0,-1
 340.400390625 -208.436523438 l 1,1,-1
 340.400390625 -201.721865682 l 1,2,-1
 346.615522806 -199.180456477 l 1,3,-1
 741.814741556 -37.5808471013 l 1,4,-1
 755.599609375 -31.9441222567 l 1,5,-1
 755.599609375 -46.8369140625 l 1,6,-1
 755.599609375 -148.493164062 l 1,7,-1
 755.599609375 -155.207821817 l 1,8,-1
 749.384477194 -157.749231023 l 1,9,-1
 354.185258444 -319.348840399 l 1,10,-1
 340.400390625 -324.985565244 l 1,11,-1
 340.400390625 -310.092773438 l 1,0,-1
EndSplineSet
EndChar

StartChar: uni0651
Encoding: 1617 1617 52
Width: 0
VWidth: 2186
GlyphClass: 4
Flags: W
AnchorPoint: "Anchor-10" 548.269 1355.65 mark 0
AnchorPoint: "Anchor-9" 548.269 1355.65 mark 0
AnchorPoint: "Anchor-1" 538.668 1757.25 basemark 0
AnchorPoint: "Anchor-1" 548.269 1355.65 mark 0
LayerCount: 2
Fore
SplineSet
437.071552005 1323.96099562 m 0,0,1
 401.148564245 1323.87601634 401.148564245 1323.87601634 373.674875249 1334.44542228 c 0,2,3
 346.201186253 1345.01482822 346.201186253 1345.01482822 327.84723249 1365.68979256 c 0,4,5
 309.493278728 1386.3647569 309.493278728 1386.3647569 300.051351048 1416.89308014 c 0,6,7
 290.609423368 1447.42140337 290.609423368 1447.42140337 290.396627193 1487.23073488 c 2,8,-1
 289.753072506 1607.64382081 l 1,9,-1
 289.69934129 1617.69726562 l 1,10,-1
 299.752929688 1617.69726562 l 1,11,-1
 370.541992188 1617.69726562 l 1,12,-1
 380.446325144 1617.69726562 l 1,13,-1
 380.54153018 1607.79339025 l 1,14,-1
 381.707505556 1486.50061468 l 2,15,16
 381.997179686 1457.59941292 381.997179686 1457.59941292 395.162941685 1444.41295657 c 0,17,18
 408.328703683 1431.22650022 408.328703683 1431.22650022 437.149526172 1430.92084855 c 0,19,20
 468.919416419 1430.89095471 468.919416419 1430.89095471 484.665770602 1451.41793592 c 0,21,22
 500.412124786 1471.94491714 500.412124786 1471.94491714 501.010629711 1517.46446494 c 2,23,-1
 502.769418774 1651.24473838 l 1,24,-1
 502.899159018 1661.11328125 l 1,25,-1
 512.768554688 1661.11328125 l 1,26,-1
 582.78515625 1661.11328125 l 1,27,-1
 592.637497314 1661.11328125 l 1,28,-1
 592.784049876 1651.26203022 l 1,29,-1
 594.666525248 1524.72219191 l 2,30,31
 595.212859274 1496.57618795 595.212859274 1496.57618795 611.239972694 1483.3328658 c 0,32,33
 627.267086113 1470.08954364 627.267086113 1470.08954364 662.684053217 1470.12108748 c 0,34,35
 712.949483205 1470.06478184 712.949483205 1470.06478184 714.029077202 1557.86912719 c 2,36,-1
 715.662866265 1690.65135375 l 1,37,-1
 715.78439518 1700.52832031 l 1,38,-1
 725.662109375 1700.52832031 l 1,39,-1
 800.211914062 1700.52832031 l 1,40,-1
 810.339928951 1700.52832031 l 1,41,-1
 810.211105094 1690.40112475 l 1,42,-1
 808.539328781 1558.97847103 l 2,43,44
 807.412535961 1464.44386755 807.412535961 1464.44386755 771.01902894 1414.8701573 c 0,45,46
 734.625521918 1365.29644705 734.625521918 1365.29644705 663.614881167 1365.35547762 c 0,47,48
 596.32251341 1365.26585308 596.32251341 1365.26585308 559.863378872 1400.67124896 c 1,49,50
 530.740413233 1324.42124779 530.740413233 1324.42124779 437.071552005 1323.96099562 c 0,0,1
EndSplineSet
EndChar

StartChar: uni0652
Encoding: 1618 1618 53
Width: 0
VWidth: 2186
GlyphClass: 4
Flags: W
AnchorPoint: "Anchor-10" 566.159 1179.48 mark 0
AnchorPoint: "Anchor-9" 566.159 1179.48 mark 0
AnchorPoint: "Anchor-1" 554.959 1638.28 basemark 0
AnchorPoint: "Anchor-1" 566.159 1179.48 mark 0
LayerCount: 2
Fore
SplineSet
653.276367188 1384.35546875 m 0,0,1
 653.276367188 1420.55297396 653.276367188 1420.55297396 628.019384971 1445.80820599 c 0,2,3
 602.767716144 1471.0625 602.767716144 1471.0625 565.948242188 1471.0625 c 0,4,5
 560.4613432 1471.0625 560.4613432 1471.0625 555.277652022 1470.54546803 c 0,6,7
 550.137894903 1470.03281814 550.137894903 1470.03281814 545.287756487 1469.01104157 c 0,8,9
 542.875721919 1468.5024616 542.875721919 1468.5024616 540.534844243 1467.86797587 c 0,10,11
 538.193966567 1467.23349013 538.193966567 1467.23349013 535.926345524 1466.47457208 c 2,12,-1
 527.129271542 1462.94021093 l 2,13,14
 525.70840118 1462.26833769 525.70840118 1462.26833769 524.315087228 1461.53999793 c 0,15,16
 522.921773277 1460.81165817 522.921773277 1460.81165817 521.553410993 1460.02534952 c 0,17,18
 520.185048709 1459.23904088 520.185048709 1459.23904088 518.842298004 1458.39500961 c 0,19,20
 516.823991826 1457.12633515 516.823991826 1457.12633515 514.861920008 1455.72776556 c 0,21,22
 512.89984819 1454.32919597 512.89984819 1454.32919597 510.998222758 1452.80309244 c 0,23,24
 507.170655622 1449.72978635 507.170655622 1449.72978635 503.562772281 1446.12278513 c 0,25,26
 499.33813984 1441.89756291 499.33813984 1441.89756291 495.852969318 1437.39681773 c 0,27,28
 492.367798795 1432.89607256 492.367798795 1432.89607256 489.626699654 1428.14634316 c 0,29,30
 486.885600513 1423.39661375 486.885600513 1423.39661375 484.829169764 1418.32267619 c 0,31,32
 478.62109375 1403.00645207 478.62109375 1403.00645207 478.62109375 1384.35546875 c 0,33,34
 478.62109375 1346.91351736 478.62109375 1346.91351736 503.562030993 1321.97170618 c 0,35,36
 507.749011801 1317.78501876 507.749011801 1317.78501876 512.225230503 1314.320906 c 0,37,38
 516.701449205 1310.85679323 516.701449205 1310.85679323 521.526274208 1308.07909849 c 0,39,40
 526.351099212 1305.30140375 526.351099212 1305.30140375 531.510899932 1303.23310226 c 0,41,42
 536.670700651 1301.16480076 536.670700651 1301.16480076 542.213646697 1299.78327001 c 0,43,44
 547.756592743 1298.40173926 547.756592743 1298.40173926 553.680998912 1297.71551807 c 0,45,46
 559.605405081 1297.02929688 559.605405081 1297.02929688 565.948242188 1297.02929688 c 0,47,48
 572.224745743 1297.02929688 572.224745743 1297.02929688 578.107827566 1297.73654764 c 0,49,50
 583.990909388 1298.4437984 583.990909388 1298.4437984 589.426052983 1299.83371862 c 0,51,52
 594.861196578 1301.22363884 594.861196578 1301.22363884 599.965461632 1303.30626708 c 0,53,54
 603.788803454 1304.86573382 603.788803454 1304.86573382 607.433940191 1306.81543221 c 0,55,56
 611.079076927 1308.7651306 611.079076927 1308.7651306 614.58342779 1311.12919763 c 0,57,58
 618.087778652 1313.49326466 618.087778652 1313.49326466 621.446798095 1316.28217688 c 0,59,60
 624.805817538 1319.07108909 624.805817538 1319.07108909 628.020240446 1322.28639947 c 0,61,62
 640.747014868 1335.01141763 640.747014868 1335.01141763 647.001425098 1350.34233941 c 0,63,64
 650.129002622 1358.0097803 650.129002622 1358.0097803 651.702684905 1366.48667415 c 0,65,66
 653.276367188 1374.96356799 653.276367188 1374.96356799 653.276367188 1384.35546875 c 0,0,1
754.818359375 1384.45996094 m 0,67,68
 754.818359375 1305.363867 754.818359375 1305.363867 700.100825328 1250.29567208 c 0,69,70
 686.515342038 1236.62546886 686.515342038 1236.62546886 671.267195885 1226.28716421 c 0,71,72
 656.019049733 1215.94885957 656.019049733 1215.94885957 639.194285517 1209.03208675 c 0,73,74
 605.590233154 1195.21972656 605.590233154 1195.21972656 566.2421875 1195.21972656 c 0,75,76
 561.34882051 1195.21972656 561.34882051 1195.21972656 556.539833868 1195.43384148 c 0,77,78
 551.730847226 1195.6479564 551.730847226 1195.6479564 546.999331129 1196.07725393 c 0,79,80
 537.525456577 1196.93907622 537.525456577 1196.93907622 528.409199903 1198.66015461 c 0,81,82
 523.844396111 1199.52256726 523.844396111 1199.52256726 519.365125661 1200.60215508 c 0,83,84
 514.88585521 1201.68174291 514.88585521 1201.68174291 510.498024319 1202.97747821 c 0,85,86
 508.302552392 1203.62554698 508.302552392 1203.62554698 506.129462157 1204.32793121 c 0,87,88
 503.956371921 1205.03031544 503.956371921 1205.03031544 501.806591663 1205.78670383 c 0,89,90
 499.656811405 1206.54309223 499.656811405 1206.54309223 497.530366711 1207.353541 c 0,91,92
 495.403922017 1208.16398976 495.403922017 1208.16398976 493.30260468 1209.02785317 c 0,93,94
 484.8903621 1212.48471218 484.8903621 1212.48471218 476.858119373 1216.80530483 c 0,95,96
 468.835406592 1221.12236228 468.835406592 1221.12236228 461.208026513 1226.29206546 c 0,97,98
 457.399563581 1228.87389048 457.399563581 1228.87389048 453.691663556 1231.66738712 c 0,99,100
 449.98376353 1234.46088377 449.98376353 1234.46088377 446.377334612 1237.46469603 c 0,101,102
 442.774391564 1240.46569086 442.774391564 1240.46569086 439.27672111 1243.6733909 c 0,103,104
 435.779050657 1246.88109095 435.779050657 1246.88109095 432.384979257 1250.29619893 c 0,105,106
 405.127705627 1277.72752528 405.127705627 1277.72752528 391.389757242 1311.4440923 c 0,107,108
 377.666992188 1345.11982999 377.666992188 1345.11982999 377.666992188 1384.45996094 c 0,109,110
 377.666992188 1387.71930128 377.666992188 1387.71930128 377.761534044 1390.94095211 c 0,111,112
 377.856075899 1394.16260294 377.856075899 1394.16260294 378.045394434 1397.35053865 c 0,113,114
 378.234712968 1400.53847436 378.234712968 1400.53847436 378.519398367 1403.69244626 c 0,115,116
 378.804083766 1406.84641816 378.804083766 1406.84641816 379.183914381 1409.96267393 c 0,117,118
 379.691067662 1414.12071361 379.691067662 1414.12071361 380.366933118 1418.20791431 c 0,119,120
 381.042798574 1422.29511502 381.042798574 1422.29511502 381.889284966 1426.31922626 c 0,121,122
 382.735771358 1430.3433375 382.735771358 1430.3433375 383.751495268 1434.29471347 c 0,123,124
 386.803184177 1446.16434591 386.803184177 1446.16434591 391.385218302 1457.37936078 c 0,125,126
 395.968361932 1468.59858994 395.968361932 1468.59858994 402.066609575 1479.12562266 c 0,127,128
 405.112692881 1484.38426588 405.112692881 1484.38426588 408.536016046 1489.46694406 c 0,129,130
 411.95933921 1494.54962223 411.95933921 1494.54962223 415.758020099 1499.45530599 c 0,131,132
 423.336575505 1509.24032837 423.336575505 1509.24032837 432.398525449 1518.30433295 c 0,133,134
 487.128261756 1573.03613281 487.128261756 1573.03613281 566.2421875 1573.03613281 c 0,135,136
 645.357034482 1573.03613281 645.357034482 1573.03613281 700.088604515 1518.30353099 c 0,137,138
 713.675484427 1504.71305666 713.675484427 1504.71305666 723.949333774 1489.46338156 c 0,139,140
 734.223183121 1474.21370646 734.223183121 1474.21370646 741.095375458 1457.39175005 c 0,141,142
 742.81478937 1453.18234228 742.81478937 1453.18234228 744.319576068 1448.87769387 c 0,143,144
 745.824362766 1444.57304545 745.824362766 1444.57304545 747.11095822 1440.18469008 c 0,145,146
 748.397553674 1435.7963347 748.397553674 1435.7963347 749.469918114 1431.31813075 c 0,147,148
 750.542282555 1426.8399268 750.542282555 1426.8399268 751.398091285 1422.27815024 c 0,149,150
 752.253900016 1417.71637369 752.253900016 1417.71637369 752.895791312 1413.07049114 c 0,151,152
 753.537682608 1408.42460858 753.537682608 1408.42460858 753.964653728 1403.69528778 c 0,153,154
 754.391624848 1398.96596698 754.391624848 1398.96596698 754.604992111 1394.15828276 c 0,155,156
 754.818359375 1389.35059854 754.818359375 1389.35059854 754.818359375 1384.45996094 c 0,67,68
EndSplineSet
EndChar

StartChar: uni0653
Encoding: 1619 1619 54
Width: 11
VWidth: 2553
GlyphClass: 4
Flags: W
AnchorPoint: "Anchor-10" 397.919 1467.33 mark 0
AnchorPoint: "Anchor-9" 397.919 1467.33 mark 0
AnchorPoint: "Anchor-1" 392.604 1833.32 basemark 0
AnchorPoint: "Anchor-1" 397.919 1467.33 mark 0
LayerCount: 2
Fore
SplineSet
318.89453125 1758.04980469 m 6,0,-1
 652.453125 1758.04980469 l 5,1,-1
 653.666015625 1540.84960938 l 1,2,-1
 328.983398438 1540.84960938 l 2,3,4
 247.590727694 1540.99891637 247.590727694 1540.99891637 197.026367188 1475.10449219 c 2,5,-1
 180.930664062 1454.12890625 l 1,6,-1
 70.8515625 1609.21777344 l 5,7,-1
 80.0068359375 1623.16210938 l 6,8,9
 169 1758 169 1758 318.89453125 1758.04980469 c 6,0,-1
EndSplineSet
EndChar

StartChar: uni0657
Encoding: 1623 1623 57
Width: 11
VWidth: 2553
GlyphClass: 4
Flags: W
AnchorPoint: "Anchor-10" 648 1577.87 mark 0
AnchorPoint: "Anchor-9" 648 1577.87 mark 0
AnchorPoint: "Anchor-1" 648 2230.92 basemark 0
AnchorPoint: "Anchor-1" 648 1577.87 mark 0
LayerCount: 2
Fore
SplineSet
375.842743707 1989.12612232 m 1,0,-1
 485.147688224 1981.49714933 l 1,1,2
 533.313392385 2047.81981413 533.313392385 2047.81981413 598.270632499 2087.35552182 c 0,3,4
 780.075594624 2199.14978257 780.075594624 2199.14978257 920.172408821 2208.7140824 c 2,5,-1
 930.853515625 2209.4432732 l 1,6,-1
 930.853515625 2198.73730469 l 1,7,-1
 930.853515625 2129.40039062 l 1,8,-1
 930.853515625 2119.93634926 l 1,9,-1
 921.403815086 2119.41554358 l 2,10,11
 774.093759912 2111.29677685 774.093759912 2111.29677685 642.524296268 2008.12953099 c 0,12,13
 630.660478728 1998.84270976 630.660478728 1998.84270976 619.825336007 1989.03815571 c 0,14,15
 608.990193286 1979.23360167 608.990193286 1979.23360167 599.18400502 1968.91567867 c 2,16,-1
 586.383771918 1955.44011549 l 1,17,-1
 604.523054636 1951.40504728 l 2,18,19
 612.174209238 1949.7070073 612.174209238 1949.7070073 646.16895703 1932.01185924 c 0,20,21
 681.079467391 1913.84003303 681.079467391 1913.84003303 706.736265567 1878.62838186 c 0,22,23
 732.9296875 1842.68170893 732.9296875 1842.68170893 732.9296875 1799.32324219 c 0,24,25
 732.9296875 1756.8780126 732.9296875 1756.8780126 720.452832676 1731.72186039 c 0,26,27
 678.766191527 1647.66992188 678.766191527 1647.66992188 577.603515625 1647.66992188 c 0,28,29
 544.196742594 1647.66992188 544.196742594 1647.66992188 517.200454515 1658.1782752 c 0,30,31
 490.204166435 1668.68662852 490.204166435 1668.68662852 470.145732279 1689.48480918 c 0,32,33
 450.087298122 1710.28298983 450.087298122 1710.28298983 437.411890731 1740.96509774 c 0,34,35
 424.422851562 1772.40738745 424.422851562 1772.40738745 424.422851562 1806.69433594 c 0,36,37
 424.422851562 1823.75503889 424.422851562 1823.75503889 427.832867437 1843.0961275 c 0,38,39
 431.242883311 1862.43721612 431.242883311 1862.43721612 438.013988601 1884.19936231 c 2,40,-1
 442.005234347 1897.02750844 l 1,41,-1
 428.586771893 1897.819981 l 2,42,43
 416.509527587 1898.53020806 416.509527587 1898.53020806 403.106818025 1899.00285671 c 0,44,45
 389.704108462 1899.47550537 389.704108462 1899.47550537 374.987659171 1899.70926916 c 2,46,-1
 365.146484375 1899.86559154 l 1,47,-1
 365.146484375 1909.70800781 l 1,48,-1
 365.146484375 1979.15039062 l 1,49,-1
 365.146484375 1989.8726711 l 1,50,-1
 375.842743707 1989.12612232 l 1,0,-1
533.552528086 1882.06471366 m 1,51,-1
 523.799048561 1859.31089358 l 2,52,53
 513.908203125 1836.24519288 513.908203125 1836.24519288 513.908203125 1802.21191406 c 0,54,55
 513.908203125 1791.37435383 513.908203125 1791.37435383 516.178830714 1782.51590739 c 0,56,57
 518.449458303 1773.65746095 518.449458303 1773.65746095 522.8464017 1766.758572 c 0,58,59
 527.243345097 1759.85968305 527.243345097 1759.85968305 533.922251596 1754.3583529 c 0,60,61
 554.80888785 1737.15429688 554.80888785 1737.15429688 578.532209052 1737.15429688 c 0,62,63
 628.297611397 1738.58357714 628.297611397 1738.58357714 638.921704685 1777.72101979 c 0,64,65
 639.772025394 1780.85258971 639.772025394 1780.85258971 640.334145516 1783.844642 c 0,66,67
 640.896265639 1786.8366943 640.896265639 1786.8366943 641.165906257 1789.59548866 c 0,68,69
 641.435546875 1792.35428303 641.435546875 1792.35428303 641.435546875 1794.97167969 c 0,70,71
 641.435546875 1848.88819264 641.435546875 1848.88819264 542.587405843 1879.28267208 c 2,72,-1
 533.552528086 1882.06471366 l 1,51,-1
EndSplineSet
EndChar

StartChar: uni065A
Encoding: 1626 1626 58
Width: 1295
VWidth: 2553
GlyphClass: 4
Flags: W
AnchorPoint: "Anchor-10" 648 1490.29 mark 0
AnchorPoint: "Anchor-9" 648 1490.29 mark 0
AnchorPoint: "Anchor-1" 645.488 2055.43 basemark 0
AnchorPoint: "Anchor-1" 648 1490.29 mark 0
LayerCount: 2
Fore
SplineSet
561.025519152 1588.66941716 m 1,0,-1
 346.812628527 1946.79148747 l 1,1,-1
 337.760542954 1961.92480469 l 1,2,-1
 355.39453125 1961.92480469 l 1,3,-1
 471.013671875 1961.92480469 l 1,4,-1
 476.36555314 1961.92480469 l 1,5,-1
 479.334212488 1957.47175015 l 1,6,-1
 647.999931134 1704.46944957 l 1,7,-1
 816.662815447 1957.47168658 l 1,8,-1
 819.631468032 1961.92480469 l 1,9,-1
 824.983398438 1961.92480469 l 1,10,-1
 940.604492188 1961.92480469 l 1,11,-1
 958.238604285 1961.92480469 l 1,12,-1
 949.186363983 1946.79143577 l 1,13,-1
 734.97054367 1588.66936546 l 1,14,-1
 732.059498932 1583.80273438 l 1,15,-1
 726.388671875 1583.80273438 l 1,16,-1
 569.607421875 1583.80273438 l 1,17,-1
 563.936555006 1583.80273438 l 1,18,-1
 561.025519152 1588.66941716 l 1,0,-1
EndSplineSet
EndChar

StartChar: afii57392
Encoding: 1632 1632 59
Width: 1036
VWidth: 2593
GlyphClass: 2
Flags: W
LayerCount: 2
Fore
SplineSet
430.643554688 496.107421875 m 4,0,1
 445.583984375 467.010742188 445.583984375 467.010742188 465.649414062 454.66015625 c 132,-1,2
 485.713867188 442.310546875 485.713867188 442.310546875 517.71484375 442.310546875 c 4,3,4
 557.680664062 442.310546875 557.680664062 442.310546875 586.172851562 470.96875 c 132,-1,5
 614.801757812 499.760742188 614.801757812 499.760742188 614.801757812 540.29296875 c 4,6,7
 614.801757812 554.524414062 614.801757812 554.524414062 611.80078125 566.434570312 c 132,-1,8
 608.798828125 578.345703125 608.798828125 578.345703125 602.516601562 588.922851562 c 132,-1,9
 596.233398438 599.498046875 596.233398438 599.498046875 586.173828125 609.619140625 c 4,10,11
 571.19921875 624.681640625 571.19921875 624.681640625 554.926757812 631.478515625 c 132,-1,12
 538.655273438 638.276367188 538.655273438 638.276367188 517.71484375 638.276367188 c 4,13,14
 477.75 638.276367188 477.75 638.276367188 449.258789062 609.620117188 c 132,-1,15
 420.627929688 580.8203125 420.627929688 580.8203125 420.627929688 537.2890625 c 4,16,17
 420.627929688 529.889648438 420.627929688 529.889648438 421.704101562 523.010742188 c 132,-1,18
 422.780273438 516.1328125 422.780273438 516.1328125 424.994140625 509.46484375 c 132,-1,19
 427.208984375 502.796875 427.208984375 502.796875 430.643554688 496.107421875 c 4,0,1
225.1015625 390.94921875 m 0,20,21
 190.337890625 458.654296875 190.337890625 458.654296875 190.337890625 534.272460938 c 0,22,23
 190.337890625 562.193359375 190.337890625 562.193359375 194.212890625 588.69921875 c 128,-1,24
 198.088867188 615.205078125 198.088867188 615.205078125 205.833984375 640.115234375 c 128,-1,25
 213.579101562 665.026367188 213.579101562 665.026367188 225.095703125 688.153320312 c 128,-1,26
 236.612304688 711.279296875 236.612304688 711.279296875 251.993164062 732.59375 c 128,-1,27
 267.374023438 753.908203125 267.374023438 753.908203125 286.422851562 773.069335938 c 0,28,29
 333.861328125 820.783203125 333.861328125 820.783203125 392.478515625 845.26953125 c 128,-1,30
 451.095703125 869.756835938 451.095703125 869.756835938 518 869.756835938 c 0,31,32
 540.278320312 869.756835938 540.278320312 869.756835938 561.750976562 867.008789062 c 128,-1,33
 583.223632812 864.260742188 583.223632812 864.260742188 603.657226562 858.823242188 c 128,-1,34
 624.08984375 853.384765625 624.08984375 853.384765625 643.547851562 845.2578125 c 128,-1,35
 663.005859375 837.130859375 663.005859375 837.130859375 681.276367188 826.401367188 c 128,-1,36
 699.545898438 815.670898438 699.545898438 815.670898438 716.669921875 802.30859375 c 128,-1,37
 733.793945312 788.946289062 733.793945312 788.946289062 749.581054688 773.067382812 c 0,38,39
 797.026367188 725.338867188 797.026367188 725.338867188 821.344726562 666.431640625 c 128,-1,40
 845.662109375 607.5234375 845.662109375 607.5234375 845.662109375 540.294921875 c 0,41,42
 845.662109375 495.53125 845.662109375 495.53125 834.830078125 454.291015625 c 128,-1,43
 823.999023438 413.051757812 823.999023438 413.051757812 802.58203125 376.171875 c 128,-1,44
 781.166015625 339.291015625 781.166015625 339.291015625 749.577148438 307.521484375 c 0,45,46
 702.138671875 259.80859375 702.138671875 259.80859375 643.521484375 235.321289062 c 128,-1,47
 584.904296875 210.834960938 584.904296875 210.834960938 518 210.834960938 c 0,48,49
 419.76171875 210.834960938 419.76171875 210.834960938 345.063476562 256.813476562 c 128,-1,50
 270.366210938 302.79296875 270.366210938 302.79296875 225.1015625 390.94921875 c 0,20,21
EndSplineSet
EndChar

StartChar: afii57393
Encoding: 1633 1633 60
Width: 752
VWidth: 2593
GlyphClass: 2
Flags: W
LayerCount: 2
Fore
SplineSet
491.849609375 3.9091796875 m 1,0,-1
 316.869140625 3.9091796875 l 1,1,-1
 277.008789062 3.9091796875 l 1,2,-1
 276.869140625 43.7685546875 l 2,3,4
 273.996859641 775.80035449 273.996859641 775.80035449 128.8984375 1229.82421875 c 6,5,-1
 116.407226562 1268.91015625 l 5,6,-1
 155.799804688 1280.40039062 l 5,7,-1
 323.799804688 1329.40039062 l 5,8,-1
 361.361328125 1340.35546875 l 5,9,-1
 373.143554688 1303.04492188 l 6,10,11
 531.07231875 802.770914494 531.07231875 802.770914494 531.849609375 43.9501953125 c 2,12,-1
 531.890625 3.9091796875 l 1,13,-1
 491.849609375 3.9091796875 l 1,0,-1
EndSplineSet
EndChar

StartChar: afii57394
Encoding: 1634 1634 61
Width: 1138
VWidth: 2593
GlyphClass: 2
Flags: W
LayerCount: 2
Fore
SplineSet
518.8515625 51.9892578125 m 2,0,-1
 518.864257812 43.97265625 l 1,1,-1
 518.927734375 3.9091796875 l 1,2,-1
 478.864257812 3.9091796875 l 1,3,-1
 304.094726562 3.9091796875 l 1,4,-1
 264.1875 3.9091796875 l 1,5,-1
 264.094726562 43.81640625 l 1,6,-1
 264.076171875 51.828125 l 2,7,8
 263.003055408 644.313059911 263.003055408 644.313059911 124.974609375 1230.29296875 c 6,9,-1
 116.405273438 1266.67285156 l 5,10,-1
 152.120117188 1277.68847656 l 5,11,-1
 319.2109375 1329.22363281 l 5,12,-1
 360.52734375 1341.96679688 l 5,13,-1
 370.0234375 1299.78515625 l 5,14,-1
 414.072265625 1104.11425781 l 6,15,16
 437 1004 437 1004 492.258789062 957.552734375 c 4,17,18
 548 911 548 911 645.525390625 910.381835938 c 4,19,20
 725 910 725 910 762.642578125 951.46484375 c 4,21,22
 800 993 800 993 803.649414062 1091.64746094 c 4,23,24
 806.992440896 1183.79164764 806.992440896 1183.79164764 804.236328125 1300.74511719 c 6,25,-1
 803.271484375 1341.6875 l 5,26,-1
 844.225585938 1341.6875 l 5,27,-1
 1007.57324219 1341.6875 l 5,28,-1
 1046.86230469 1341.6875 l 5,29,-1
 1047.56640625 1302.40527344 l 6,30,31
 1048 1252 1048 1252 1048.61132812 1209.44238281 c 4,32,33
 1049 1167 1049 1167 1048.1015625 1129.48828125 c 4,34,35
 1047 1092 1047 1092 1045.94921875 1061.71582031 c 4,36,37
 1044 1031 1044 1031 1042.04003906 1006.3046875 c 4,38,39
 1040 981 1040 981 1036.28613281 962.430664062 c 4,40,41
 1018 860 1018 860 966.711914062 789.66796875 c 4,42,43
 916 719 916 719 834.856445312 683.42578125 c 4,44,45
 754 648 754 648 646.465820312 647.407226562 c 4,46,47
 604 647 604 647 563.911132812 653.923828125 c 132,-1,48
 524 661 524 661 488.364257812 674.002929688 c 5,49,50
 518 392 518 392 518.8515625 51.9892578125 c 2,0,-1
EndSplineSet
EndChar

StartChar: afii57395
Encoding: 1635 1635 62
Width: 1415
VWidth: 2593
GlyphClass: 2
Flags: W
LayerCount: 2
Fore
SplineSet
414.06640625 1104.14160156 m 6,0,1
 429.761974236 1034.42021809 429.761974236 1034.42021809 454.317382812 991.069335938 c 4,2,3
 479 948 479 948 508.810546875 930.217773438 c 4,4,5
 539 913 539 913 577.890625 913.143554688 c 4,6,7
 600 913 600 913 615.533203125 920.05078125 c 132,-1,8
 631 927 631 927 642.907226562 942.282226562 c 4,9,10
 655 958 655 958 660.5390625 985.7109375 c 4,11,12
 666.342397919 1015.77370939 666.342397919 1015.77370939 666.405273438 1054.49414062 c 6,13,-1
 666.805664062 1301.06542969 l 5,14,-1
 666.870117188 1341 l 5,15,-1
 706.805664062 1341 l 5,16,-1
 864.08203125 1341 l 5,17,-1
 904.186523438 1341 l 5,18,-1
 904.08203125 1300.89550781 l 5,19,-1
 903.4140625 1044.36035156 l 6,20,21
 903 994 903 994 914.57421875 965.477539062 c 132,-1,22
 926 937 926 937 948.063476562 924.904296875 c 132,-1,23
 970 913 970 913 1007.74804688 913.254882812 c 4,24,25
 1047 913 1047 913 1065.1640625 939.5703125 c 4,26,27
 1083.60530835 965.446187537 1083.60530835 965.446187537 1083.40429688 1038.63867188 c 6,28,-1
 1082.68554688 1300.35058594 l 5,29,-1
 1082.57519531 1340.45996094 l 5,30,-1
 1122.68554688 1340.45996094 l 5,31,-1
 1294.08007812 1340.45996094 l 5,32,-1
 1333.88085938 1340.45996094 l 5,33,-1
 1334.07910156 1300.66015625 l 5,34,-1
 1335.00683594 1115.27246094 l 6,35,36
 1336 971 1336 971 1301.69726562 869.403320312 c 4,37,38
 1268 768 1268 768 1195.15332031 712.448242188 c 4,39,40
 1123 657 1123 657 1014.71386719 656.75 c 4,41,42
 994 657 994 657 975.166992188 658.60546875 c 4,43,44
 956 660 956 660 937.731445312 664.091796875 c 4,45,46
 920 668 920 668 902.607421875 673.202148438 c 4,47,48
 886 679 886 679 869.958007812 686.005859375 c 132,-1,49
 854 693 854 693 839.987304688 702.4921875 c 132,-1,50
 826 712 826 712 812.857421875 722.727539062 c 4,51,52
 800 734 800 734 788.768554688 746.706054688 c 5,53,54
 718 663 718 663 608.8515625 659.9296875 c 4,55,56
 576 659 576 659 546.092773438 663.442382812 c 132,-1,57
 516 668 516 668 489.612304688 677.409179688 c 5,58,59
 518.293507081 404.204175679 518.293507081 404.204175679 518.8515625 51.9853515625 c 2,60,-1
 518.864257812 43.97265625 l 1,61,-1
 518.927734375 3.9091796875 l 1,62,-1
 478.864257812 3.9091796875 l 1,63,-1
 304.094726562 3.9091796875 l 1,64,-1
 264.1875 3.9091796875 l 1,65,-1
 264.094726562 43.81640625 l 1,66,-1
 264.076171875 51.798828125 l 2,67,68
 263.003055256 644.313060555 263.003055256 644.313060555 124.974609375 1230.29296875 c 6,69,-1
 116.405273438 1266.67285156 l 5,70,-1
 152.120117188 1277.68847656 l 5,71,-1
 319.2109375 1329.22363281 l 5,72,-1
 360.52734375 1341.96679688 l 5,73,-1
 370.0234375 1299.78515625 l 5,74,-1
 414.06640625 1104.14160156 l 6,0,1
EndSplineSet
EndChar

StartChar: afii57396
Encoding: 1636 1636 63
Width: 987
VWidth: 2593
GlyphClass: 2
Flags: W
LayerCount: 2
Fore
SplineSet
111.399414062 345.736328125 m 0,0,1
 146 503 146 503 330.204101562 675.54296875 c 1,2,3
 223 739 223 739 148.438476562 827.482421875 c 0,4,5
 98 888 98 888 121.323242188 968.37890625 c 0,6,7
 190.066833542 1195.22053881 190.066833542 1195.22053881 606.611328125 1346.82714844 c 2,8,-1
 646.072265625 1361.18945312 l 1,9,-1
 658.500976562 1321.07714844 l 2,10,11
 673.489746402 1273.61570125 673.489746402 1273.61570125 684.741210938 1113.63671875 c 2,12,-1
 686.841796875 1083.76953125 l 5,13,14
 519 1061 519 1061 389.061523438 960.403320312 c 5,15,-1
 398.758789062 953.01953125 l 1,16,17
 552.43071146 853.721688137 552.43071146 853.721688137 718.920898438 820.802734375 c 2,18,-1
 753.918945312 813.8828125 l 1,19,-1
 751.03125 778.32421875 l 2,20,21
 750.982638018 777.677541572 750.982638018 777.677541572 741.365234375 659.39453125 c 2,22,-1
 739.666015625 638.49609375 l 1,23,-1
 721.512695312 628.004882812 l 2,24,25
 455 474 455 474 388.305664062 387.783203125 c 0,26,27
 380 377 380 377 378.161132812 369.559570312 c 1,28,29
 384 366 384 366 395.009765625 362.020507812 c 0,30,31
 560.485143678 310.849977322 560.485143678 310.849977322 814.48046875 333.98828125 c 2,32,-1
 852.67578125 337.467773438 l 1,33,-1
 857.756835938 299.453125 l 1,34,-1
 886.094726562 87.447265625 l 1,35,-1
 891.754882812 45.103515625 l 1,36,-1
 849.130859375 42.2373046875 l 2,37,38
 406.325860411 12.157993427 406.325860411 12.157993427 157.346679688 170.66796875 c 0,39,40
 83 218 83 218 111.399414062 345.736328125 c 0,0,1
EndSplineSet
EndChar

StartChar: afii57397
Encoding: 1637 1637 64
Width: 1298
VWidth: 2593
GlyphClass: 2
Flags: W
LayerCount: 2
Fore
SplineSet
636.90234375 950.498046875 m 5,0,1
 547 871 547 871 487.133789062 785.504882812 c 4,2,3
 431.212364691 705.989606757 431.212364691 705.989606757 394.9296875 604.555664062 c 4,4,5
 384 574 384 574 379.137695312 543.375976562 c 4,6,7
 374 512 374 512 373.795898438 502.78515625 c 0,8,9
 373 382 373 382 438.286132812 325.297851562 c 0,10,11
 503 269 503 269 648.439453125 268.442382812 c 0,12,13
 839 268 839 268 893.421875 367.213867188 c 0,14,15
 939 450 939 450 892.604492188 588.209960938 c 4,16,17
 831 769 831 769 636.90234375 950.498046875 c 5,0,1
395.313476562 1171.37011719 m 5,18,-1
 502.38671875 1325.94921875 l 5,19,-1
 524.373046875 1357.69140625 l 5,20,-1
 556.87109375 1336.83789062 l 6,21,22
 1205 921 1205 921 1204.625 442.1953125 c 0,23,24
 1204 222 1204 222 1011.58789062 92.1220703125 c 0,25,26
 872 -2 872 -2 665.022460938 -1.3291015625 c 0,27,28
 365 -1 365 -1 221.533203125 149.625 c 0,29,30
 78 302 78 302 108.893554688 543.275390625 c 0,31,32
 130 705 130 705 228.32421875 857.586914062 c 4,33,34
 325 1007 325 1007 425.443359375 1104.36425781 c 5,35,-1
 408.76953125 1113.62695312 l 5,36,-1
 370.169921875 1135.07128906 l 5,37,-1
 395.313476562 1171.37011719 l 5,18,-1
EndSplineSet
EndChar

StartChar: afii57398
Encoding: 1638 1638 65
Width: 1320
VWidth: 2593
GlyphClass: 2
Flags: W
LayerCount: 2
Fore
SplineSet
141.435546875 1328.875 m 2,0,1
 207.62083557 1311.95020422 207.62083557 1311.95020422 284.669921875 1298.33984375 c 0,2,3
 356 1286 356 1286 427.98828125 1279.94433594 c 128,-1,4
 500 1274 500 1274 571.359375 1273.6796875 c 0,5,6
 674 1274 674 1274 788.182617188 1287.90820312 c 0,7,8
 902.74668616 1302.09244765 902.74668616 1302.09244765 1027.24121094 1330.02929688 c 2,9,-1
 1075.72070312 1340.90820312 l 1,10,-1
 1075.99902344 1291.22460938 l 2,11,12
 1080.01406455 662.798644942 1080.01406455 662.798644942 1229.91894531 53.46484375 c 2,13,-1
 1242.11035156 3.9091796875 l 1,14,-1
 1191.07714844 3.9091796875 l 1,15,-1
 997.666015625 3.9091796875 l 1,16,-1
 965.4453125 3.9091796875 l 1,17,-1
 958.583984375 35.390625 l 2,18,19
 871.832677961 434.901699872 871.832677961 434.901699872 827.149414062 1026.4921875 c 5,20,21
 792 1019 792 1019 755.7265625 1012.58105469 c 0,22,23
 719 1007 719 1007 681.500976562 1002.71484375 c 0,24,25
 644 999 644 999 604.33203125 996.827148438 c 0,26,27
 565 995 565 995 523.75 994.829101562 c 0,28,29
 329.484087275 994.9995752 329.484087275 994.9995752 120.663085938 1053.92382812 c 2,30,-1
 91.5263671875 1062.14550781 l 1,31,-1
 91.5263671875 1092.41992188 l 1,32,-1
 91.5263671875 1290.12207031 l 1,33,-1
 91.5263671875 1341.63769531 l 1,34,-1
 141.435546875 1328.875 l 2,0,1
EndSplineSet
EndChar

StartChar: afii57399
Encoding: 1639 1639 66
Width: 1292
VWidth: 2593
GlyphClass: 2
Flags: W
LayerCount: 2
Fore
SplineSet
650.130859375 523.635742188 m 5,0,1
 755.755036785 894.652148794 755.755036785 894.652148794 952.71484375 1316.90917969 c 6,2,-1
 968.353515625 1350.43652344 l 5,3,-1
 1002.99707031 1337.45800781 l 5,4,-1
 1174.26367188 1273.29785156 l 5,5,-1
 1216.87304688 1257.3359375 l 5,6,-1
 1195.58203125 1217.12304688 l 6,7,8
 857.742668874 578.513573274 857.742668874 578.513573274 764.379882812 37.111328125 c 2,9,-1
 758.654296875 3.9091796875 l 1,10,-1
 724.961914062 3.9091796875 l 1,11,-1
 576.002929688 3.9091796875 l 1,12,-1
 542.30859375 3.9091796875 l 1,13,-1
 536.583984375 37.11328125 l 2,14,15
 442.868198425 579.763181043 442.868198425 579.763181043 105.3828125 1217.12207031 c 6,16,-1
 84.08984375 1257.33496094 l 5,17,-1
 126.701171875 1273.29785156 l 5,18,-1
 297.967773438 1337.45800781 l 5,19,-1
 332.609375 1350.43554688 l 5,20,-1
 348.249023438 1316.91113281 l 6,21,22
 546 892 546 892 650.130859375 523.635742188 c 5,0,1
EndSplineSet
EndChar

StartChar: afii57400
Encoding: 1640 1640 67
Width: 1292
VWidth: 2593
GlyphClass: 2
Flags: W
LayerCount: 2
Fore
SplineSet
650.833984375 820.2734375 m 1,0,1
 545.964532682 450.875067818 545.964532682 450.875067818 348.25 27 c 2,2,-1
 332.611328125 -6.52734375 l 1,3,-1
 297.967773438 6.451171875 l 1,4,-1
 126.701171875 70.611328125 l 1,5,-1
 84.091796875 86.5732421875 l 1,6,-1
 105.3828125 126.786132812 l 2,7,8
 443.228412811 765.431779627 443.228412811 765.431779627 536.584960938 1306.79785156 c 6,9,-1
 542.310546875 1340 l 5,10,-1
 576.002929688 1340 l 5,11,-1
 724.961914062 1340 l 5,12,-1
 758.65625 1340 l 5,13,-1
 764.380859375 1306.79589844 l 6,14,15
 858.172232983 764.003247379 858.172232983 764.003247379 1195.58203125 126.787109375 c 2,16,-1
 1216.875 86.57421875 l 1,17,-1
 1174.26367188 70.611328125 l 1,18,-1
 1002.99707031 6.451171875 l 1,19,-1
 968.35546875 -6.5263671875 l 1,20,-1
 952.715820312 26.998046875 l 2,21,22
 755 451 755 451 650.833984375 820.2734375 c 1,0,1
EndSplineSet
EndChar

StartChar: afii57401
Encoding: 1641 1641 68
Width: 1237
VWidth: 2593
GlyphClass: 2
Flags: W
LayerCount: 2
Fore
SplineSet
521.427734375 507.34375 m 0,1,2
 452 507 452 507 394.444335938 520.096679688 c 0,3,4
 336 533 336 533 288.146484375 560.234375 c 0,5,6
 240 587 240 587 204.7109375 628.720703125 c 0,7,8
 110 740 110 740 110.05859375 899.54296875 c 0,9,10
 110 1088 110 1088 212.547851562 1199.20800781 c 0,11,12
 340 1339 340 1339 555 1339 c 0,13,14
 599 1339 599 1339 638.514648438 1332.36914062 c 0,15,16
 678 1326 678 1326 712.5390625 1312.72167969 c 0,17,18
 747 1300 747 1300 776.858398438 1280.38867188 c 0,19,20
 807 1261 807 1261 831.421875 1235.73828125 c 0,21,22
 856 1210 856 1210 876.000976562 1179.09960938 c 128,-1,23
 896 1148 896 1148 910.548828125 1110.84179688 c 0,24,25
 925 1074 925 1074 934.8359375 1031.29101562 c 0,26,27
 944 989 944 989 948.801757812 940.81640625 c 0,28,29
 961 808 961 808 968.923828125 693.258789062 c 0,30,31
 1010.64449592 133.096126207 1010.64449592 133.096126207 1016.17285156 46.4560546875 c 2,32,-1
 1018.88769531 3.9091796875 l 1,33,-1
 976.25390625 3.9091796875 l 1,34,-1
 802.578125 3.9091796875 l 1,35,-1
 764.443359375 3.9091796875 l 1,36,-1
 762.624023438 42 l 2,37,38
 748 293 748 293 733.631835938 544.994140625 c 1,39,40
 640 507 640 507 521.427734375 507.34375 c 0,1,2
533.998046875 745.966796875 m 0,41,42
 639 746 639 746 707.885742188 802.444335938 c 1,43,44
 706 885 706 885 693.55859375 971.447265625 c 0,45,46
 676 1094 676 1094 554.446289062 1093.76757812 c 0,47,48
 441 1094 441 1094 391.967773438 1023.35449219 c 0,49,50
 358 975 358 975 358.166992188 901.364257812 c 0,51,52
 359 819 359 819 398.956054688 782.571289062 c 128,-1,53
 439 746 439 746 533.998046875 745.966796875 c 0,41,42
EndSplineSet
EndChar

StartChar: afii57381
Encoding: 1642 1642 69
Width: 1291
VWidth: 2593
GlyphClass: 2
Flags: W
LayerCount: 2
Fore
SplineSet
755.737304688 218.348632812 m 0,0,1
 755.219726562 297.611328125 755.219726562 297.611328125 813.62109375 353.755859375 c 0,2,3
 871.114257812 409.72265625 871.114257812 409.72265625 950.860351562 409.545898438 c 0,4,5
 989.8125 409.631835938 989.8125 409.631835938 1024.9140625 395.345703125 c 128,-1,6
 1060.01660156 381.05859375 1060.01660156 381.05859375 1088.09960938 353.755859375 c 0,7,8
 1146.42578125 297.612304688 1146.42578125 297.612304688 1145.984375 218.348632812 c 0,9,10
 1146.20019531 180.021484375 1146.20019531 180.021484375 1131.34179688 145.349609375 c 128,-1,11
 1116.48339844 110.677734375 1116.48339844 110.677734375 1088.25976562 83.0947265625 c 0,12,13
 1030.53222656 26.5673828125 1030.53222656 26.5673828125 950.860351562 27.1484375 c 0,14,15
 871.114257812 26.5673828125 871.114257812 26.5673828125 813.4609375 83.0947265625 c 0,16,17
 755.219726562 139.942382812 755.219726562 139.942382812 755.737304688 218.348632812 c 0,0,1
145.40625 1164.66210938 m 4,18,19
 145 1244 145 1244 203.290039062 1300.06933594 c 4,20,21
 261 1356 261 1356 340.529296875 1355.859375 c 4,22,23
 420 1356 420 1356 477.768554688 1300.06933594 c 4,24,25
 535 1245 535 1245 535.653320312 1164.66210938 c 4,26,27
 536 1126 536 1126 521.010742188 1091.66308594 c 4,28,29
 506 1057 506 1057 477.928710938 1029.40820312 c 4,30,31
 421 974 421 974 340.529296875 973.461914062 c 4,32,33
 257 973 257 973 203.129882812 1029.40820312 c 4,34,35
 194 1039 194 1039 185.791015625 1048.56542969 c 4,36,37
 178 1059 178 1059 171.397460938 1069.25976562 c 4,38,39
 165 1080 165 1080 160.057617188 1091.37890625 c 4,40,41
 155 1103 155 1103 151.874023438 1114.73632812 c 4,42,43
 149 1127 149 1127 146.956054688 1139.22460938 c 4,44,45
 145 1152 145 1152 145.40625 1164.66210938 c 4,18,19
908.708007812 1356.07910156 m 5,46,-1
 1064.01953125 1277.7109375 l 5,47,-1
 1100.76464844 1259.16992188 l 5,48,-1
 1081.18261719 1222.96875 l 5,49,-1
 392.546875 29.8779296875 l 1,50,-1
 373.6953125 -4.97265625 l 1,51,-1
 338.666992188 13.5478515625 l 1,52,-1
 185.302734375 94.638671875 l 1,53,-1
 149.616210938 113.5078125 l 1,54,-1
 168.811523438 149.020507812 l 1,55,-1
 855.5 1339.38867188 l 5,56,-1
 873.991210938 1373.59667969 l 5,57,-1
 908.708007812 1356.07910156 l 5,46,-1
EndSplineSet
EndChar

StartChar: uni066B
Encoding: 1643 1643 70
Width: 667
VWidth: 2553
GlyphClass: 2
Flags: W
LayerCount: 2
Fore
SplineSet
37.1645731571 -201.950273522 m 1,0,-1
 436.224143469 584.526288978 l 1,1,-1
 445.045348566 601.911340178 l 1,2,-1
 462.650277561 593.537563274 l 1,3,-1
 585.590707249 535.061000774 l 1,4,-1
 604.029734367 526.290485457 l 1,5,-1
 594.879199833 508.03706447 l 1,6,-1
 199.725879521 -280.211958968 l 1,7,-1
 190.951526246 -297.714976266 l 1,8,-1
 173.265909371 -289.314747358 l 1,9,-1
 46.4192296828 -229.06572392 l 1,10,-1
 27.8752947664 -220.257815253 l 1,11,-1
 37.1645731571 -201.950273522 l 1,0,-1
EndSplineSet
EndChar

StartChar: uni066C
Encoding: 1644 1644 71
Width: 592
VWidth: 2304
GlyphClass: 2
Flags: W
LayerCount: 2
Fore
SplineSet
299.438434807 281.995200195 m 0,0,1
 371.233728476 280.363488975 371.233728476 280.363488975 413.274091126 246.324876638 c 0,2,3
 455.314453776 212.286264301 455.314453776 212.286264301 461.082637617 148.623940069 c 0,4,5
 470.261148458 45.9716776659 470.261148458 45.9716776659 439.178130946 -58.674481288 c 0,6,7
 380.596660183 -257.433042807 380.596660183 -257.433042807 178.261909283 -349.213754555 c 2,8,-1
 166.203403942 -354.683592029 l 1,9,-1
 156.458869384 -345.718620235 l 1,10,-1
 106.458869384 -299.718620235 l 1,11,-1
 86.1150460201 -281.002302741 l 1,12,-1
 110.25593701 -267.534226715 l 2,13,14
 278.803805825 -173.502257797 278.803805825 -173.502257797 305.809704488 -20.6049864272 c 1,15,16
 293.093404735 -20.5634058125 293.093404735 -20.5634058125 286.481180123 -19.9853923801 c 0,17,18
 212.607989864 -15.8709457908 212.607989864 -15.8709457908 173.255592511 21.1263271003 c 0,19,20
 133.903195158 58.1235999914 133.903195158 58.1235999914 135.076639645 124.313824593 c 0,21,22
 136.136354179 201.90298448 136.136354179 201.90298448 178.765870246 242.773490737 c 0,23,24
 221.395386314 283.643996994 221.395386314 283.643996994 299.438434807 281.995200195 c 0,0,1
EndSplineSet
EndChar

StartChar: afii63167
Encoding: 1645 1645 72
Width: 1411
VWidth: 2553
GlyphClass: 2
Flags: W
LayerCount: 2
Fore
SplineSet
192.791992188 910.817382812 m 1,0,-1
 583.680664062 910.817382812 l 1,1,-1
 705.771484375 1282.53027344 l 1,2,-1
 827.856445312 910.817382812 l 1,3,-1
 1218.74707031 910.817382812 l 1,4,-1
 902.943359375 679.956054688 l 1,5,-1
 1023.75 308.823242188 l 1,6,-1
 705.771484375 538.59765625 l 1,7,-1
 387.788085938 308.823242188 l 1,8,-1
 508.595703125 679.956054688 l 1,9,-1
 192.791992188 910.817382812 l 1,0,-1
EndSplineSet
EndChar

StartChar: uni066E
Encoding: 1646 1646 73
Width: 1901
VWidth: 2593
GlyphClass: 2
Flags: W
AnchorPoint: "Anchor-10" 879.751 1269.53 basechar 0
AnchorPoint: "Anchor-7" 879.751 -174.707 basechar 0
LayerCount: 2
Fore
SplineSet
536.640625 265.200195312 m 2,0,-1
 1373.13574219 264 l 2,1,2
 1482.05078125 264 1482.05078125 264 1531.36621094 316.053710938 c 128,-1,3
 1580.68261719 368.108398438 1580.68261719 368.108398438 1580.68261719 485.366210938 c 2,4,-1
 1580.68261719 693.75 l 1,5,-1
 1580.68261719 733.75 l 1,6,-1
 1620.68261719 733.75 l 1,7,-1
 1799.44042969 733.75 l 1,8,-1
 1839.44042969 733.75 l 1,9,-1
 1839.44042969 693.75 l 1,10,-1
 1839.44042969 487.823242188 l 2,11,12
 1839.20703125 250.24609375 1839.20703125 250.24609375 1718.25585938 125.13671875 c 128,-1,13
 1597.30566406 0.0263671875 1597.30566406 0.0263671875 1366.46582031 0 c 2,14,-1
 533.758789062 -0.0966796875 l 2,15,16
 441.484375 -0.076171875 441.484375 -0.076171875 366.064453125 20.08203125 c 128,-1,17
 290.64453125 40.2392578125 290.64453125 40.2392578125 233.720703125 79.9189453125 c 128,-1,18
 176.796875 119.598632812 176.796875 119.598632812 138.087890625 177.885742188 c 128,-1,19
 99.37890625 236.173828125 99.37890625 236.173828125 79.8037109375 313.08203125 c 128,-1,20
 60.2275390625 389.990234375 60.2275390625 389.990234375 60.2275390625 483.977539062 c 2,21,-1
 60.2265625 696.66015625 l 1,22,-1
 60.2265625 736.66015625 l 1,23,-1
 100.2265625 736.66015625 l 1,24,-1
 278.984375 736.66015625 l 1,25,-1
 318.984375 736.66015625 l 1,26,-1
 318.984375 696.66015625 l 1,27,-1
 318.984375 484.54296875 l 2,28,29
 318.991210938 369.30859375 318.991210938 369.30859375 370.500976562 317.432617188 c 128,-1,30
 422.010742188 265.555664062 422.010742188 265.555664062 536.640625 265.200195312 c 2,0,-1
EndSplineSet
Substitution2: "'init' Initial Forms in Arabic lookup 13 subtable" uni066E.init
Substitution2: "'medi' Medial Forms in Arabic lookup 11 subtable" uni066E.medi
Substitution2: "'fina' Terminal Forms in Arabic lookup 9 subtable" uni066E.fina
EndChar

StartChar: uni066F
Encoding: 1647 1647 74
Width: 1434
VWidth: 2593
GlyphClass: 2
Flags: W
AnchorPoint: "Anchor-10" 353.676 1201.52 basechar 0
AnchorPoint: "Anchor-7" 425.271 -673.467 basechar 0
LayerCount: 2
Fore
SplineSet
1373.15039062 -24.3515625 m 2,0,1
 1373.74707031 -238.2734375 1373.74707031 -238.2734375 1212.68652344 -345.13671875 c 128,-1,2
 1051.62695312 -452 1051.62695312 -452 749.385742188 -452 c 2,3,-1
 691.184570312 -452 l 2,4,5
 382.8984375 -452 382.8984375 -452 222.061523438 -300.48046875 c 128,-1,6
 61.224609375 -148.961914062 61.224609375 -148.961914062 61.12109375 143.905273438 c 2,7,-1
 61 485.986328125 l 1,8,-1
 60.986328125 525.849609375 l 1,9,-1
 100.848632812 526 l 1,10,-1
 279.7265625 526.674804688 l 1,11,-1
 319.877929688 526.826171875 l 1,12,-1
 319.877929688 486.674804688 l 1,13,-1
 319.877929688 145.10546875 l 2,14,15
 319.93359375 -25.3837890625 319.93359375 -25.3837890625 409.5234375 -105.094726562 c 128,-1,16
 499.112304688 -184.8046875 499.112304688 -184.8046875 692.924804688 -182.713867188 c 2,17,-1
 747.370117188 -182.126953125 l 2,18,19
 1119.63867188 -178.40234375 1119.63867188 -178.40234375 1118.20996094 -21.24609375 c 2,20,-1
 1118.20996094 2.98046875 l 1,21,-1
 967.344726562 2.98046875 l 2,22,23
 790.823242188 2.9912109375 790.823242188 2.9912109375 698.733398438 107.671875 c 128,-1,24
 606.64453125 212.352539062 606.64453125 212.352539062 607.383789062 406.780273438 c 0,25,26
 608.251953125 602.415039062 608.251953125 602.415039062 707.958007812 706.813476562 c 128,-1,27
 807.6640625 811.211914062 807.6640625 811.211914062 995.813476562 811.463867188 c 0,28,29
 1117.70507812 811.659179688 1117.70507812 811.659179688 1201.98144531 763.674804688 c 128,-1,30
 1286.2578125 715.69140625 1286.2578125 715.69140625 1328.92871094 623.764648438 c 128,-1,31
 1371.59863281 531.837890625 1371.59863281 531.837890625 1371.96679688 399.938476562 c 2,32,-1
 1373.15039062 -24.3515625 l 2,0,1
992.0390625 556.248046875 m 0,33,34
 943.767578125 556.1796875 943.767578125 556.1796875 914.8671875 541.801757812 c 128,-1,35
 885.966796875 527.423828125 885.966796875 527.423828125 872.04296875 495.064453125 c 128,-1,36
 858.118164062 462.705078125 858.118164062 462.705078125 858.166992188 408.098632812 c 0,37,38
 858.13671875 375.926757812 858.13671875 375.926757812 862.358398438 352.262695312 c 128,-1,39
 866.580078125 328.599609375 866.580078125 328.599609375 874.810546875 312.3671875 c 128,-1,40
 883.040039062 296.135742188 883.040039062 296.135742188 896.352539062 286.299804688 c 128,-1,41
 909.665039062 276.462890625 909.665039062 276.462890625 926.580078125 272.172851562 c 128,-1,42
 943.494140625 267.881835938 943.494140625 267.881835938 966.322265625 267.874023438 c 2,43,-1
 1117.90917969 267.819335938 l 1,44,-1
 1117.56640625 393.762695312 l 2,45,46
 1117.31542969 483.663085938 1117.31542969 483.663085938 1087.42871094 520.10546875 c 128,-1,47
 1057.54101562 556.546875 1057.54101562 556.546875 992.0390625 556.248046875 c 0,33,34
EndSplineSet
Substitution2: "'init' Initial Forms in Arabic lookup 13 subtable" uni066F.init
Substitution2: "'medi' Medial Forms in Arabic lookup 11 subtable" uni066F.medi
Substitution2: "'fina' Terminal Forms in Arabic lookup 9 subtable" uni066F.fina
EndChar

StartChar: uni0670
Encoding: 1648 1648 75
Width: 11
VWidth: 2553
GlyphClass: 4
Flags: W
AnchorPoint: "Anchor-10" 648 1490.29 mark 0
AnchorPoint: "Anchor-9" 648 1490.29 mark 0
AnchorPoint: "Anchor-1" 648 2086.6 basemark 0
AnchorPoint: "Anchor-1" 648 1490.29 mark 0
LayerCount: 2
Fore
SplineSet
594.571289062 1557.38378906 m 1,0,-1
 594.571289062 2019.51757812 l 1,1,-1
 594.571289062 2029.51757812 l 1,2,-1
 604.571289062 2029.51757812 l 1,3,-1
 691.427734375 2029.51757812 l 1,4,-1
 701.427734375 2029.51757812 l 1,5,-1
 701.427734375 2019.51757812 l 1,6,-1
 701.427734375 1557.38378906 l 1,7,-1
 701.427734375 1547.38378906 l 1,8,-1
 691.427734375 1547.38378906 l 1,9,-1
 604.571289062 1547.38378906 l 1,10,-1
 594.571289062 1547.38378906 l 1,11,-1
 594.571289062 1557.38378906 l 1,0,-1
EndSplineSet
EndChar

StartChar: uni0674
Encoding: 1652 1652 76
Width: 759
VWidth: 2553
GlyphClass: 2
Flags: W
LayerCount: 2
Fore
SplineSet
159.257376324 1786.27344759 m 1,0,-1
 246.537201478 1806.4138889 l 1,1,2
 184.00150489 1857.17071095 184.00150489 1857.17071095 184.018554807 1949.76701144 c 0,3,4
 183.999100208 2075.82974093 183.999100208 2075.82974093 289.868034362 2135.75965653 c 0,5,6
 346.040231081 2166.74896997 346.040231081 2166.74896997 416.996351498 2167.36630292 c 0,7,8
 499.868442734 2166.98697512 499.868442734 2166.98697512 564.57732139 2126.8848126 c 2,9,-1
 569.309570312 2123.95208653 l 1,10,-1
 569.309570312 2118.38476562 l 1,11,-1
 569.309570312 2003.42871094 l 1,12,-1
 569.309570312 1986.20749791 l 1,13,-1
 554.352813878 1994.74363376 l 2,14,15
 508.355414887 2020.99531796 508.355414887 2020.99531796 441.867034997 2020.87799657 c 0,16,17
 386.67103954 2020.45960533 386.67103954 2020.45960533 361.180906739 2001.43022871 c 0,18,19
 335.690773939 1982.40085209 335.690773939 1982.40085209 335.441218718 1944.01297661 c 0,20,21
 335.310213596 1922.62204281 335.310213596 1922.62204281 343.587690974 1906.05554828 c 0,22,23
 351.865168352 1889.48905375 351.865168352 1889.48905375 369.464579074 1876.87671234 c 0,24,25
 387.063989796 1864.26437093 387.063989796 1864.26437093 414.529192494 1855.60173237 c 1,26,-1
 584.051023412 1883.63648214 l 1,27,-1
 595.682617188 1885.56006224 l 1,28,-1
 595.682617188 1873.77048489 l 1,29,-1
 595.682617188 1752.89747923 l 1,30,-1
 595.682617188 1744.89358518 l 1,31,-1
 587.873106754 1743.14034054 l 1,32,-1
 163.696348941 1647.9121398 l 1,33,-1
 151.505859375 1645.17535999 l 1,34,-1
 151.505859375 1657.66927849 l 1,35,-1
 151.505859375 1776.52950978 l 1,36,-1
 151.505859375 1784.48472984 l 1,37,-1
 159.257376324 1786.27344759 l 1,0,-1
EndSplineSet
EndChar

StartChar: uni06A1
Encoding: 1697 1697 80
Width: 1897
VWidth: 2593
GlyphClass: 2
Flags: W
AnchorPoint: "Anchor-10" 504.245 1247.49 basechar 0
AnchorPoint: "Anchor-7" 521.19 -145.02 basechar 0
LayerCount: 2
Fore
SplineSet
1453.33691406 1084.38964844 m 0,0,1
 1635.34960938 1084.1796875 1635.34960938 1084.1796875 1733.47460938 994.708007812 c 128,-1,2
 1831.60058594 905.235351562 1831.60058594 905.235351562 1831.86328125 735.71875 c 2,3,-1
 1832.39257812 393.892578125 l 2,4,5
 1832.61816406 262.466796875 1832.61816406 262.466796875 1766.69042969 173.850585938 c 128,-1,6
 1700.76269531 85.2333984375 1700.76269531 85.2333984375 1578.02734375 42.6279296875 c 128,-1,7
 1455.29296875 0.0234375 1455.29296875 0.0234375 1278.49414062 0 c 2,8,-1
 533.758789062 -0.0966796875 l 2,9,10
 441.484375 -0.076171875 441.484375 -0.076171875 366.064453125 20.08203125 c 128,-1,11
 290.64453125 40.2392578125 290.64453125 40.2392578125 233.720703125 79.9189453125 c 128,-1,12
 176.796875 119.598632812 176.796875 119.598632812 138.087890625 177.885742188 c 128,-1,13
 99.37890625 236.173828125 99.37890625 236.173828125 79.8037109375 313.08203125 c 128,-1,14
 60.2275390625 389.990234375 60.2275390625 389.990234375 60.2275390625 483.977539062 c 2,15,-1
 60.2265625 696.66015625 l 1,16,-1
 60.2265625 736.66015625 l 1,17,-1
 100.2265625 736.66015625 l 1,18,-1
 278.984375 736.66015625 l 1,19,-1
 318.984375 736.66015625 l 1,20,-1
 318.984375 696.66015625 l 1,21,-1
 318.984375 484.54296875 l 2,22,23
 318.991210938 369.115234375 318.991210938 369.115234375 370.501953125 317.250976562 c 128,-1,24
 422.01171875 265.38671875 422.01171875 265.38671875 536.615234375 265.200195312 c 2,25,-1
 1275.13671875 264 l 2,26,27
 1344.75292969 263.787109375 1344.75292969 263.787109375 1399.09960938 270.724609375 c 128,-1,28
 1453.44628906 277.661132812 1453.44628906 277.661132812 1486.89941406 289.916015625 c 128,-1,29
 1520.35253906 302.169921875 1520.35253906 302.169921875 1539.3828125 316.715820312 c 128,-1,30
 1558.41210938 331.260742188 1558.41210938 331.260742188 1564.67871094 348.250976562 c 1,31,32
 1516.45800781 346.109375 1516.45800781 346.109375 1468.84277344 346.33984375 c 0,33,34
 1431.10839844 346.454101562 1431.10839844 346.454101562 1397.69238281 348.822265625 c 128,-1,35
 1364.27539062 351.19140625 1364.27539062 351.19140625 1333.31835938 356.055664062 c 128,-1,36
 1302.36035156 360.919921875 1302.36035156 360.919921875 1275.4765625 368.618164062 c 128,-1,37
 1248.59375 376.31640625 1248.59375 376.31640625 1225.04492188 386.85546875 c 128,-1,38
 1201.49609375 397.39453125 1201.49609375 397.39453125 1181.703125 411.36328125 c 128,-1,39
 1161.91113281 425.33203125 1161.91113281 425.33203125 1146.25488281 442.500976562 c 0,40,41
 1107.25683594 485.551757812 1107.25683594 485.551757812 1089.11914062 549.580078125 c 128,-1,42
 1070.98242188 613.608398438 1070.98242188 613.608398438 1070.96191406 698.30859375 c 0,43,44
 1070.98242188 885.130859375 1070.98242188 885.130859375 1169.45214844 984.655273438 c 128,-1,45
 1267.92089844 1084.17871094 1267.92089844 1084.17871094 1453.33691406 1084.38964844 c 0,0,1
1464 603 m 0,46,47
 1473.29589844 603 1473.29589844 603 1482.42480469 603.09765625 c 128,-1,48
 1491.55371094 603.1953125 1491.55371094 603.1953125 1500.32519531 603.385742188 c 128,-1,49
 1509.09667969 603.577148438 1509.09667969 603.577148438 1517.63476562 603.859375 c 128,-1,50
 1526.171875 604.142578125 1526.171875 604.142578125 1534.32617188 604.51171875 c 128,-1,51
 1542.48046875 604.880859375 1542.48046875 604.880859375 1550.33105469 605.336914062 c 128,-1,52
 1558.18066406 605.79296875 1558.18066406 605.79296875 1565.62207031 606.328125 c 128,-1,53
 1573.06347656 606.864257812 1573.06347656 606.864257812 1580.13378906 607.481445312 c 1,54,-1
 1580 718.475585938 l 2,55,56
 1580 758.751953125 1580 758.751953125 1568.28417969 782.471679688 c 128,-1,57
 1556.56835938 806.192382812 1556.56835938 806.192382812 1529.28515625 817.739257812 c 128,-1,58
 1502.00195312 829.287109375 1502.00195312 829.287109375 1454.95996094 829.401367188 c 0,59,60
 1404.65332031 829.286132812 1404.65332031 829.286132812 1375.13671875 816.6875 c 128,-1,61
 1345.62011719 804.08984375 1345.62011719 804.08984375 1332.74902344 778.248046875 c 128,-1,62
 1319.87792969 752.40625 1319.87792969 752.40625 1319.83300781 708.9921875 c 0,63,64
 1319.89648438 653.405273438 1319.89648438 653.405273438 1351.64941406 628.203125 c 128,-1,65
 1383.40234375 603 1383.40234375 603 1464 603 c 0,46,47
EndSplineSet
Substitution2: "'init' Initial Forms in Arabic lookup 13 subtable" uni06A1.init
Substitution2: "'medi' Medial Forms in Arabic lookup 11 subtable" uni06A1.medi
Substitution2: "'fina' Terminal Forms in Arabic lookup 9 subtable" uni06A1.fina
EndChar

StartChar: uni06A9
Encoding: 1705 1705 81
Width: 1855
VWidth: 2593
GlyphClass: 2
Flags: W
AnchorPoint: "Anchor-10" 599.382 1395.15 basechar 0
AnchorPoint: "Anchor-7" 849.692 -190.794 basechar 0
LayerCount: 2
Fore
SplineSet
536.642578125 265.200195312 m 2,0,-1
 1260.28027344 264.096679688 l 2,1,2
 1468.00976562 264.015625 1468.00976562 264.015625 1468.03222656 355.858398438 c 0,3,4
 1468.02441406 369.391601562 1468.02441406 369.391601562 1442.1953125 412.006835938 c 128,-1,5
 1416.3671875 454.622070312 1416.3671875 454.622070312 1366.89550781 511.04296875 c 2,6,-1
 1046.2734375 876.697265625 l 2,7,8
 987.826171875 943.100585938 987.826171875 943.100585938 988.948242188 1040.91113281 c 0,9,10
 989.36328125 1088.72558594 989.36328125 1088.72558594 1006.42285156 1127.82519531 c 128,-1,11
 1023.48144531 1166.92578125 1023.48144531 1166.92578125 1055.87890625 1194.86816406 c 128,-1,12
 1088.27636719 1222.81152344 1088.27636719 1222.81152344 1134.08886719 1237.89648438 c 2,13,-1
 1761.31347656 1444.42871094 l 1,14,-1
 1813.82421875 1461.71972656 l 1,15,-1
 1813.82421875 1406.43554688 l 1,16,-1
 1813.82421875 1222.04296875 l 1,17,-1
 1813.82421875 1193.02929688 l 1,18,-1
 1786.24511719 1184.02050781 l 1,19,-1
 1274.67089844 1016.90917969 l 1,20,-1
 1554.31835938 698.9921875 l 2,21,22
 1634.54589844 607.806640625 1634.54589844 607.806640625 1676.13085938 523.673828125 c 128,-1,23
 1717.71484375 439.541015625 1717.71484375 439.541015625 1718.66015625 360.544921875 c 0,24,25
 1721.21582031 115.421875 1721.21582031 115.421875 1495.85839844 35.224609375 c 0,26,27
 1396.18945312 0.1669921875 1396.18945312 0.1669921875 1258.75585938 0 c 2,28,-1
 533.758789062 -0.0966796875 l 2,29,30
 302.561523438 -0.044921875 302.561523438 -0.044921875 181.395507812 124.0703125 c 128,-1,31
 60.228515625 248.185546875 60.228515625 248.185546875 60.2275390625 483.977539062 c 2,32,-1
 60.2265625 696.66015625 l 1,33,-1
 60.2265625 736.66015625 l 1,34,-1
 100.2265625 736.66015625 l 1,35,-1
 278.984375 736.66015625 l 1,36,-1
 318.984375 736.66015625 l 1,37,-1
 318.984375 696.66015625 l 1,38,-1
 318.984375 484.54296875 l 2,39,40
 318.991210938 369.30859375 318.991210938 369.30859375 370.501953125 317.432617188 c 128,-1,41
 422.012695312 265.555664062 422.012695312 265.555664062 536.642578125 265.200195312 c 2,0,-1
EndSplineSet
Substitution2: "'init' Initial Forms in Arabic lookup 13 subtable" uniFB90
Substitution2: "'medi' Medial Forms in Arabic lookup 11 subtable" uniFB91
Substitution2: "'fina' Terminal Forms in Arabic lookup 9 subtable" uniFB8F
EndChar

StartChar: afii57514
Encoding: 1722 1722 83
Width: 1442
VWidth: 2593
GlyphClass: 2
Flags: W
AnchorPoint: "Anchor-10" 597.158 965.159 basechar 0
AnchorPoint: "Anchor-7" 701.132 -666.307 basechar 0
LayerCount: 2
Fore
SplineSet
1369.5625 93.00390625 m 2,0,1
 1363.80566406 -174.979492188 1363.80566406 -174.979492188 1205.02636719 -312.975585938 c 128,-1,2
 1046.24609375 -450.971679688 1046.24609375 -450.971679688 748.819335938 -450.940429688 c 2,3,-1
 694.1015625 -450.940429688 l 2,4,5
 384.456054688 -450.940429688 384.456054688 -450.940429688 222.840820312 -299.901367188 c 128,-1,6
 61.224609375 -148.86328125 61.224609375 -148.86328125 61.12109375 143.262695312 c 2,7,-1
 61 485.986328125 l 1,8,-1
 60.986328125 525.9921875 l 1,9,-1
 100.9921875 526 l 1,10,-1
 281.870117188 526.033203125 l 1,11,-1
 321.877929688 526.041015625 l 1,12,-1
 321.877929688 486.033203125 l 1,13,-1
 321.877929688 144.462890625 l 2,14,15
 321.93359375 -24.9326171875 321.93359375 -24.9326171875 411.88671875 -105.286132812 c 128,-1,16
 501.83984375 -185.639648438 501.83984375 -185.639648438 696.272460938 -185.639648438 c 2,17,-1
 747.403320312 -185.639648438 l 2,18,19
 943.9609375 -185.810546875 943.9609375 -185.810546875 1033.1015625 -118.243164062 c 128,-1,20
 1122.24316406 -50.67578125 1122.24316406 -50.67578125 1122.16210938 88.5341796875 c 2,21,-1
 1121.81445312 684.794921875 l 1,22,-1
 1121.79101562 724.797851562 l 1,23,-1
 1161.79394531 724.818359375 l 1,24,-1
 1342.24707031 724.911132812 l 1,25,-1
 1383.13671875 724.932617188 l 1,26,-1
 1382.25878906 684.051757812 l 1,27,-1
 1369.5625 93.00390625 l 2,0,1
EndSplineSet
Substitution2: "'init' Initial Forms in Arabic lookup 13 subtable" uni06BA.init
Substitution2: "'medi' Medial Forms in Arabic lookup 11 subtable" uni06BA.medi
Substitution2: "'fina' Terminal Forms in Arabic lookup 9 subtable" uniFB9F
EndChar

StartChar: uni06F4
Encoding: 1780 1780 90
Width: 1146
VWidth: 2593
GlyphClass: 2
Flags: W
LayerCount: 2
Fore
SplineSet
484.009765625 638.915039062 m 5,0,1
 518.46107452 298.443342239 518.46107452 298.443342239 518.8515625 51.9853515625 c 2,2,-1
 518.864257812 43.97265625 l 1,3,-1
 518.927734375 3.9091796875 l 1,4,-1
 478.864257812 3.9091796875 l 1,5,-1
 304.094726562 3.9091796875 l 1,6,-1
 264.1875 3.9091796875 l 1,7,-1
 264.094726562 43.81640625 l 1,8,-1
 264.076171875 51.76953125 l 2,9,10
 263.001641821 642.09801166 263.001641821 642.09801166 124.966796875 1230.32617188 c 6,11,-1
 116.435546875 1266.68164062 l 5,12,-1
 152.120117188 1277.68847656 l 5,13,-1
 319.2109375 1329.22363281 l 5,14,-1
 361.0078125 1342.11425781 l 5,15,-1
 370.122070312 1299.33496094 l 6,16,17
 380 1253 380 1253 388.919921875 1207.94628906 c 132,-1,18
 398 1163 398 1163 405.239257812 1122.04785156 c 5,19,20
 437 1192 437 1192 488.846679688 1240.37304688 c 4,21,22
 541 1289 541 1289 610.924804688 1313.39941406 c 4,23,24
 681 1338 681 1338 767.776367188 1340.98144531 c 4,25,26
 821 1343 821 1343 875.004882812 1331.33398438 c 4,27,28
 928.343669505 1320.13776875 928.343669505 1320.13776875 981.349609375 1296.14746094 c 6,29,-1
 1004.85546875 1285.50878906 l 5,30,-1
 1004.85546875 1259.70703125 l 5,31,-1
 1004.85546875 1111.29589844 l 5,32,-1
 1004.85546875 1060.17285156 l 5,33,-1
 955.233398438 1072.47070312 l 6,34,35
 899 1086 899 1086 859.208007812 1093.81640625 c 4,36,37
 819 1101 819 1101 803.688476562 1101.49316406 c 4,38,39
 696 1102 696 1102 638.276367188 1043.31347656 c 4,40,41
 577 982 577 982 577 878 c 4,42,43
 577 871 577 871 581.462890625 864.111328125 c 4,44,45
 586 857 586 857 599.240234375 848.663085938 c 4,46,47
 613 840 613 840 633.366210938 833.635742188 c 4,48,49
 654 827 654 827 690.548828125 821.9921875 c 132,-1,50
 727 817 727 817 773.819335938 815.711914062 c 4,51,52
 868.549675688 813.012830766 868.549675688 813.012830766 1004.46484375 844.03125 c 6,53,-1
 1052.59570312 855.015625 l 5,54,-1
 1053.36035156 805.653320312 l 5,55,-1
 1055.85058594 644.915039062 l 5,56,-1
 1056.34472656 613 l 5,57,-1
 1025.33496094 605.435546875 l 6,58,59
 681 521 681 521 484.009765625 638.915039062 c 5,0,1
EndSplineSet
EndChar

StartChar: uni06F5
Encoding: 1781 1781 91
Width: 1285
VWidth: 2593
GlyphClass: 2
Flags: W
LayerCount: 2
Fore
SplineSet
428.8359375 271.653320312 m 4,0,1
 520.70260999 272.13417429 520.70260999 272.13417429 538.610351562 462.265625 c 2,2,-1
 542.024414062 498.513671875 l 1,3,-1
 578.43359375 498.513671875 l 1,4,-1
 711.314453125 498.513671875 l 1,5,-1
 749.655273438 498.513671875 l 1,6,-1
 751.278320312 460.208007812 l 2,7,8
 756 356 756 356 786.094726562 312.025390625 c 128,-1,9
 816 268 816 268 872.826171875 267.560546875 c 0,10,11
 966 266 966 266 961.333984375 386.630859375 c 0,12,13
 956 536 956 536 641.078125 902.336914062 c 1,14,15
 352 558 352 558 338.139648438 381.694335938 c 0,16,17
 329 270 329 270 428.8359375 271.653320312 c 4,0,1
410.333984375 -0.4072265625 m 0,18,19
 250 -0 250 -0 164.874023438 93.1611328125 c 0,20,21
 80 187 80 187 80.068359375 358.860351562 c 0,22,23
 80 615 80 615 474.86328125 1081.36328125 c 1,24,25
 474 1082 474 1082 448.7890625 1108.95117188 c 2,26,-1
 423.772460938 1135.24707031 l 1,27,-1
 447.520507812 1162.69433594 l 1,28,-1
 569.520507812 1303.69433594 l 1,29,-1
 601.094726562 1340.18554688 l 1,30,-1
 631.09765625 1302.39257812 l 2,31,32
 656 1271 656 1271 721.796875 1201.16503906 c 0,33,34
 1203 681 1203 681 1204.93261719 385.727539062 c 0,35,36
 1206 201 1206 201 1123.84667969 100.626953125 c 0,37,38
 1042 0 1042 0 884.3671875 0.021484375 c 0,39,40
 717 0 717 0 639.896484375 116.004882812 c 1,41,42
 615 77 615 77 579.938476562 51.3330078125 c 0,43,44
 545 25 545 25 502.53125 12.486328125 c 128,-1,45
 460 -0 460 -0 410.333984375 -0.4072265625 c 0,18,19
EndSplineSet
EndChar

StartChar: uni06F6
Encoding: 1782 1782 92
Width: 1030
VWidth: 2593
GlyphClass: 2
Flags: W
LayerCount: 2
Fore
SplineSet
345.874023438 931.962890625 m 0,0,1
 346 866 346 866 383.413085938 829.555664062 c 0,2,3
 417 796 417 796 506.50390625 781.30078125 c 0,4,5
 532 777 532 777 554.1328125 779.150390625 c 0,6,7
 576 781 576 781 593.774414062 787.03125 c 0,8,9
 611 793 611 793 626.891601562 804.163085938 c 0,10,11
 707 861 707 861 786.865234375 917.34765625 c 2,12,-1
 822.896484375 942.892578125 l 1,13,-1
 844.756835938 904.514648438 l 1,14,-1
 934.756835938 746.514648438 l 1,15,-1
 954.537109375 711.7890625 l 1,16,17
 625 464 625 464 386.758789062 -13.626953125 c 1,18,-1
 350.486328125 4.0380859375 l 1,19,-1
 196.486328125 79.0380859375 l 1,20,-1
 162.259765625 95.70703125 l 1,21,22
 279 331 279 331 454.063476562 549.66015625 c 1,23,24
 182 589 182 589 114.536132812 787.657226562 c 0,25,26
 93 851 93 851 92.8466796875 926.3828125 c 0,27,28
 93 1012 93 1012 120.184570312 1086.3515625 c 0,29,30
 147 1160 147 1160 201.390625 1219.61035156 c 0,31,32
 320.223956756 1349.92171381 320.223956756 1349.92171381 504.375 1349.96679688 c 4,33,34
 640 1350 640 1350 756.6640625 1283.59179688 c 5,35,-1
 756.526367188 1261.046875 l 1,36,-1
 755.526367188 1096.47363281 l 1,37,-1
 755.129882812 1051.14355469 l 1,38,39
 669 1096 669 1096 539.723632812 1100.30761719 c 0,40,41
 520 1101 520 1101 502.537109375 1098.50097656 c 128,-1,42
 485 1096 485 1096 470.329101562 1092.53320312 c 0,43,44
 456 1089 456 1089 442.609375 1082.61132812 c 0,45,46
 392 1059 392 1059 368.594726562 1023.46777344 c 0,47,48
 346 987 346 987 345.874023438 931.962890625 c 0,0,1
EndSplineSet
EndChar

StartChar: uniFB8F
Encoding: 64399 64399 107
Width: 2022
VWidth: 2593
GlyphClass: 2
Flags: W
AnchorPoint: "Anchor-7" 849.692 -190.794 basechar 0
AnchorPoint: "Anchor-10" 599.382 1395.15 basechar 0
LayerCount: 2
Fore
SplineSet
1259.15429688 0.3837890625 m 2,0,-1
 533.776367188 -0.0966796875 l 2,1,2
 379.984375 -0.0625 379.984375 -0.0625 274.0703125 55.4462890625 c 128,-1,3
 168.155273438 110.955078125 168.155273438 110.955078125 114.192382812 219.10546875 c 128,-1,4
 60.228515625 327.255859375 60.228515625 327.255859375 60.2275390625 483.977539062 c 2,5,-1
 60.2265625 696.66015625 l 1,6,-1
 60.2265625 736.66015625 l 1,7,-1
 100.2265625 736.66015625 l 1,8,-1
 278.984375 736.66015625 l 1,9,-1
 318.984375 736.66015625 l 1,10,-1
 318.984375 696.66015625 l 1,11,-1
 318.984375 484.54296875 l 2,12,13
 318.991210938 368.479492188 318.991210938 368.479492188 370.520507812 316.396484375 c 128,-1,14
 422.049804688 264.314453125 422.049804688 264.314453125 536.58984375 264.200195312 c 2,15,-1
 1260.65429688 263.48046875 l 2,16,17
 1320.1171875 263.364257812 1320.1171875 263.364257812 1361.87109375 270.396484375 c 128,-1,18
 1403.62402344 277.4296875 1403.62402344 277.4296875 1426.14648438 290.716796875 c 128,-1,19
 1448.66796875 304.004882812 1448.66796875 304.004882812 1458.41992188 319.969726562 c 128,-1,20
 1468.171875 335.934570312 1468.171875 335.934570312 1468.38769531 356.685546875 c 0,21,22
 1468.45019531 362.088867188 1468.45019531 362.088867188 1462.80566406 374.907226562 c 128,-1,23
 1457.16210938 387.724609375 1457.16210938 387.724609375 1445.95898438 406.87890625 c 128,-1,24
 1434.75585938 426.032226562 1434.75585938 426.032226562 1414.08984375 453.803710938 c 128,-1,25
 1393.42285156 481.575195312 1393.42285156 481.575195312 1367.24902344 511.426757812 c 2,26,-1
 1046.58496094 877.12890625 l 2,27,28
 988.9453125 943.0390625 988.9453125 943.0390625 989.30078125 1041.24511719 c 0,29,30
 989.975585938 1089.27636719 989.975585938 1089.27636719 1007.08203125 1128.38671875 c 128,-1,31
 1024.18945312 1167.49804688 1024.18945312 1167.49804688 1056.48339844 1195.37011719 c 128,-1,32
 1088.77636719 1223.24316406 1088.77636719 1223.24316406 1134.44238281 1238.28027344 c 2,33,-1
 1761.66699219 1444.8125 l 1,34,-1
 1814.17773438 1462.10351562 l 1,35,-1
 1814.17773438 1406.81933594 l 1,36,-1
 1814.17773438 1222.42675781 l 1,37,-1
 1814.17773438 1193.41308594 l 1,38,-1
 1786.59863281 1184.40429688 l 1,39,-1
 1274.99121094 1017.28222656 l 1,40,-1
 1808.140625 410.51171875 l 2,41,42
 1851.78808594 360.831054688 1851.78808594 360.831054688 1891.52246094 327.004882812 c 128,-1,43
 1931.2578125 293.178710938 1931.2578125 293.178710938 1958.61035156 279.012695312 c 128,-1,44
 1985.96289062 264.845703125 1985.96289062 264.845703125 2005.01464844 264.47265625 c 2,45,-1
 2029.13769531 264 l 2,46,47
 2039.14941406 264 2039.14941406 264 2049.36425781 259.626953125 c 128,-1,48
 2059.57910156 255.25390625 2059.57910156 255.25390625 2066.625 248.366210938 c 0,49,50
 2079.52441406 235.756835938 2079.52441406 235.756835938 2085.82617188 215.952148438 c 128,-1,51
 2092.12792969 196.147460938 2092.12792969 196.147460938 2092.93652344 182.047851562 c 128,-1,52
 2093.74609375 167.948242188 2093.74609375 167.948242188 2093.74609375 139 c 2,53,-1
 2093.74609375 128.057617188 l 2,54,55
 2093.75292969 125.828125 2093.75292969 125.828125 2093.79003906 121.037109375 c 0,56,57
 2093.91308594 105.35546875 2093.91308594 105.35546875 2093.61230469 96.212890625 c 128,-1,58
 2093.3125 87.0703125 2093.3125 87.0703125 2091.80957031 70.4052734375 c 128,-1,59
 2090.30664062 53.7412109375 2090.30664062 53.7412109375 2086.08300781 43.427734375 c 128,-1,60
 2081.859375 33.1142578125 2081.859375 33.1142578125 2075.08007812 21.9833984375 c 128,-1,61
 2068.30078125 10.8525390625 2068.30078125 10.8525390625 2056.43945312 5.4267578125 c 128,-1,62
 2044.578125 0 2044.578125 0 2028.74609375 0 c 2,63,-1
 2014.12792969 0 l 2,64,65
 1818.40820312 0 1818.40820312 0 1671.11621094 167.310546875 c 1,66,67
 1568.15429688 0.951171875 1568.15429688 0.951171875 1259.15429688 0.3837890625 c 2,0,-1
EndSplineSet
EndChar

StartChar: uniFB9F
Encoding: 64415 64415 115
Width: 1590
VWidth: 2593
GlyphClass: 2
Flags: W
AnchorPoint: "Anchor-7" 691 -625.5 basechar 0
AnchorPoint: "Anchor-10" 644.402 847.573 basechar 0
LayerCount: 2
Fore
SplineSet
1594.9765625 0 m 2,0,-1
 1557.31738281 0 l 2,1,2
 1499.70898438 0 1499.70898438 0 1452.4609375 9.4541015625 c 128,-1,3
 1405.21386719 18.9091796875 1405.21386719 18.9091796875 1367.86816406 38.6923828125 c 1,4,5
 1357.3046875 -123.23046875 1357.3046875 -123.23046875 1282.16699219 -232.875 c 128,-1,6
 1207.02929688 -342.520507812 1207.02929688 -342.520507812 1072.98632812 -396.73046875 c 128,-1,7
 938.943359375 -450.940429688 938.943359375 -450.940429688 748.819335938 -450.940429688 c 2,8,-1
 694.10546875 -450.940429688 l 2,9,10
 265.05078125 -450.983398438 265.05078125 -450.983398438 124.508789062 -166.520507812 c 0,11,12
 61.390625 -37.5927734375 61.390625 -37.5927734375 61.12109375 143.262695312 c 2,13,-1
 61 485.986328125 l 1,14,-1
 60.986328125 525.9921875 l 1,15,-1
 100.9921875 526 l 1,16,-1
 281.870117188 526.033203125 l 1,17,-1
 321.877929688 526.041015625 l 1,18,-1
 321.877929688 486.033203125 l 1,19,-1
 321.877929688 144.462890625 l 2,20,21
 321.93359375 -24.9326171875 321.93359375 -24.9326171875 411.88671875 -105.286132812 c 128,-1,22
 501.83984375 -185.639648438 501.83984375 -185.639648438 696.272460938 -185.639648438 c 2,23,-1
 747.403320312 -185.639648438 l 2,24,25
 943.9609375 -185.810546875 943.9609375 -185.810546875 1033.1015625 -118.243164062 c 128,-1,26
 1122.24316406 -50.67578125 1122.24316406 -50.67578125 1122.16210938 88.5341796875 c 2,27,-1
 1121.81445312 684.794921875 l 1,28,-1
 1121.79101562 724.797851562 l 1,29,-1
 1161.79394531 724.818359375 l 1,30,-1
 1342.24707031 724.911132812 l 1,31,-1
 1382.26757812 724.931640625 l 1,32,-1
 1382.26757812 684.911132812 l 1,33,-1
 1382.26757812 459.272460938 l 2,34,35
 1382.1875 389.225585938 1382.1875 389.225585938 1401.46875 346.426757812 c 128,-1,36
 1420.74902344 303.627929688 1420.74902344 303.627929688 1460.90136719 283.813476562 c 128,-1,37
 1501.05371094 264 1501.05371094 264 1566.40722656 264 c 2,38,-1
 1594.9765625 264 l 2,39,40
 1605.49316406 264 1605.49316406 264 1615.59082031 259.685546875 c 128,-1,41
 1625.68847656 255.372070312 1625.68847656 255.372070312 1632.85546875 248.366210938 c 0,42,43
 1645.75488281 235.756835938 1645.75488281 235.756835938 1652.05664062 215.952148438 c 128,-1,44
 1658.35839844 196.147460938 1658.35839844 196.147460938 1659.16699219 182.047851562 c 128,-1,45
 1659.9765625 167.948242188 1659.9765625 167.948242188 1659.9765625 139 c 2,46,-1
 1659.9765625 128.010742188 l 2,47,48
 1659.97753906 125.665039062 1659.97753906 125.665039062 1660.00683594 120.608398438 c 0,49,50
 1659.80273438 113.134765625 1659.80273438 113.134765625 1660.0078125 104.780273438 c 128,-1,51
 1660.21289062 96.4248046875 1660.21289062 96.4248046875 1659.4765625 87.4833984375 c 128,-1,52
 1658.74023438 78.5419921875 1658.74023438 78.5419921875 1657.8671875 69.6083984375 c 128,-1,53
 1656.99316406 60.6748046875 1656.99316406 60.6748046875 1654.6328125 52.0439453125 c 128,-1,54
 1652.27148438 43.4130859375 1652.27148438 43.4130859375 1649.22753906 35.6796875 c 128,-1,55
 1646.18261719 27.9453125 1646.18261719 27.9453125 1641.10546875 21.4033203125 c 128,-1,56
 1636.02734375 14.861328125 1636.02734375 14.861328125 1629.71972656 10.10546875 c 128,-1,57
 1623.41210938 5.3486328125 1623.41210938 5.3486328125 1614.52636719 2.6748046875 c 128,-1,58
 1605.63964844 0 1605.63964844 0 1594.9765625 0 c 2,0,-1
EndSplineSet
EndChar

StartChar: uniFBE8
Encoding: 64488 64488 118
Width: 687
VWidth: 2593
GlyphClass: 2
Flags: W
AnchorPoint: "Anchor-10" 379.938 1260.35 basechar 0
AnchorPoint: "Anchor-7" 417.497 -102.32 basechar 0
LayerCount: 2
Fore
SplineSet
-5.03515625 0 m 2,0,1
 -58.8662109375 0 -58.8662109375 0 -89.4443359375 35.8935546875 c 128,-1,2
 -120.0234375 71.787109375 -120.0234375 71.787109375 -120.0234375 128 c 2,3,-1
 -120.0234375 139.010742188 l 2,4,5
 -120.0078125 194.059570312 -120.0078125 194.059570312 -89.2333984375 229.000976562 c 128,-1,6
 -58.458984375 263.942382812 -58.458984375 263.942382812 -5.06640625 264 c 2,7,-1
 207.598632812 264.23046875 l 2,8,9
 241.53515625 264.19140625 241.53515625 264.19140625 267.122070312 270.373046875 c 128,-1,10
 292.709960938 276.5546875 292.709960938 276.5546875 312.01171875 289.8203125 c 128,-1,11
 331.3125 303.0859375 331.3125 303.0859375 343.440429688 324.399414062 c 128,-1,12
 355.567382812 345.712890625 355.567382812 345.712890625 361.56640625 375.391601562 c 128,-1,13
 367.56640625 405.0703125 367.56640625 405.0703125 367.56640625 444.623046875 c 2,14,-1
 367.56640625 730.689453125 l 1,15,-1
 367.56640625 770.689453125 l 1,16,-1
 407.56640625 770.689453125 l 1,17,-1
 586.322265625 770.689453125 l 1,18,-1
 626.322265625 770.689453125 l 1,19,-1
 626.322265625 730.689453125 l 1,20,-1
 626.322265625 450.45703125 l 2,21,22
 626.151367188 232.541015625 626.151367188 232.541015625 523.135742188 116.208984375 c 128,-1,23
 420.119140625 -0.1240234375 420.119140625 -0.1240234375 222.676757812 -0.06640625 c 2,24,-1
 -5.03515625 0 l 2,0,1
EndSplineSet
EndChar

StartChar: uniFBE9
Encoding: 64489 64489 119
Width: 847
VWidth: 2593
GlyphClass: 2
Flags: W
AnchorPoint: "Anchor-10" 379.939 1166.45 basechar 0
AnchorPoint: "Anchor-7" 358.812 -107.016 basechar 0
LayerCount: 2
Fore
SplineSet
852.2265625 0 m 2,0,-1
 831.33203125 0 l 2,1,2
 765.486328125 0 765.486328125 0 708.806640625 13.7626953125 c 128,-1,3
 652.126953125 27.5263671875 652.126953125 27.5263671875 604.41015625 55.7099609375 c 128,-1,4
 556.692382812 83.89453125 556.692382812 83.89453125 520.07421875 126.034179688 c 1,5,6
 392.751953125 0.34375 392.751953125 0.34375 166.1484375 -0 c 2,7,-1
 -5.0234375 0 l 2,8,9
 -40.96484375 0 -40.96484375 0 -67.34765625 16.9580078125 c 128,-1,10
 -93.7314453125 33.916015625 -93.7314453125 33.916015625 -106.876953125 62.619140625 c 128,-1,11
 -120.0234375 91.3232421875 -120.0234375 91.3232421875 -120.0234375 128 c 2,12,-1
 -120.0234375 139.010742188 l 2,13,14
 -120.013671875 175.020507812 -120.013671875 175.020507812 -106.654296875 203.122070312 c 128,-1,15
 -93.294921875 231.224609375 -93.294921875 231.224609375 -66.953125 247.612304688 c 128,-1,16
 -40.6123046875 264 -40.6123046875 264 -5.0234375 264 c 2,17,-1
 171.162109375 264 l 2,18,19
 284.810546875 264 284.810546875 264 333.741210938 305.534179688 c 128,-1,20
 382.671875 347.069335938 382.671875 347.069335938 382.671875 437.358398438 c 2,21,-1
 382.671875 687.372070312 l 1,22,-1
 382.671875 727.372070312 l 1,23,-1
 422.671875 727.372070312 l 1,24,-1
 607.15625 727.372070312 l 1,25,-1
 647.15625 727.372070312 l 1,26,-1
 647.15625 687.372070312 l 1,27,-1
 647.15625 437.3515625 l 2,28,29
 647.088867188 345.39453125 647.088867188 345.39453125 689.66015625 304.697265625 c 128,-1,30
 732.231445312 264 732.231445312 264 830.405273438 264 c 2,31,-1
 852.2265625 264 l 2,32,33
 859.266601562 264 859.266601562 264 866.368164062 261.953125 c 128,-1,34
 873.470703125 259.90625 873.470703125 259.90625 879.448242188 256.423828125 c 128,-1,35
 885.424804688 252.94140625 885.424804688 252.94140625 890.10546875 248.366210938 c 0,36,37
 903.004882812 235.756835938 903.004882812 235.756835938 909.306640625 215.952148438 c 128,-1,38
 915.608398438 196.147460938 915.608398438 196.147460938 916.416992188 182.047851562 c 128,-1,39
 917.2265625 167.948242188 917.2265625 167.948242188 917.2265625 139 c 2,40,-1
 917.2265625 127.948242188 l 2,41,42
 917.219726562 125.48046875 917.219726562 125.48046875 917.239257812 120.139648438 c 0,43,44
 917.294921875 104.462890625 917.294921875 104.462890625 916.958984375 95.3583984375 c 128,-1,45
 916.623046875 86.2548828125 916.623046875 86.2548828125 915.061523438 69.7060546875 c 128,-1,46
 913.5 53.1572265625 913.5 53.1572265625 909.26953125 42.9541015625 c 128,-1,47
 905.0390625 32.7509765625 905.0390625 32.7509765625 898.266601562 21.732421875 c 128,-1,48
 891.494140625 10.71484375 891.494140625 10.71484375 879.711914062 5.357421875 c 128,-1,49
 867.9296875 0 867.9296875 0 852.2265625 0 c 2,0,-1
EndSplineSet
EndChar

StartChar: uniFE73
Encoding: 65139 65139 127
Width: 683
VWidth: 2593
GlyphClass: 2
Flags: W
AnchorPoint: "Anchor-10" 252.404 1530.29 basechar 0
AnchorPoint: "Anchor-7" 252.404 -102.32 basechar 0
LayerCount: 2
Fore
SplineSet
382.298828125 440.2109375 m 2,0,1
 382.298828125 377.083984375 382.298828125 377.083984375 436.491210938 322.892578125 c 128,-1,2
 490.682617188 268.700195312 490.682617188 268.700195312 609.067382812 268.700195312 c 2,3,-1
 677.61328125 268.700195312 l 1,4,-1
 717.61328125 268.700195312 l 1,5,-1
 717.61328125 228.700195312 l 1,6,-1
 717.61328125 48.9091796875 l 1,7,-1
 717.61328125 8.9091796875 l 1,8,-1
 677.61328125 8.9091796875 l 1,9,-1
 539.997070312 8.9091796875 l 2,10,11
 355.719726562 8.9091796875 355.719726562 8.9091796875 239.114257812 125.513671875 c 128,-1,12
 122.509765625 242.119140625 122.509765625 242.119140625 122.509765625 425.141601562 c 2,13,-1
 122.509765625 453.498046875 l 1,14,-1
 122.509765625 493.498046875 l 1,15,-1
 162.509765625 493.498046875 l 1,16,-1
 342.298828125 493.498046875 l 1,17,-1
 382.298828125 493.498046875 l 1,18,-1
 382.298828125 453.498046875 l 1,19,-1
 382.298828125 440.2109375 l 2,0,1
EndSplineSet
EndChar

StartChar: uniFE8E
Encoding: 65166 65166 153
Width: 551
VWidth: 2593
GlyphClass: 2
Flags: W
AnchorPoint: "Anchor-10" 250.923 1543.04 basechar 0
AnchorPoint: "Anchor-7" 277.009 -204.554 basechar 0
LayerCount: 2
Fore
SplineSet
556.901367188 0 m 2,0,-1
 531.231445312 0 l 2,1,2
 331 0 331 0 226.918945312 118.02734375 c 0,3,4
 122.69140625 236.350327116 122.69140625 236.350327116 122.69140625 457.251953125 c 2,5,-1
 122.69140625 1327.18847656 l 1,6,-1
 122.69140625 1367.18847656 l 1,7,-1
 162.69140625 1367.18847656 l 1,8,-1
 336 1367.18847656 l 1,9,-1
 376 1367.18847656 l 1,10,-1
 376 1327.18847656 l 1,11,-1
 376 466.139648438 l 2,12,13
 376 357 376 357 413.966796875 310.387695312 c 0,14,15
 452 264 452 264 534.014648438 264 c 2,16,-1
 556.901367188 264 l 2,17,18
 579 264 579 264 594.780273438 248.366210938 c 0,19,20
 608 236 608 236 613.981445312 215.952148438 c 128,-1,21
 620 196 620 196 621.091796875 182.047851562 c 0,22,23
 621.901367188 169.52562689 621.901367188 169.52562689 621.901367188 139 c 2,24,-1
 621.901367188 128.022460938 l 2,25,26
 622 126 622 126 621.935546875 120.745117188 c 0,27,28
 622 105 622 105 621.724609375 95.9345703125 c 0,29,30
 621 87 621 87 619.890625 70.177734375 c 0,31,32
 618 54 618 54 614.142578125 43.2734375 c 0,33,34
 610 33 610 33 603.139648438 21.9013671875 c 0,35,36
 596 11 596 11 584.52734375 5.4033203125 c 128,-1,37
 573 0 573 0 556.901367188 0 c 2,0,-1
EndSplineSet
EndChar

StartChar: uniFEA2
Encoding: 65186 65186 173
Width: 1359
VWidth: 2593
GlyphClass: 2
Flags: W
AnchorPoint: "Anchor-7" 471.334 -793.653 basechar 0
AnchorPoint: "Anchor-10" 631.761 1315.94 basechar 0
LayerCount: 2
Fore
SplineSet
315.6875 -137.952148438 m 0,0,1
 315.3203125 -211.28125 315.3203125 -211.28125 342.809570312 -265.817382812 c 128,-1,2
 370.298828125 -320.354492188 370.298828125 -320.354492188 428.75 -358.6328125 c 128,-1,3
 487.201171875 -396.91015625 487.201171875 -396.91015625 581.034179688 -416.081054688 c 128,-1,4
 674.8671875 -435.251953125 674.8671875 -435.251953125 804.451171875 -435.172851562 c 2,5,-1
 1218.30566406 -434.918945312 l 1,6,-1
 1258.33007812 -434.89453125 l 1,7,-1
 1258.33007812 -474.918945312 l 1,8,-1
 1258.33007812 -655.474609375 l 1,9,-1
 1258.33007812 -695.55859375 l 1,10,-1
 1218.24609375 -695.474609375 l 1,11,-1
 792.388671875 -694.58203125 l 2,12,13
 385.908203125 -693.975585938 385.908203125 -693.975585938 213.340820312 -528.677734375 c 0,14,15
 56.755859375 -377.767578125 56.755859375 -377.767578125 60.1123046875 -143.14453125 c 0,16,17
 61.6083984375 -8.9169921875 61.6083984375 -8.9169921875 115.327148438 100.31640625 c 128,-1,18
 169.044921875 209.55078125 169.044921875 209.55078125 272.673828125 291.715820312 c 128,-1,19
 376.302734375 373.880859375 376.302734375 373.880859375 526.09765625 430.779296875 c 128,-1,20
 675.892578125 487.676757812 675.892578125 487.676757812 872.098632812 519.775390625 c 1,21,-1
 707.169921875 596.186523438 l 2,22,23
 632.508789062 630.841796875 632.508789062 630.841796875 568.961914062 631.418945312 c 0,24,25
 559.26953125 631.330078125 559.26953125 631.330078125 550.119140625 630.495117188 c 128,-1,26
 540.969726562 629.661132812 540.969726562 629.661132812 532.252929688 628.076171875 c 128,-1,27
 523.536132812 626.4921875 523.536132812 626.4921875 515.209960938 624.12109375 c 128,-1,28
 506.884765625 621.750976562 506.884765625 621.750976562 498.912109375 618.625 c 128,-1,29
 490.938476562 615.498046875 490.938476562 615.498046875 483.19921875 611.54296875 c 128,-1,30
 475.4609375 607.587890625 475.4609375 607.587890625 467.993164062 602.87109375 c 128,-1,31
 460.526367188 598.153320312 460.526367188 598.153320312 453.141601562 592.567382812 c 2,32,-1
 297.141601562 474.567382812 l 1,33,-1
 267.6875 452.288085938 l 1,34,-1
 243.1328125 479.873046875 l 1,35,-1
 125.504882812 612.016601562 l 1,36,-1
 97.27734375 643.728515625 l 1,37,-1
 130.612304688 670.01953125 l 1,38,-1
 276.223632812 784.86328125 l 2,39,40
 418.068359375 896.974609375 418.068359375 896.974609375 560.850585938 897.236328125 c 0,41,42
 661.2265625 896.9765625 661.2265625 896.9765625 778.12890625 841.620117188 c 2,43,-1
 1099.18457031 689.594726562 l 2,44,45
 1254.92089844 615.26953125 1254.92089844 615.26953125 1255.26367188 506.502929688 c 2,46,-1
 1255.18945312 364.172851562 l 1,47,-1
 1255.16992188 327.66015625 l 1,48,-1
 1218.80761719 324.357421875 l 2,49,50
 1168.94824219 319.828125 1168.94824219 319.828125 1127.0625 313.436523438 c 1,51,52
 1133.76074219 303.608398438 1133.76074219 303.608398438 1147.62109375 295.131835938 c 128,-1,53
 1161.48144531 286.655273438 1161.48144531 286.655273438 1183.44921875 279.470703125 c 128,-1,54
 1205.41699219 272.28515625 1205.41699219 272.28515625 1238.77929688 268.142578125 c 128,-1,55
 1272.14160156 264 1272.14160156 264 1313.16308594 264 c 2,56,-1
 1363.9765625 264 l 2,57,58
 1374.49316406 264 1374.49316406 264 1384.59082031 259.685546875 c 128,-1,59
 1394.68847656 255.372070312 1394.68847656 255.372070312 1401.85546875 248.366210938 c 0,60,61
 1414.75488281 235.756835938 1414.75488281 235.756835938 1421.05664062 215.952148438 c 128,-1,62
 1427.35839844 196.147460938 1427.35839844 196.147460938 1428.16699219 182.047851562 c 128,-1,63
 1428.9765625 167.948242188 1428.9765625 167.948242188 1428.9765625 139 c 2,64,-1
 1428.9765625 128.010742188 l 2,65,66
 1428.98535156 96.748046875 1428.98535156 96.748046875 1428.26171875 82.80859375 c 128,-1,67
 1427.5390625 68.8701171875 1427.5390625 68.8701171875 1421.19433594 48.6533203125 c 128,-1,68
 1414.84960938 28.4365234375 1414.84960938 28.4365234375 1401.57714844 15.5 c 0,69,70
 1385.67578125 0 1385.67578125 0 1363.9765625 0 c 2,71,-1
 1311.75683594 0 l 2,72,73
 1137.96484375 0 1137.96484375 0 1029.921875 64.7958984375 c 128,-1,74
 921.877929688 129.591796875 921.877929688 129.591796875 891.583007812 259.196289062 c 1,75,76
 316.830078125 160.546875 316.830078125 160.546875 315.6875 -137.952148438 c 0,0,1
EndSplineSet
EndChar

StartChar: uniFEA3
Encoding: 65187 65187 174
Width: 1276
VWidth: 2593
GlyphClass: 2
Flags: W
AnchorPoint: "Anchor-10" 490.912 1279.39 basechar 0
AnchorPoint: "Anchor-7" 445.185 -209.728 basechar 0
LayerCount: 2
Fore
SplineSet
-5.0234375 0 m 2,0,1
 -40.96484375 0 -40.96484375 0 -67.34765625 16.9580078125 c 128,-1,2
 -93.7314453125 33.916015625 -93.7314453125 33.916015625 -106.876953125 62.619140625 c 128,-1,3
 -120.0234375 91.3232421875 -120.0234375 91.3232421875 -120.0234375 128 c 2,4,-1
 -120.0234375 139.010742188 l 2,5,6
 -120.013671875 175.020507812 -120.013671875 175.020507812 -106.654296875 203.122070312 c 128,-1,7
 -93.294921875 231.224609375 -93.294921875 231.224609375 -66.953125 247.612304688 c 128,-1,8
 -40.6123046875 264 -40.6123046875 264 -5.0234375 264 c 2,9,-1
 320 264 l 2,10,11
 513.59765625 264 513.59765625 264 686.943359375 351.692382812 c 2,12,-1
 856.893554688 437.666992188 l 2,13,14
 868.46484375 443.5625 868.46484375 443.5625 879.952148438 449.47265625 c 128,-1,15
 891.439453125 455.3828125 891.439453125 455.3828125 899.987304688 459.83203125 c 1,16,-1
 885.40234375 467.5859375 l 1,17,-1
 644.586914062 592.490234375 l 2,18,19
 572.260742188 629.9921875 572.260742188 629.9921875 511.475585938 629.946289062 c 0,20,21
 447.513671875 629.990234375 447.513671875 629.990234375 392.130859375 588.098632812 c 2,22,-1
 236.130859375 470.098632812 l 1,23,-1
 206.676757812 447.819335938 l 1,24,-1
 182.122070312 475.404296875 l 1,25,-1
 64.494140625 607.547851562 l 1,26,-1
 36.734375 638.733398438 l 1,27,-1
 69.080078125 665.1328125 l 1,28,-1
 214.72265625 784.000976562 l 2,29,30
 284.251953125 840.693359375 284.251953125 840.693359375 356.16015625 869.885742188 c 128,-1,31
 428.069335938 899.078125 428.069335938 899.078125 501.543945312 899.17578125 c 0,32,33
 608.696289062 898.982421875 608.696289062 898.982421875 718.8125 840.299804688 c 2,34,-1
 1037.82324219 670.293945312 l 2,35,36
 1127.52539062 622.453125 1127.52539062 622.453125 1175.78710938 571.111328125 c 128,-1,37
 1224.04980469 519.76953125 1224.04980469 519.76953125 1224.16015625 458.943359375 c 0,38,39
 1224.11621094 429.208007812 1224.11621094 429.208007812 1212.61523438 400.795898438 c 128,-1,40
 1201.11425781 372.384765625 1201.11425781 372.384765625 1180.42871094 347.022460938 c 128,-1,41
 1159.74316406 321.66015625 1159.74316406 321.66015625 1128.51464844 296.5625 c 128,-1,42
 1097.28613281 271.465820312 1097.28613281 271.465820312 1060.36328125 248.982421875 c 128,-1,43
 1023.44140625 226.499023438 1023.44140625 226.499023438 976.888671875 203.22265625 c 2,44,-1
 812.888671875 121.22265625 l 2,45,46
 692.030273438 60.7939453125 692.030273438 60.7939453125 569.142578125 30.396484375 c 128,-1,47
 446.254882812 0 446.254882812 0 322 0 c 2,48,-1
 -5.0234375 0 l 2,0,1
EndSplineSet
EndChar

StartChar: uniFEA4
Encoding: 65188 65188 175
Width: 1319
VWidth: 2593
GlyphClass: 2
Flags: W
AnchorPoint: "Anchor-7" 445.185 -209.728 basechar 0
AnchorPoint: "Anchor-10" 490.912 1279.39 basechar 0
LayerCount: 2
Fore
SplineSet
1120.02832031 290.677734375 m 1,0,1
 1165.28125 268 1165.28125 268 1233.06835938 268 c 2,2,-1
 1323.9765625 268 l 2,3,4
 1345.62011719 268 1345.62011719 268 1361.48925781 252.53125 c 0,5,6
 1374.8203125 239.537109375 1374.8203125 239.537109375 1381.18261719 219.140625 c 128,-1,7
 1387.54492188 198.744140625 1387.54492188 198.744140625 1388.26074219 184.7421875 c 128,-1,8
 1388.9765625 170.740234375 1388.9765625 170.740234375 1388.9765625 139 c 2,9,-1
 1388.9765625 128.010742188 l 2,10,11
 1388.98535156 96.748046875 1388.98535156 96.748046875 1388.26171875 82.80859375 c 128,-1,12
 1387.5390625 68.8701171875 1387.5390625 68.8701171875 1381.19433594 48.6533203125 c 128,-1,13
 1374.84960938 28.4365234375 1374.84960938 28.4365234375 1361.57714844 15.5 c 0,14,15
 1345.67578125 0 1345.67578125 0 1323.9765625 0 c 2,16,-1
 1236.07324219 0 l 2,17,18
 1182.74804688 0 1182.74804688 0 1134.77050781 10.5224609375 c 128,-1,19
 1086.79296875 21.0458984375 1086.79296875 21.0458984375 1044.87597656 41.8359375 c 128,-1,20
 1002.95898438 62.6259765625 1002.95898438 62.6259765625 967.19921875 93.8271484375 c 128,-1,21
 931.439453125 125.028320312 931.439453125 125.028320312 902.6875 166.122070312 c 1,22,-1
 812.888671875 121.22265625 l 2,23,24
 692.030273438 60.7939453125 692.030273438 60.7939453125 569.142578125 30.396484375 c 128,-1,25
 446.254882812 0 446.254882812 0 322 0 c 2,26,-1
 -5.0234375 0 l 2,27,28
 -40.96484375 0 -40.96484375 0 -67.34765625 16.9580078125 c 128,-1,29
 -93.7314453125 33.916015625 -93.7314453125 33.916015625 -106.876953125 62.619140625 c 128,-1,30
 -120.0234375 91.3232421875 -120.0234375 91.3232421875 -120.0234375 128 c 2,31,-1
 -120.0234375 139.010742188 l 2,32,33
 -120.013671875 175.020507812 -120.013671875 175.020507812 -106.654296875 203.122070312 c 128,-1,34
 -93.294921875 231.224609375 -93.294921875 231.224609375 -66.953125 247.612304688 c 128,-1,35
 -40.6123046875 264 -40.6123046875 264 -5.0234375 264 c 2,36,-1
 320 264 l 2,37,38
 513.59765625 264 513.59765625 264 686.943359375 351.692382812 c 2,39,-1
 856.893554688 437.666992188 l 2,40,41
 868.46484375 443.5625 868.46484375 443.5625 879.952148438 449.47265625 c 128,-1,42
 891.439453125 455.3828125 891.439453125 455.3828125 899.987304688 459.83203125 c 1,43,-1
 885.40234375 467.5859375 l 1,44,-1
 644.586914062 592.490234375 l 2,45,46
 572.260742188 629.9921875 572.260742188 629.9921875 511.475585938 629.946289062 c 0,47,48
 447.513671875 629.990234375 447.513671875 629.990234375 392.130859375 588.098632812 c 2,49,-1
 236.130859375 470.098632812 l 1,50,-1
 206.676757812 447.819335938 l 1,51,-1
 182.122070312 475.404296875 l 1,52,-1
 64.494140625 607.547851562 l 1,53,-1
 36.734375 638.733398438 l 1,54,-1
 69.080078125 665.1328125 l 1,55,-1
 214.72265625 784.000976562 l 2,56,57
 284.251953125 840.693359375 284.251953125 840.693359375 356.16015625 869.885742188 c 128,-1,58
 428.069335938 899.078125 428.069335938 899.078125 501.543945312 899.17578125 c 0,59,60
 608.696289062 898.982421875 608.696289062 898.982421875 718.8125 840.299804688 c 2,61,-1
 1037.82324219 670.293945312 l 2,62,63
 1127.52929688 622.451171875 1127.52929688 622.451171875 1175.7890625 571.111328125 c 128,-1,64
 1224.04980469 519.771484375 1224.04980469 519.771484375 1224.16015625 458.934570312 c 0,65,66
 1223.99121094 372.624023438 1223.99121094 372.624023438 1120.02832031 290.677734375 c 1,0,1
EndSplineSet
EndChar

StartChar: uniFEAA
Encoding: 65194 65194 181
Width: 1204
VWidth: 2593
GlyphClass: 2
Flags: W
AnchorPoint: "Anchor-7" 428.382 -202.53 basechar 0
AnchorPoint: "Anchor-10" 403.659 1340.16 basechar 0
LayerCount: 2
Fore
SplineSet
1208.9765625 0 m 2,0,-1
 1193.35644531 0 l 2,1,2
 1103.94921875 0 1103.94921875 0 1024.00683594 36.2001953125 c 128,-1,3
 944.065429688 72.400390625 944.065429688 72.400390625 877.018554688 142.065429688 c 1,4,5
 776.9765625 0 776.9765625 0 482.64453125 0 c 2,6,-1
 101.899414062 0 l 1,7,-1
 61.8994140625 0 l 1,8,-1
 61.8994140625 40 l 1,9,-1
 61.8994140625 224 l 1,10,-1
 61.8994140625 264 l 1,11,-1
 101.899414062 264 l 1,12,-1
 469.596679688 264 l 2,13,14
 487.446289062 264 487.446289062 264 503.954101562 264.594726562 c 0,15,16
 558.46484375 266.55859375 558.46484375 266.55859375 596.30859375 274.083007812 c 128,-1,17
 634.15234375 281.606445312 634.15234375 281.606445312 653.059570312 293.41015625 c 128,-1,18
 671.967773438 305.21484375 671.967773438 305.21484375 679.53125 317.747070312 c 128,-1,19
 687.094726562 330.278320312 687.094726562 330.278320312 686.536132812 345.573242188 c 0,20,21
 684.52734375 403.170898438 684.52734375 403.170898438 593.848632812 508.044921875 c 2,22,-1
 319.504882812 825.3359375 l 1,23,-1
 296.254882812 852.225585938 l 1,24,-1
 320.2265625 878.47265625 l 1,25,-1
 446.052734375 1016.24511719 l 1,26,-1
 477.025390625 1050.15820312 l 1,27,-1
 506.364257812 1014.82226562 l 1,28,-1
 1043.77148438 367.555664062 l 2,29,30
 1129.77539062 264 1129.77539062 264 1200.41015625 264 c 2,31,-1
 1208.9765625 264 l 2,32,33
 1224.69042969 264 1224.69042969 264 1236.49023438 258.637695312 c 128,-1,34
 1248.29003906 253.275390625 1248.29003906 253.275390625 1255.05761719 242.314453125 c 128,-1,35
 1261.82519531 231.352539062 1261.82519531 231.352539062 1266.05859375 221.189453125 c 128,-1,36
 1270.29199219 211.026367188 1270.29199219 211.026367188 1271.84277344 194.685546875 c 128,-1,37
 1273.39453125 178.34375 1273.39453125 178.34375 1273.7265625 169.411132812 c 128,-1,38
 1274.05859375 160.477539062 1274.05859375 160.477539062 1273.99414062 145.236328125 c 0,39,40
 1273.9765625 140.986328125 1273.9765625 140.986328125 1273.9765625 139 c 2,41,-1
 1273.9765625 128.010742188 l 2,42,43
 1273.97753906 125.665039062 1273.97753906 125.665039062 1274.00683594 120.608398438 c 0,44,45
 1273.80273438 113.134765625 1273.80273438 113.134765625 1274.0078125 104.780273438 c 128,-1,46
 1274.21289062 96.4248046875 1274.21289062 96.4248046875 1273.4765625 87.4833984375 c 128,-1,47
 1272.74023438 78.5419921875 1272.74023438 78.5419921875 1271.8671875 69.6083984375 c 128,-1,48
 1270.99316406 60.6748046875 1270.99316406 60.6748046875 1268.6328125 52.0439453125 c 128,-1,49
 1266.27148438 43.4130859375 1266.27148438 43.4130859375 1263.22753906 35.6796875 c 128,-1,50
 1260.18261719 27.9453125 1260.18261719 27.9453125 1255.10546875 21.4033203125 c 128,-1,51
 1250.02734375 14.861328125 1250.02734375 14.861328125 1243.71972656 10.10546875 c 128,-1,52
 1237.41210938 5.3486328125 1237.41210938 5.3486328125 1228.52636719 2.6748046875 c 128,-1,53
 1219.63964844 0 1219.63964844 0 1208.9765625 0 c 2,0,-1
EndSplineSet
EndChar

StartChar: uniFEAE
Encoding: 65198 65198 185
Width: 883
VWidth: 2593
GlyphClass: 2
Flags: W
AnchorPoint: "Anchor-10" 450.527 995.269 basechar 0
AnchorPoint: "Anchor-7" 297.433 -627.366 basechar 0
LayerCount: 2
Fore
SplineSet
888.022460938 0 m 2,0,-1
 871.923828125 0 l 2,1,2
 767.784179688 0 767.784179688 0 704.383789062 30.208984375 c 1,3,-1
 704.383789062 22.6640625 l 2,4,5
 704.176757812 -212.1328125 704.176757812 -212.1328125 555.208984375 -332.342773438 c 128,-1,6
 406.240234375 -452.552734375 406.240234375 -452.552734375 125.333984375 -452.412109375 c 2,7,-1
 21.8779296875 -452.360351562 l 1,8,-1
 -18.103515625 -452.340820312 l 1,9,-1
 -18.1025390625 -412.359375 l 1,10,-1
 -18.099609375 -229.1953125 l 1,11,-1
 -18.0986328125 -189.16796875 l 1,12,-1
 21.9287109375 -189.196289062 l 1,13,-1
 120.62890625 -189.265625 l 2,14,15
 290.966796875 -189.611328125 290.966796875 -189.611328125 366.275390625 -137.249023438 c 128,-1,16
 441.584960938 -84.8857421875 441.584960938 -84.8857421875 441.584960938 21.4990234375 c 2,17,-1
 441.584960938 648.626953125 l 1,18,-1
 441.584960938 688.395507812 l 1,19,-1
 481.353515625 688.625976562 l 1,20,-1
 662.978515625 689.678710938 l 1,21,-1
 703.209960938 689.912109375 l 1,22,-1
 703.209960938 649.6796875 l 1,23,-1
 703.209960938 425.139648438 l 2,24,25
 703.149414062 367.404296875 703.149414062 367.404296875 720.081054688 332.375 c 128,-1,26
 737.012695312 297.346679688 737.012695312 297.346679688 773.899414062 280.672851562 c 128,-1,27
 810.786132812 264 810.786132812 264 871.923828125 264 c 2,28,-1
 888.022460938 264 l 2,29,30
 903.736328125 264 903.736328125 264 915.536132812 258.637695312 c 128,-1,31
 927.3359375 253.275390625 927.3359375 253.275390625 934.103515625 242.314453125 c 128,-1,32
 940.87109375 231.352539062 940.87109375 231.352539062 945.104492188 221.189453125 c 128,-1,33
 949.337890625 211.026367188 949.337890625 211.026367188 950.888671875 194.685546875 c 128,-1,34
 952.440429688 178.34375 952.440429688 178.34375 952.772460938 169.411132812 c 128,-1,35
 953.104492188 160.477539062 953.104492188 160.477539062 953.040039062 145.236328125 c 0,36,37
 953.022460938 140.986328125 953.022460938 140.986328125 953.022460938 139 c 2,38,-1
 953.022460938 127.990234375 l 2,39,40
 953.200195312 122.7890625 953.200195312 122.7890625 953.091796875 114.15625 c 128,-1,41
 952.983398438 105.524414062 952.983398438 105.524414062 950.00390625 83.4599609375 c 128,-1,42
 947.024414062 61.39453125 947.024414062 61.39453125 941.086914062 44.5302734375 c 128,-1,43
 935.149414062 27.666015625 935.149414062 27.666015625 921.317382812 13.8330078125 c 128,-1,44
 907.484375 0 907.484375 0 888.022460938 0 c 2,0,-1
EndSplineSet
PairPos2: "'kern' Horizontal Kerning lookup 15-1" uniFEFB dx=-100 dy=0 dh=-100 dv=0 dx=0 dy=0 dh=0 dv=0
PairPos2: "'kern' Horizontal Kerning lookup 15-1" uniFEDF dx=-100 dy=0 dh=-100 dv=0 dx=0 dy=0 dh=0 dv=0
PairPos2: "'kern' Horizontal Kerning lookup 15-1" uni062F dx=-100 dy=0 dh=-100 dv=0 dx=0 dy=0 dh=0 dv=0
PairPos2: "'kern' Horizontal Kerning lookup 15-2" uniFB90 dx=-142 dy=0 dh=-142 dv=0 dx=0 dy=0 dh=0 dv=0
PairPos2: "'kern' Horizontal Kerning lookup 15-2" uniFB8E dx=-142 dy=0 dh=-142 dv=0 dx=0 dy=0 dh=0 dv=0
PairPos2: "'kern' Horizontal Kerning lookup 15-2" uni06A9 dx=-142 dy=0 dh=-142 dv=0 dx=0 dy=0 dh=0 dv=0
PairPos2: "'kern' Horizontal Kerning lookup 15-2" uniFEEB dx=-100 dy=0 dh=-100 dv=0 dx=0 dy=0 dh=0 dv=0
PairPos2: "'kern' Horizontal Kerning lookup 15-2" uni0647 dx=-100 dy=0 dh=-100 dv=0 dx=0 dy=0 dh=0 dv=0
PairPos2: "'kern' Horizontal Kerning lookup 15-2" uniFEE7 dx=-100 dy=0 dh=-100 dv=0 dx=0 dy=0 dh=0 dv=0
PairPos2: "'kern' Horizontal Kerning lookup 15-2" uniFEE3 dx=-100 dy=0 dh=-100 dv=0 dx=0 dy=0 dh=0 dv=0
PairPos2: "'kern' Horizontal Kerning lookup 15-2" uni0645 dx=-100 dy=0 dh=-100 dv=0 dx=0 dy=0 dh=0 dv=0
PairPos2: "'kern' Horizontal Kerning lookup 15-2" uniFEDB dx=-142 dy=0 dh=-142 dv=0 dx=0 dy=0 dh=0 dv=0
PairPos2: "'kern' Horizontal Kerning lookup 15-2" uni0643 dx=-100 dy=0 dh=-100 dv=0 dx=0 dy=0 dh=0 dv=0
PairPos2: "'kern' Horizontal Kerning lookup 15-2" uniFED7 dx=-100 dy=0 dh=-100 dv=0 dx=0 dy=0 dh=0 dv=0
PairPos2: "'kern' Horizontal Kerning lookup 15-2" uniFED3 dx=-100 dy=0 dh=-100 dv=0 dx=0 dy=0 dh=0 dv=0
PairPos2: "'kern' Horizontal Kerning lookup 15-2" uni0641 dx=-100 dy=0 dh=-100 dv=0 dx=0 dy=0 dh=0 dv=0
PairPos2: "'kern' Horizontal Kerning lookup 15-2" uniFECF dx=-100 dy=0 dh=-100 dv=0 dx=0 dy=0 dh=0 dv=0
PairPos2: "'kern' Horizontal Kerning lookup 15-2" uniFECB dx=-100 dy=0 dh=-100 dv=0 dx=0 dy=0 dh=0 dv=0
PairPos2: "'kern' Horizontal Kerning lookup 15-2" uniFEC7 dx=-100 dy=0 dh=-100 dv=0 dx=0 dy=0 dh=0 dv=0
PairPos2: "'kern' Horizontal Kerning lookup 15-2" uni0638 dx=-100 dy=0 dh=-100 dv=0 dx=0 dy=0 dh=0 dv=0
PairPos2: "'kern' Horizontal Kerning lookup 15-2" uniFEC3 dx=-100 dy=0 dh=-100 dv=0 dx=0 dy=0 dh=0 dv=0
PairPos2: "'kern' Horizontal Kerning lookup 15-2" uni0637 dx=-100 dy=0 dh=-100 dv=0 dx=0 dy=0 dh=0 dv=0
PairPos2: "'kern' Horizontal Kerning lookup 15-2" uniFEBF dx=-100 dy=0 dh=-100 dv=0 dx=0 dy=0 dh=0 dv=0
PairPos2: "'kern' Horizontal Kerning lookup 15-2" uni0636 dx=-100 dy=0 dh=-100 dv=0 dx=0 dy=0 dh=0 dv=0
PairPos2: "'kern' Horizontal Kerning lookup 15-2" uniFEBB dx=-100 dy=0 dh=-100 dv=0 dx=0 dy=0 dh=0 dv=0
PairPos2: "'kern' Horizontal Kerning lookup 15-2" uni0635 dx=-100 dy=0 dh=-100 dv=0 dx=0 dy=0 dh=0 dv=0
PairPos2: "'kern' Horizontal Kerning lookup 15-2" uniFEB7 dx=-100 dy=0 dh=-100 dv=0 dx=0 dy=0 dh=0 dv=0
PairPos2: "'kern' Horizontal Kerning lookup 15-2" uni0634 dx=-100 dy=0 dh=-100 dv=0 dx=0 dy=0 dh=0 dv=0
PairPos2: "'kern' Horizontal Kerning lookup 15-2" uniFEB3 dx=-100 dy=0 dh=-100 dv=0 dx=0 dy=0 dh=0 dv=0
PairPos2: "'kern' Horizontal Kerning lookup 15-2" uni0633 dx=-100 dy=0 dh=-100 dv=0 dx=0 dy=0 dh=0 dv=0
PairPos2: "'kern' Horizontal Kerning lookup 15-2" uniFEA7 dx=-100 dy=0 dh=-100 dv=0 dx=0 dy=0 dh=0 dv=0
PairPos2: "'kern' Horizontal Kerning lookup 15-2" uniFEA3 dx=-100 dy=0 dh=-100 dv=0 dx=0 dy=0 dh=0 dv=0
PairPos2: "'kern' Horizontal Kerning lookup 15-2" uniFE9F dx=-100 dy=0 dh=-100 dv=0 dx=0 dy=0 dh=0 dv=0
PairPos2: "'kern' Horizontal Kerning lookup 15-2" uniFE9B dx=-100 dy=0 dh=-100 dv=0 dx=0 dy=0 dh=0 dv=0
PairPos2: "'kern' Horizontal Kerning lookup 15-2" uni062B dx=-100 dy=0 dh=-100 dv=0 dx=0 dy=0 dh=0 dv=0
PairPos2: "'kern' Horizontal Kerning lookup 15-2" uniFE97 dx=-100 dy=0 dh=-100 dv=0 dx=0 dy=0 dh=0 dv=0
PairPos2: "'kern' Horizontal Kerning lookup 15-2" uni062A dx=-100 dy=0 dh=-100 dv=0 dx=0 dy=0 dh=0 dv=0
PairPos2: "'kern' Horizontal Kerning lookup 15-2" uni0629 dx=-100 dy=0 dh=-100 dv=0 dx=0 dy=0 dh=0 dv=0
PairPos2: "'kern' Horizontal Kerning lookup 15-2" uniFE91 dx=-47 dy=0 dh=-47 dv=0 dx=0 dy=0 dh=0 dv=0
PairPos2: "'kern' Horizontal Kerning lookup 15-2" uni0628 dx=-100 dy=0 dh=-100 dv=0 dx=0 dy=0 dh=0 dv=0
PairPos2: "'kern' Horizontal Kerning lookup 15-2" uni0627 dx=-100 dy=0 dh=-100 dv=0 dx=0 dy=0 dh=0 dv=0
PairPos2: "'kern' Horizontal Kerning lookup 15-2" uni0622 dx=-100 dy=0 dh=-100 dv=0 dx=0 dy=0 dh=0 dv=0
PairPos2: "'kern' Horizontal Kerning lookup 15-2" uni0621 dx=-100 dy=0 dh=-100 dv=0 dx=0 dy=0 dh=0 dv=0
PairPos2: "'kern' Horizontal Kerning lookup 15-2" uniFB94 dx=-142 dy=0 dh=-142 dv=0 dx=0 dy=0 dh=0 dv=0
PairPos2: "'kern' Horizontal Kerning lookup 15-2" uniFB92 dx=-142 dy=0 dh=-142 dv=0 dx=0 dy=0 dh=0 dv=0
PairPos2: "'kern' Horizontal Kerning lookup 15-2" afii57509 dx=-142 dy=0 dh=-142 dv=0 dx=0 dy=0 dh=0 dv=0
PairPos2: "'kern' Horizontal Kerning lookup 15-2" uniFB7C dx=-100 dy=0 dh=-100 dv=0 dx=0 dy=0 dh=0 dv=0
PairPos2: "'kern' Horizontal Kerning lookup 15-2" afii57506 dx=-100 dy=0 dh=-100 dv=0 dx=0 dy=0 dh=0 dv=0
PairPos2: "'kern' Horizontal Kerning lookup 15-2" afii57440 dx=-100 dy=0 dh=-100 dv=0 dx=0 dy=0 dh=0 dv=0
EndChar

StartChar: uniFEB2
Encoding: 65202 65202 189
Width: 2632
VWidth: 2593
GlyphClass: 2
Flags: W
AnchorPoint: "Anchor-10" 1778.4 1105.57 basechar 0
AnchorPoint: "Anchor-7" 691 -625.5 basechar 0
LayerCount: 2
Fore
SplineSet
1925.80859375 425.826171875 m 2,0,1
 1926.12304688 365.251953125 1926.12304688 365.251953125 1940.01660156 329.244140625 c 128,-1,2
 1953.91113281 293.235351562 1953.91113281 293.235351562 1980.04785156 278.236328125 c 128,-1,3
 2006.18359375 263.237304688 2006.18359375 263.237304688 2048.62207031 262.965820312 c 0,4,5
 2110.19824219 262.590820312 2110.19824219 262.590820312 2138.47753906 298.579101562 c 128,-1,6
 2166.75585938 334.567382812 2166.75585938 334.567382812 2166.66210938 424.6328125 c 2,7,-1
 2166.38867188 687.579101562 l 1,8,-1
 2166.34667969 727.62109375 l 1,9,-1
 2206.38867188 727.62109375 l 1,10,-1
 2391.50585938 727.62109375 l 1,11,-1
 2431.34863281 727.62109375 l 1,12,-1
 2431.50585938 687.778320312 l 1,13,-1
 2432.53027344 427.604492188 l 2,14,15
 2432.73046875 340.739257812 2432.73046875 340.739257812 2473.7265625 302.336914062 c 128,-1,16
 2514.72265625 263.93359375 2514.72265625 263.93359375 2609.88574219 263.93359375 c 2,17,-1
 2637.26367188 263.93359375 l 2,18,19
 2647.72167969 263.961914062 2647.72167969 263.961914062 2657.86132812 259.65234375 c 128,-1,20
 2668 255.34375 2668 255.34375 2675.16796875 248.350585938 c 0,21,22
 2688.09082031 235.743164062 2688.09082031 235.743164062 2694.39941406 215.916015625 c 128,-1,23
 2700.70800781 196.088867188 2700.70800781 196.088867188 2701.51269531 182.010742188 c 128,-1,24
 2702.31738281 167.931640625 2702.31738281 167.931640625 2702.31738281 138.93359375 c 2,25,-1
 2702.31738281 127.861328125 l 2,26,27
 2702.30859375 125.348632812 2702.30859375 125.348632812 2702.32324219 119.904296875 c 0,28,29
 2702.3671875 104.229492188 2702.3671875 104.229492188 2702.02441406 95.1328125 c 128,-1,30
 2701.68164062 86.0361328125 2701.68164062 86.0361328125 2700.109375 69.5087890625 c 128,-1,31
 2698.53710938 52.982421875 2698.53710938 52.982421875 2694.3046875 42.7998046875 c 128,-1,32
 2690.07324219 32.6171875 2690.07324219 32.6171875 2683.30273438 21.6201171875 c 128,-1,33
 2676.53125 10.6220703125 2676.53125 10.6220703125 2664.76464844 5.2783203125 c 128,-1,34
 2652.99707031 -0.06640625 2652.99707031 -0.06640625 2637.31738281 -0.06640625 c 2,35,-1
 2617.30078125 -0.06640625 l 2,36,37
 2523.16699219 -0.037109375 2523.16699219 -0.037109375 2447.41015625 27.8994140625 c 128,-1,38
 2371.65332031 55.8359375 2371.65332031 55.8359375 2317.0234375 111.967773438 c 1,39,40
 2242.79882812 -1.0068359375 2242.79882812 -1.0068359375 2056.41015625 -1.06640625 c 0,41,42
 1880.73730469 -1.0087890625 1880.73730469 -1.0087890625 1799.86425781 104.211914062 c 1,43,44
 1719.86132812 -2.740234375 1719.86132812 -2.740234375 1533.03613281 -1.0654296875 c 0,45,46
 1433.64355469 -0.3359375 1433.64355469 -0.3359375 1367.69628906 36.0947265625 c 1,47,48
 1359.52832031 -84.57421875 1359.52832031 -84.57421875 1314.97460938 -176.40234375 c 128,-1,49
 1270.42089844 -268.231445312 1270.42089844 -268.231445312 1191.81054688 -328.877929688 c 128,-1,50
 1113.19921875 -389.524414062 1113.19921875 -389.524414062 1002.01269531 -420.232421875 c 128,-1,51
 890.826171875 -450.940429688 890.826171875 -450.940429688 748.819335938 -450.940429688 c 2,52,-1
 694.10546875 -450.940429688 l 2,53,54
 265.05078125 -450.983398438 265.05078125 -450.983398438 124.508789062 -166.520507812 c 0,55,56
 61.390625 -37.5927734375 61.390625 -37.5927734375 61.12109375 143.262695312 c 2,57,-1
 61 485.986328125 l 1,58,-1
 60.986328125 525.9921875 l 1,59,-1
 100.9921875 526 l 1,60,-1
 281.870117188 526.033203125 l 1,61,-1
 321.877929688 526.041015625 l 1,62,-1
 321.877929688 486.033203125 l 1,63,-1
 321.877929688 144.461914062 l 2,64,65
 321.93359375 -24.9326171875 321.93359375 -24.9326171875 411.88671875 -105.286132812 c 128,-1,66
 501.83984375 -185.639648438 501.83984375 -185.639648438 696.272460938 -185.639648438 c 2,67,-1
 747.403320312 -185.639648438 l 2,68,69
 943.9609375 -185.810546875 943.9609375 -185.810546875 1033.1015625 -118.243164062 c 128,-1,70
 1122.24316406 -50.67578125 1122.24316406 -50.67578125 1122.16210938 88.5341796875 c 2,71,-1
 1121.81445312 684.794921875 l 1,72,-1
 1121.79101562 724.797851562 l 1,73,-1
 1161.79394531 724.818359375 l 1,74,-1
 1342.24707031 724.911132812 l 1,75,-1
 1382.26757812 724.931640625 l 1,76,-1
 1382.26757812 684.911132812 l 1,77,-1
 1382.26757812 439.270507812 l 2,78,79
 1382.14941406 344.250976562 1382.14941406 344.250976562 1418.00097656 303.815429688 c 128,-1,80
 1453.85253906 263.37890625 1453.85253906 263.37890625 1534.21191406 262.932617188 c 0,81,82
 1559.5859375 262.787109375 1559.5859375 262.787109375 1578.64160156 267.73828125 c 128,-1,83
 1597.69628906 272.690429688 1597.69628906 272.690429688 1612.72265625 284.088867188 c 128,-1,84
 1627.74902344 295.48828125 1627.74902344 295.48828125 1637.20214844 314.163085938 c 128,-1,85
 1646.65429688 332.837890625 1646.65429688 332.837890625 1651.58300781 360.002929688 c 128,-1,86
 1656.51269531 387.166992188 1656.51269531 387.166992188 1656.61328125 423.78515625 c 2,87,-1
 1657.33984375 686.731445312 l 1,88,-1
 1657.45019531 726.62109375 l 1,89,-1
 1697.33984375 726.62109375 l 1,90,-1
 1884.45703125 726.62109375 l 1,91,-1
 1924.25 726.62109375 l 1,92,-1
 1924.45605469 686.828125 l 1,93,-1
 1925.80859375 425.826171875 l 2,0,1
EndSplineSet
EndChar

StartChar: uniFEB3
Encoding: 65203 65203 190
Width: 1613
VWidth: 2593
GlyphClass: 2
Flags: W
AnchorPoint: "Anchor-10" 774.679 1153.53 basechar 0
AnchorPoint: "Anchor-7" 904.307 -287.179 basechar 0
LayerCount: 2
Fore
SplineSet
1054.34472656 426.892578125 m 2,0,1
 1054.80566406 338.124023438 1054.80566406 338.124023438 1086.22851562 301.263671875 c 128,-1,2
 1117.65234375 264.404296875 1117.65234375 264.404296875 1187.24804688 263.999023438 c 0,3,4
 1242.63769531 263.620117188 1242.63769531 263.620117188 1268.06054688 296.368164062 c 128,-1,5
 1293.484375 329.116210938 1293.484375 329.116210938 1293.484375 412.9921875 c 2,6,-1
 1293.484375 730.362304688 l 1,7,-1
 1293.484375 770.362304688 l 1,8,-1
 1333.484375 770.362304688 l 1,9,-1
 1512.2421875 770.362304688 l 1,10,-1
 1552.2421875 770.362304688 l 1,11,-1
 1552.2421875 730.362304688 l 1,12,-1
 1552.2421875 405.002929688 l 2,13,14
 1552.11328125 210.118164062 1552.11328125 210.118164062 1460.8203125 105.059570312 c 128,-1,15
 1369.52734375 0 1369.52734375 0 1194.95898438 0 c 0,16,17
 1011.69921875 0 1011.69921875 0 928.81640625 106.038085938 c 1,18,19
 848.122070312 0 848.122070312 0 651.8984375 0 c 0,20,21
 465.61328125 0 465.61328125 0 383.435546875 111.400390625 c 1,22,23
 285.602539062 0 285.602539062 0 58.82421875 0 c 2,24,-1
 -5.0234375 0 l 2,25,26
 -40.96484375 0 -40.96484375 0 -67.34765625 16.9580078125 c 128,-1,27
 -93.7314453125 33.916015625 -93.7314453125 33.916015625 -106.876953125 62.619140625 c 128,-1,28
 -120.0234375 91.3232421875 -120.0234375 91.3232421875 -120.0234375 128 c 2,29,-1
 -120.0234375 139.010742188 l 2,30,31
 -120.013671875 175.020507812 -120.013671875 175.020507812 -106.654296875 203.122070312 c 128,-1,32
 -93.294921875 231.224609375 -93.294921875 231.224609375 -66.953125 247.612304688 c 128,-1,33
 -40.6123046875 264 -40.6123046875 264 -5.0234375 264 c 2,34,-1
 59.7529296875 264 l 2,35,36
 159.913085938 264 159.913085938 264 202.814453125 302.338867188 c 128,-1,37
 245.715820312 340.676757812 245.715820312 340.676757812 245.87890625 426.055664062 c 2,38,-1
 246.379882812 687.763671875 l 1,39,-1
 246.456054688 727.6875 l 1,40,-1
 286.379882812 727.6875 l 1,41,-1
 474.487304688 727.6875 l 1,42,-1
 514.393554688 727.6875 l 1,43,-1
 514.487304688 687.782226562 l 1,44,-1
 515.108398438 424.318359375 l 2,45,46
 515.37109375 365.555664062 515.37109375 365.555664062 530.159179688 330.423828125 c 128,-1,47
 544.946289062 295.291015625 544.946289062 295.291015625 574.53515625 279.783203125 c 128,-1,48
 604.124023438 264.274414062 604.124023438 264.274414062 652.749023438 263.999023438 c 0,49,50
 722.444335938 263.595703125 722.444335938 263.595703125 753.673828125 299.880859375 c 128,-1,51
 784.904296875 336.166015625 784.904296875 336.166015625 785.149414062 424.8515625 c 2,52,-1
 785.875976562 687.797851562 l 1,53,-1
 785.986328125 727.6875 l 1,54,-1
 825.875976562 727.6875 l 1,55,-1
 1012.99316406 727.6875 l 1,56,-1
 1052.78613281 727.6875 l 1,57,-1
 1052.9921875 687.89453125 l 1,58,-1
 1054.34472656 426.892578125 l 2,0,1
EndSplineSet
EndChar

StartChar: uniFEB4
Encoding: 65204 65204 191
Width: 1761
VWidth: 2588
GlyphClass: 2
Flags: W
AnchorPoint: "Anchor-10" 850.65 1147.67 basechar 0
LayerCount: 2
Fore
SplineSet
1562.01757812 427.703125 m 2,0,1
 1562.24707031 369.439453125 1562.24707031 369.439453125 1580.05175781 333.876953125 c 128,-1,2
 1597.85644531 298.314453125 1597.85644531 298.314453125 1636.63574219 281.157226562 c 128,-1,3
 1675.4140625 264 1675.4140625 264 1739.37304688 264 c 2,4,-1
 1766.8046875 264 l 2,5,6
 1777.32128906 264 1777.32128906 264 1787.41894531 259.685546875 c 128,-1,7
 1797.51660156 255.372070312 1797.51660156 255.372070312 1804.68359375 248.366210938 c 0,8,9
 1817.58300781 235.756835938 1817.58300781 235.756835938 1823.88476562 215.952148438 c 128,-1,10
 1830.18652344 196.147460938 1830.18652344 196.147460938 1830.99511719 182.047851562 c 128,-1,11
 1831.8046875 167.948242188 1831.8046875 167.948242188 1831.8046875 139 c 2,12,-1
 1831.8046875 128.043945312 l 2,13,14
 1831.95800781 59.109375 1831.95800781 59.109375 1818.88769531 34.6484375 c 0,15,16
 1812.53515625 23.5888671875 1812.53515625 23.5888671875 1804.39257812 15.4306640625 c 0,17,18
 1788.48339844 0 1788.48339844 0 1766.8046875 0 c 2,19,-1
 1746.80078125 0 l 2,20,21
 1555.05761719 0 1555.05761719 0 1446.24414062 112.143554688 c 1,22,23
 1371.1796875 -0 1371.1796875 -0 1178.8984375 0 c 0,24,25
 1006.80371094 0 1006.80371094 0 925.8203125 108.038085938 c 1,26,27
 840.921875 0 840.921875 0 651.8984375 0 c 0,28,29
 466.07421875 0 466.07421875 0 383.427734375 112.048828125 c 1,30,31
 285.819335938 0 285.819335938 0 58.82421875 0 c 2,32,-1
 -5.0234375 0 l 2,33,34
 -40.96484375 0 -40.96484375 0 -67.34765625 16.9580078125 c 128,-1,35
 -93.7314453125 33.916015625 -93.7314453125 33.916015625 -106.876953125 62.619140625 c 128,-1,36
 -120.0234375 91.3232421875 -120.0234375 91.3232421875 -120.0234375 128 c 2,37,-1
 -120.0234375 139.010742188 l 2,38,39
 -120.013671875 175.020507812 -120.013671875 175.020507812 -106.654296875 203.122070312 c 128,-1,40
 -93.294921875 231.224609375 -93.294921875 231.224609375 -66.953125 247.612304688 c 128,-1,41
 -40.6123046875 264 -40.6123046875 264 -5.0234375 264 c 2,42,-1
 59.7529296875 264 l 2,43,44
 159.913085938 264 159.913085938 264 202.814453125 302.338867188 c 128,-1,45
 245.715820312 340.676757812 245.715820312 340.676757812 245.87890625 426.055664062 c 2,46,-1
 246.379882812 687.763671875 l 1,47,-1
 246.456054688 727.6875 l 1,48,-1
 286.379882812 727.6875 l 1,49,-1
 474.487304688 727.6875 l 1,50,-1
 514.393554688 727.6875 l 1,51,-1
 514.487304688 687.782226562 l 1,52,-1
 515.108398438 424.318359375 l 2,53,54
 515.306640625 380.08984375 515.306640625 380.08984375 523.322265625 349.672851562 c 128,-1,55
 531.337890625 319.255859375 531.337890625 319.255859375 548.516601562 300.235351562 c 128,-1,56
 565.696289062 281.21484375 565.696289062 281.21484375 591.006835938 272.709960938 c 128,-1,57
 616.317382812 264.206054688 616.317382812 264.206054688 652.749023438 263.999023438 c 0,58,59
 722.872070312 263.592773438 722.872070312 263.592773438 754.290039062 300.16796875 c 128,-1,60
 785.708007812 336.743164062 785.708007812 336.743164062 785.87890625 426.055664062 c 2,61,-1
 786.379882812 687.763671875 l 1,62,-1
 786.456054688 727.6875 l 1,63,-1
 826.379882812 727.6875 l 1,64,-1
 1014.48730469 727.6875 l 1,65,-1
 1054.39355469 727.6875 l 1,66,-1
 1054.48730469 687.782226562 l 1,67,-1
 1055.10839844 424.318359375 l 2,68,69
 1055.50097656 336.471679688 1055.50097656 336.471679688 1085.1328125 300.434570312 c 128,-1,70
 1114.76464844 264.396484375 1114.76464844 264.396484375 1179.7734375 263.999023438 c 0,71,72
 1220.16992188 263.741210938 1220.16992188 263.741210938 1244.9375 278.008789062 c 128,-1,73
 1269.70410156 292.276367188 1269.70410156 292.276367188 1282.95898438 328.052734375 c 128,-1,74
 1296.21289062 363.829101562 1296.21289062 363.829101562 1296.14941406 424.69921875 c 2,75,-1
 1295.87597656 687.645507812 l 1,76,-1
 1295.83398438 727.6875 l 1,77,-1
 1335.87597656 727.6875 l 1,78,-1
 1520.99316406 727.6875 l 1,79,-1
 1560.8359375 727.6875 l 1,80,-1
 1560.99316406 687.844726562 l 1,81,-1
 1562.01757812 427.703125 l 2,0,1
EndSplineSet
EndChar

StartChar: uniFEBA
Encoding: 65210 65210 197
Width: 2602
VWidth: 2593
GlyphClass: 2
Flags: W
AnchorPoint: "Anchor-7" 691 -625.5 basechar 0
AnchorPoint: "Anchor-10" 2006.4 1309.57 basechar 0
LayerCount: 2
Fore
SplineSet
2185.72558594 454.962890625 m 0,0,1
 2168.5546875 527.010742188 2168.5546875 527.010742188 2126.37792969 559.509765625 c 128,-1,2
 2084.20117188 592.0078125 2084.20117188 592.0078125 2007.29882812 592.013671875 c 0,3,4
 1931.71191406 592.008789062 1931.71191406 592.008789062 1850.10058594 512.6796875 c 128,-1,5
 1768.48828125 433.350585938 1768.48828125 433.350585938 1686.39550781 267.52734375 c 1,6,-1
 1981.37109375 267.52734375 l 2,7,8
 2116.671875 267.959960938 2116.671875 267.959960938 2160.64257812 306.93359375 c 0,9,10
 2191.17480469 333.997070312 2191.17480469 333.997070312 2191.17480469 389 c 0,11,12
 2191.17480469 429.213867188 2191.17480469 429.213867188 2185.72558594 454.962890625 c 0,0,1
1616 0 m 2,13,14
 1451.62304688 0 1451.62304688 0 1367.91894531 40.158203125 c 1,15,16
 1352.45996094 -202.963867188 1352.45996094 -202.963867188 1194.0078125 -326.966796875 c 128,-1,17
 1035.55566406 -450.969726562 1035.55566406 -450.969726562 748.819335938 -450.940429688 c 2,18,-1
 694.1015625 -450.940429688 l 2,19,20
 384.305664062 -450.940429688 384.305664062 -450.940429688 222.681640625 -299.89453125 c 128,-1,21
 61.0576171875 -148.848632812 61.0576171875 -148.848632812 61.12109375 143.262695312 c 2,22,-1
 61 485.986328125 l 1,23,-1
 60.986328125 525.9921875 l 1,24,-1
 100.9921875 526 l 1,25,-1
 281.870117188 526.033203125 l 1,26,-1
 321.877929688 526.041015625 l 1,27,-1
 321.877929688 486.033203125 l 1,28,-1
 321.877929688 144.44921875 l 2,29,30
 321.877929688 -25.126953125 321.877929688 -25.126953125 411.817382812 -105.467773438 c 128,-1,31
 501.756835938 -185.80859375 501.756835938 -185.80859375 696.254882812 -185.639648438 c 2,32,-1
 747.385742188 -185.639648438 l 2,33,34
 943.754882812 -185.639648438 943.754882812 -185.639648438 1032.92285156 -118.052734375 c 128,-1,35
 1122.09082031 -50.4658203125 1122.09082031 -50.4658203125 1122.16210938 88.556640625 c 2,36,-1
 1121.81445312 684.794921875 l 1,37,-1
 1121.79101562 724.797851562 l 1,38,-1
 1161.79394531 724.818359375 l 1,39,-1
 1342.24707031 724.911132812 l 1,40,-1
 1382.26757812 724.931640625 l 1,41,-1
 1382.26757812 684.911132812 l 1,42,-1
 1382.26757812 459.294921875 l 2,43,44
 1382.26757812 346.561523438 1382.26757812 346.561523438 1418.33496094 307.2734375 c 1,45,46
 1495.58691406 487.129882812 1495.58691406 487.129882812 1586.29394531 608.793945312 c 128,-1,47
 1677.00195312 730.45703125 1677.00195312 730.45703125 1785.765625 794.728515625 c 128,-1,48
 1894.53027344 859 1894.53027344 859 2017.67480469 859 c 0,49,50
 2245.04492188 859 2245.04492188 859 2363.23828125 700.822265625 c 0,51,52
 2393.34765625 660.37890625 2393.34765625 660.37890625 2413.56738281 612.904296875 c 128,-1,53
 2433.78613281 565.428710938 2433.78613281 565.428710938 2443.953125 512.3203125 c 128,-1,54
 2454.12011719 459.211914062 2454.12011719 459.211914062 2454.73632812 399.787109375 c 0,55,56
 2454.95507812 360.188476562 2454.95507812 360.188476562 2449.43945312 323.599609375 c 1,57,58
 2513.39453125 264 2513.39453125 264 2586.29296875 264 c 2,59,-1
 2609.15136719 264 l 2,60,61
 2631.05273438 264 2631.05273438 264 2647.04003906 248.305664062 c 0,62,63
 2659.87695312 235.702148438 2659.87695312 235.702148438 2666.16503906 215.934570312 c 128,-1,64
 2672.45214844 196.166015625 2672.45214844 196.166015625 2673.27636719 182.108398438 c 128,-1,65
 2674.09960938 168.049804688 2674.09960938 168.049804688 2674.15136719 139.03515625 c 2,66,-1
 2674.15136719 128 l 2,67,68
 2674.15136719 108.092773438 2674.15136719 108.092773438 2674.04199219 100.666015625 c 128,-1,69
 2673.93164062 93.240234375 2673.93164062 93.240234375 2672.64257812 77.3525390625 c 128,-1,70
 2671.35253906 61.46484375 2671.35253906 61.46484375 2668.65234375 53.140625 c 128,-1,71
 2665.95214844 44.8154296875 2665.95214844 44.8154296875 2660.45703125 34.1650390625 c 128,-1,72
 2654.9609375 23.5146484375 2654.9609375 23.5146484375 2646.75390625 15.5087890625 c 0,73,74
 2643.30566406 12.146484375 2643.30566406 12.146484375 2639.03710938 9.3330078125 c 128,-1,75
 2634.76855469 6.51953125 2634.76855469 6.51953125 2629.96679688 4.4287109375 c 128,-1,76
 2625.16601562 2.337890625 2625.16601562 2.337890625 2619.80078125 1.1689453125 c 128,-1,77
 2614.43554688 0 2614.43554688 0 2609.15136719 0 c 2,78,-1
 2580.16699219 0 l 2,79,80
 2430.50585938 0 2430.50585938 0 2318.24414062 98.0908203125 c 1,81,82
 2191.14941406 0 2191.14941406 0 1961.43945312 0 c 2,83,-1
 1616 0 l 2,13,14
EndSplineSet
EndChar

StartChar: uniFEBB
Encoding: 65211 65211 198
Width: 1645
VWidth: 2593
GlyphClass: 2
Flags: W
AnchorPoint: "Anchor-10" 1002.11 1308.04 basechar 0
AnchorPoint: "Anchor-7" 654.109 -208.146 basechar 0
LayerCount: 2
Fore
SplineSet
1434.29785156 95.0966796875 m 0,0,1
 1307.95996094 0.259765625 1307.95996094 0.259765625 1091.26464844 -0 c 2,2,-1
 751.32421875 0 l 2,3,4
 481.346679688 0 481.346679688 0 369.275390625 119.125976562 c 1,5,6
 263.633789062 0 263.633789062 0 58.154296875 0 c 2,7,-1
 -5.0234375 0 l 2,8,9
 -40.96484375 0 -40.96484375 0 -67.34765625 16.9580078125 c 128,-1,10
 -93.7314453125 33.916015625 -93.7314453125 33.916015625 -106.876953125 62.619140625 c 128,-1,11
 -120.0234375 91.3232421875 -120.0234375 91.3232421875 -120.0234375 128 c 2,12,-1
 -120.0234375 139.010742188 l 2,13,14
 -120.013671875 175.020507812 -120.013671875 175.020507812 -106.654296875 203.122070312 c 128,-1,15
 -93.294921875 231.224609375 -93.294921875 231.224609375 -66.953125 247.612304688 c 128,-1,16
 -40.6123046875 264 -40.6123046875 264 -5.0234375 264 c 2,17,-1
 51.2685546875 264 l 2,18,19
 145.586914062 264.0078125 145.586914062 264.0078125 186.680664062 304.541015625 c 128,-1,20
 227.774414062 345.07421875 227.774414062 345.07421875 227.774414062 437.534179688 c 2,21,-1
 227.774414062 687.1796875 l 1,22,-1
 227.774414062 727.1796875 l 1,23,-1
 267.774414062 727.1796875 l 1,24,-1
 444.749023438 727.1796875 l 1,25,-1
 484.579101562 727.1796875 l 1,26,-1
 484.749023438 687.350585938 l 1,27,-1
 485.828125 434.2109375 l 2,28,29
 486.614257812 311.403320312 486.614257812 311.403320312 542.663085938 294.34375 c 1,30,31
 620.731445312 478.973632812 620.731445312 478.973632812 712.173828125 603.454101562 c 128,-1,32
 803.616210938 727.93359375 803.616210938 727.93359375 913.2578125 793.466796875 c 128,-1,33
 1022.90039062 859 1022.90039062 859 1147.5 859 c 0,34,35
 1373.95117188 859 1373.95117188 859 1492.88378906 701.061523438 c 0,36,37
 1583.95507812 581.564453125 1583.95507812 581.564453125 1584.56152344 399.706054688 c 0,38,39
 1586.1640625 211.940429688 1586.1640625 211.940429688 1434.29785156 95.0966796875 c 0,0,1
1315.55078125 454.962890625 m 0,40,41
 1306.91113281 491.213867188 1306.91113281 491.213867188 1292.50390625 516.877929688 c 128,-1,42
 1278.09667969 542.541015625 1278.09667969 542.541015625 1256.26171875 559.39453125 c 128,-1,43
 1234.42578125 576.248046875 1234.42578125 576.248046875 1205.15332031 584.12890625 c 128,-1,44
 1175.88183594 592.010742188 1175.88183594 592.010742188 1137.12402344 592.013671875 c 0,45,46
 1087.56054688 592.010742188 1087.56054688 592.010742188 1036.33691406 559.342773438 c 128,-1,47
 985.112304688 526.674804688 985.112304688 526.674804688 928.326171875 452.97265625 c 128,-1,48
 871.540039062 379.270507812 871.540039062 379.270507812 816.220703125 267.52734375 c 1,49,-1
 1111.19628906 267.52734375 l 2,50,51
 1246.49707031 267.959960938 1246.49707031 267.959960938 1290.46777344 306.93359375 c 0,52,53
 1321 333.997070312 1321 333.997070312 1321 389 c 0,54,55
 1321 429.213867188 1321 429.213867188 1315.55078125 454.962890625 c 0,40,41
EndSplineSet
EndChar

